<svg width="1891" height="1281" viewBox="0 0 1891 1281" fill="none" xmlns="http://www.w3.org/2000/svg">
<path d="M953.001 530.081C949.289 530.472 945.48 530.668 941.67 530.668C880.523 530.668 830.999 481.06 830.999 419.808C830.999 358.557 880.523 308.949 941.67 308.949C950.461 308.949 958.96 310.025 967.165 311.884C982.012 243.979 1033.78 234.684 1033.78 234.684C1061.23 229.009 1058.2 246.132 1058.2 246.132C995.004 419.221 1087.6 507.087 1150.22 544.66C1201.99 473.819 1218.01 375.093 1171.41 274.996C1149.24 227.443 1110.95 189.577 1063.28 167.659C875.248 81.4566 692 216.778 692 394.956C692 462.176 718.081 523.232 760.571 568.632L885.797 717.261C916.957 754.246 973.905 754.246 1005.16 717.261C1027.73 690.451 1050.29 663.641 1072.85 636.831C1074.81 634.581 1075.49 631.45 1074.71 628.514C1050 539.279 980.449 530.179 953.001 530.081Z" fill="url(#paint0_linear_565_1118)"/>
<path d="M147.017 938.761L232.75 1115.94C236.349 1123.14 238.148 1128.54 238.148 1132.14C238.148 1139.76 232.009 1146.64 219.732 1152.78C212.534 1156.38 206.819 1158.18 202.585 1158.18C198.563 1158.18 195.176 1157.22 192.424 1155.32C189.884 1153.41 187.978 1151.4 186.708 1149.28C185.65 1147.17 184.062 1143.99 181.945 1139.76L165.434 1105.47H77.4776L60.966 1139.76C58.8491 1143.99 57.1556 1147.06 55.8855 1148.97C54.827 1150.87 52.9219 1152.88 50.1699 1155C47.6297 1156.91 44.2427 1157.86 40.0089 1157.86C35.9869 1157.86 30.3771 1156.06 23.1798 1152.46C10.9019 1146.53 4.76297 1139.76 4.76297 1132.14C4.76297 1128.54 6.56231 1123.14 10.161 1115.94L95.8944 938.444C98.223 933.575 101.716 929.659 106.373 926.695C111.242 923.731 116.322 922.25 121.614 922.25C133.046 922.25 141.513 927.754 147.017 938.761ZM121.297 1014.97L100.34 1058.47H142.571L121.297 1014.97ZM358.064 987.661C379.232 987.661 396.802 995.811 410.774 1012.11C424.957 1028.2 432.048 1047.89 432.048 1071.17V1127.06C432.048 1131.93 431.837 1135.63 431.413 1138.17C431.202 1140.5 430.355 1143.15 428.873 1146.11C425.909 1151.82 417.654 1154.68 404.106 1154.68C389.076 1154.68 380.397 1150.77 378.068 1142.93C376.798 1139.34 376.163 1133.94 376.163 1126.74V1070.85C376.163 1062.18 373.623 1055.4 368.542 1050.53C363.673 1045.66 357.005 1043.23 348.538 1043.23C340.282 1043.23 333.508 1045.77 328.216 1050.85C323.135 1055.93 320.595 1062.6 320.595 1070.85V1127.06C320.595 1131.93 320.383 1135.63 319.96 1138.17C319.748 1140.5 318.795 1143.15 317.102 1146.11C314.35 1151.82 306.2 1154.68 292.652 1154.68C279.316 1154.68 271.166 1151.82 268.202 1146.11C266.72 1142.93 265.768 1140.18 265.344 1137.85C265.133 1135.31 265.027 1131.61 265.027 1126.74V1014.33C265.027 1009.68 265.133 1006.18 265.344 1003.86C265.768 1001.31 266.826 998.563 268.52 995.599C271.483 990.307 279.633 987.661 292.97 987.661C305.883 987.661 313.821 990.095 316.784 994.964C318.901 998.563 319.96 1002.9 319.96 1007.98C320.807 1006.5 322.712 1004.38 325.675 1001.63C328.639 998.881 331.497 996.658 334.249 994.964C341.446 990.095 349.384 987.661 358.064 987.661ZM561.182 1043.86L540.542 1042.59V1086.41C540.542 1092.13 541.389 1096.26 543.082 1098.8C544.988 1101.34 548.375 1102.61 553.243 1102.61C558.324 1102.61 562.134 1102.82 564.675 1103.24C567.427 1103.45 570.284 1104.41 573.248 1106.1C578.117 1108.85 580.551 1115.94 580.551 1127.37C580.551 1140.71 577.588 1148.86 571.66 1151.82C568.485 1153.31 565.627 1154.26 563.087 1154.68C560.758 1154.89 557.266 1155 552.608 1155C530.593 1155 513.87 1150.03 502.438 1140.08C491.007 1130.13 485.292 1113.3 485.292 1089.59V1042.59C481.27 1043.23 476.93 1043.55 472.273 1043.55C467.616 1043.55 463.7 1041.75 460.524 1038.15C457.561 1034.55 456.079 1028.41 456.079 1019.73C456.079 1011.05 456.608 1004.81 457.667 1001C458.725 996.975 460.207 994.118 462.112 992.424C465.499 989.672 469.733 988.296 474.813 988.296L485.292 989.566V956.861C485.292 951.992 485.398 948.393 485.609 946.064C486.033 943.736 487.091 941.196 488.785 938.444C491.537 933.152 499.687 930.505 513.235 930.505C527.629 930.505 536.203 934.422 538.955 942.254C540.013 945.641 540.542 951.039 540.542 958.448V989.566C549.856 988.72 556.842 988.296 561.499 988.296C566.368 988.296 569.967 988.508 572.295 988.931C574.836 989.143 577.693 990.095 580.869 991.789C586.373 994.541 589.124 1002.69 589.124 1016.24C589.124 1029.58 586.267 1037.73 580.551 1040.69C577.376 1042.17 574.518 1043.12 571.978 1043.55C569.649 1043.76 566.051 1043.86 561.182 1043.86ZM724.78 1005.44C726.05 993.588 734.412 987.661 749.865 987.661C758.121 987.661 764.259 988.296 768.282 989.566C772.304 990.836 775.056 993.059 776.537 996.234C778.231 999.41 779.183 1002.27 779.395 1004.81C779.818 1007.14 780.03 1010.74 780.03 1015.6V1126.74C780.03 1131.61 779.818 1135.31 779.395 1137.85C779.183 1140.18 778.337 1142.93 776.855 1146.11C773.891 1151.61 766.588 1154.36 754.945 1154.36C743.514 1154.36 735.788 1152.99 731.765 1150.24C727.955 1147.27 725.732 1143.04 725.097 1137.54C717.265 1148.76 704.14 1154.36 685.723 1154.36C667.518 1154.36 650.583 1146 634.918 1129.28C619.254 1112.56 611.421 1093.19 611.421 1071.17C611.421 1048.94 619.254 1029.58 634.918 1013.06C650.795 996.34 668.153 987.979 686.994 987.979C694.191 987.979 700.753 989.249 706.68 991.789C712.608 994.329 716.736 996.764 719.064 999.092C721.393 1001.21 723.298 1003.33 724.78 1005.44ZM666.989 1071.49C666.989 1078.47 669.741 1084.83 675.245 1090.54C680.749 1096.05 687.417 1098.8 695.249 1098.8C703.082 1098.8 709.538 1095.94 714.619 1090.22C719.911 1084.51 722.557 1078.26 722.557 1071.49C722.557 1064.5 720.017 1058.05 714.936 1052.12C710.067 1046.19 703.399 1043.23 694.932 1043.23C686.676 1043.23 679.902 1046.19 674.61 1052.12C669.529 1058.05 666.989 1064.5 666.989 1071.49ZM928.54 989.566C932.563 990.836 935.844 993.059 938.384 996.234C941.136 999.198 942.512 1004.07 942.512 1010.84C942.512 1017.61 940.501 1025.02 936.479 1033.07C932.457 1041.11 926.635 1045.13 919.015 1045.13C915.204 1045.13 911.5 1044.29 907.901 1042.59C904.514 1040.9 899.963 1040.05 894.247 1040.05C888.532 1040.05 883.134 1042.06 878.053 1046.09C873.184 1050.11 870.75 1054.98 870.75 1060.69V1127.37C870.75 1132.24 870.538 1135.95 870.115 1138.49C869.903 1140.82 868.95 1143.57 867.257 1146.74C864.082 1152.25 855.826 1155 842.49 1155C832.329 1155 825.025 1153.2 820.58 1149.6C817.193 1146.64 815.288 1142.09 814.864 1135.95C814.864 1133.83 814.864 1130.76 814.864 1126.74V1015.29C814.864 1010.42 814.97 1006.82 815.182 1004.49C815.605 1001.95 816.558 999.198 818.04 996.234C821.003 990.519 829.259 987.661 842.807 987.661C855.508 987.661 863.447 990.095 866.622 994.964C868.95 998.351 870.115 1001.84 870.115 1005.44C871.173 1003.96 872.655 1002.16 874.56 1000.04C876.677 997.928 881.017 995.07 887.579 991.471C894.141 987.873 899.857 986.073 904.726 986.073C909.806 986.073 914.04 986.391 917.427 987.026C920.814 987.449 924.518 988.296 928.54 989.566Z" fill="url(#paint1_linear_565_1118)"/>
<path d="M1103.83 938.761L1189.56 1115.94C1193.16 1123.14 1194.96 1128.54 1194.96 1132.14C1194.96 1139.76 1188.82 1146.64 1176.54 1152.78C1169.34 1156.38 1163.63 1158.18 1159.4 1158.18C1155.37 1158.18 1151.99 1157.22 1149.23 1155.32C1146.69 1153.41 1144.79 1151.4 1143.52 1149.28C1142.46 1147.17 1140.87 1143.99 1138.76 1139.76L1122.24 1105.47H1034.29L1017.78 1139.76C1015.66 1143.99 1013.97 1147.06 1012.7 1148.97C1011.64 1150.87 1009.73 1152.88 1006.98 1155C1004.44 1156.91 1001.05 1157.86 996.82 1157.86C992.798 1157.86 987.188 1156.06 979.99 1152.46C967.713 1146.53 961.574 1139.76 961.574 1132.14C961.574 1128.54 963.373 1123.14 966.972 1115.94L1052.71 938.444C1055.03 933.575 1058.53 929.659 1063.18 926.695C1068.05 923.731 1073.13 922.25 1078.43 922.25C1089.86 922.25 1098.32 927.754 1103.83 938.761ZM1078.11 1014.97L1057.15 1058.47H1099.38L1078.11 1014.97ZM1314.87 987.661C1336.04 987.661 1353.61 995.811 1367.58 1012.11C1381.77 1028.2 1388.86 1047.89 1388.86 1071.17V1127.06C1388.86 1131.93 1388.65 1135.63 1388.22 1138.17C1388.01 1140.5 1387.17 1143.15 1385.68 1146.11C1382.72 1151.82 1374.46 1154.68 1360.92 1154.68C1345.89 1154.68 1337.21 1150.77 1334.88 1142.93C1333.61 1139.34 1332.97 1133.94 1332.97 1126.74V1070.85C1332.97 1062.18 1330.43 1055.4 1325.35 1050.53C1320.48 1045.66 1313.82 1043.23 1305.35 1043.23C1297.09 1043.23 1290.32 1045.77 1285.03 1050.85C1279.95 1055.93 1277.41 1062.6 1277.41 1070.85V1127.06C1277.41 1131.93 1277.19 1135.63 1276.77 1138.17C1276.56 1140.5 1275.61 1143.15 1273.91 1146.11C1271.16 1151.82 1263.01 1154.68 1249.46 1154.68C1236.13 1154.68 1227.98 1151.82 1225.01 1146.11C1223.53 1142.93 1222.58 1140.18 1222.16 1137.85C1221.94 1135.31 1221.84 1131.61 1221.84 1126.74V1014.33C1221.84 1009.68 1221.94 1006.18 1222.16 1003.86C1222.58 1001.31 1223.64 998.563 1225.33 995.599C1228.29 990.307 1236.44 987.661 1249.78 987.661C1262.69 987.661 1270.63 990.095 1273.6 994.964C1275.71 998.563 1276.77 1002.9 1276.77 1007.98C1277.62 1006.5 1279.52 1004.38 1282.49 1001.63C1285.45 998.881 1288.31 996.658 1291.06 994.964C1298.26 990.095 1306.2 987.661 1314.87 987.661ZM1517.99 1043.86L1497.35 1042.59V1086.41C1497.35 1092.13 1498.2 1096.26 1499.89 1098.8C1501.8 1101.34 1505.19 1102.61 1510.05 1102.61C1515.13 1102.61 1518.94 1102.82 1521.49 1103.24C1524.24 1103.45 1527.09 1104.41 1530.06 1106.1C1534.93 1108.85 1537.36 1115.94 1537.36 1127.37C1537.36 1140.71 1534.4 1148.86 1528.47 1151.82C1525.3 1153.31 1522.44 1154.26 1519.9 1154.68C1517.57 1154.89 1514.08 1155 1509.42 1155C1487.4 1155 1470.68 1150.03 1459.25 1140.08C1447.82 1130.13 1442.1 1113.3 1442.1 1089.59V1042.59C1438.08 1043.23 1433.74 1043.55 1429.08 1043.55C1424.43 1043.55 1420.51 1041.75 1417.33 1038.15C1414.37 1034.55 1412.89 1028.41 1412.89 1019.73C1412.89 1011.05 1413.42 1004.81 1414.48 1001C1415.54 996.975 1417.02 994.118 1418.92 992.424C1422.31 989.672 1426.54 988.296 1431.62 988.296L1442.1 989.566V956.861C1442.1 951.992 1442.21 948.393 1442.42 946.064C1442.84 943.736 1443.9 941.196 1445.6 938.444C1448.35 933.152 1456.5 930.505 1470.05 930.505C1484.44 930.505 1493.01 934.422 1495.77 942.254C1496.82 945.641 1497.35 951.039 1497.35 958.448V989.566C1506.67 988.72 1513.65 988.296 1518.31 988.296C1523.18 988.296 1526.78 988.508 1529.11 988.931C1531.65 989.143 1534.5 990.095 1537.68 991.789C1543.18 994.541 1545.94 1002.69 1545.94 1016.24C1545.94 1029.58 1543.08 1037.73 1537.36 1040.69C1534.19 1042.17 1531.33 1043.12 1528.79 1043.55C1526.46 1043.76 1522.86 1043.86 1517.99 1043.86ZM1728.1 1051.48C1728.1 1064.4 1724.82 1074.03 1718.26 1080.38C1711.9 1086.52 1704.81 1089.59 1696.98 1089.59H1621.73C1621.73 1095.52 1625.22 1100.49 1632.2 1104.51C1639.19 1108.53 1646.18 1110.55 1653.16 1110.55C1665.44 1110.55 1675.07 1109.28 1682.06 1106.74L1685.55 1105.47C1690.63 1103.14 1694.86 1101.97 1698.25 1101.97C1705.02 1101.97 1710.85 1106.74 1715.72 1116.26C1718.47 1121.98 1719.84 1126.85 1719.84 1130.87C1719.84 1149.71 1697.3 1159.13 1652.21 1159.13C1636.54 1159.13 1622.57 1156.48 1610.29 1151.19C1598.23 1145.69 1588.81 1138.49 1582.03 1129.6C1568.7 1112.45 1562.03 1093.29 1562.03 1072.12C1562.03 1045.45 1570.6 1024.18 1587.75 1008.3C1605.11 992.212 1626.7 984.168 1652.53 984.168C1681.95 984.168 1703.54 994.541 1717.3 1015.29C1724.5 1026.29 1728.1 1038.36 1728.1 1051.48ZM1661.1 1060.69C1669.14 1060.69 1673.17 1057.31 1673.17 1050.53C1673.17 1045.66 1671.26 1041.75 1667.45 1038.78C1663.85 1035.82 1658.56 1034.34 1651.57 1034.34C1644.8 1034.34 1638.03 1037.2 1631.25 1042.91C1624.48 1048.42 1621.09 1054.34 1621.09 1060.69H1661.1ZM1872.02 989.566C1876.04 990.836 1879.32 993.059 1881.86 996.234C1884.61 999.198 1885.99 1004.07 1885.99 1010.84C1885.99 1017.61 1883.98 1025.02 1879.96 1033.07C1875.93 1041.11 1870.11 1045.13 1862.49 1045.13C1858.68 1045.13 1854.98 1044.29 1851.38 1042.59C1847.99 1040.9 1843.44 1040.05 1837.72 1040.05C1832.01 1040.05 1826.61 1042.06 1821.53 1046.09C1816.66 1050.11 1814.23 1054.98 1814.23 1060.69V1127.37C1814.23 1132.24 1814.01 1135.95 1813.59 1138.49C1813.38 1140.82 1812.43 1143.57 1810.73 1146.74C1807.56 1152.25 1799.3 1155 1785.97 1155C1775.81 1155 1768.5 1153.2 1764.06 1149.6C1760.67 1146.64 1758.76 1142.09 1758.34 1135.95C1758.34 1133.83 1758.34 1130.76 1758.34 1126.74V1015.29C1758.34 1010.42 1758.45 1006.82 1758.66 1004.49C1759.08 1001.95 1760.03 999.198 1761.52 996.234C1764.48 990.519 1772.74 987.661 1786.28 987.661C1798.99 987.661 1806.92 990.095 1810.1 994.964C1812.43 998.351 1813.59 1001.84 1813.59 1005.44C1814.65 1003.96 1816.13 1002.16 1818.04 1000.04C1820.15 997.928 1824.49 995.07 1831.06 991.471C1837.62 987.873 1843.33 986.073 1848.2 986.073C1853.28 986.073 1857.52 986.391 1860.9 987.026C1864.29 987.449 1868 988.296 1872.02 989.566Z" fill="#404040"/>
<defs>
<linearGradient id="paint0_linear_565_1118" x1="692.692" y1="252.431" x2="1082.6" y2="766.708" gradientUnits="userSpaceOnUse">
<stop offset="0.170481" stop-color="#FF6600"/>
<stop offset="0.8668" stop-color="#FF2500"/>
</linearGradient>
<linearGradient id="paint1_linear_565_1118" x1="2.58122" y1="916.843" x2="68.0302" y2="1423.28" gradientUnits="userSpaceOnUse">
<stop offset="0.170481" stop-color="#FF6600"/>
<stop offset="0.8668" stop-color="#FF2500"/>
</linearGradient>
</defs>
</svg>
