<svg width="456" height="512" viewBox="0 0 456 512" fill="none" xmlns="http://www.w3.org/2000/svg">
<path d="M229.659 341.442C226.393 341.785 223.041 341.956 219.689 341.956C165.884 341.956 122.307 298.472 122.307 244.781C122.307 191.091 165.884 147.607 219.689 147.607C227.425 147.607 234.902 148.55 242.122 150.18C255.187 90.6567 300.74 82.5088 300.74 82.5088C324.892 77.5342 322.228 92.5436 322.228 92.5436C266.618 244.267 348.099 321.286 403.193 354.221C448.747 292.125 462.843 205.586 421.844 117.845C402.334 76.162 368.641 42.9698 326.697 23.7578C161.243 -51.8036 0 66.8133 0 222.996C0 281.919 22.9487 335.438 60.3372 375.234L145.514 475.926C186.083 523.87 260.086 523.87 300.568 475.926C312.945 461.259 325.408 446.507 337.785 431.841C317.157 349.761 254.241 341.528 229.659 341.442Z" fill="white"/>
</svg>
