<svg width="512" height="512" viewBox="0 0 512 512" fill="none" xmlns="http://www.w3.org/2000/svg">
<path d="M257.659 341.442C254.393 341.785 251.041 341.956 247.689 341.956C193.884 341.956 150.307 298.472 150.307 244.781C150.307 191.091 193.884 147.607 247.689 147.607C255.425 147.607 262.902 148.55 270.122 150.18C283.187 90.6567 328.74 82.5088 328.74 82.5088C352.892 77.5342 350.228 92.5436 350.228 92.5436C294.618 244.267 376.099 321.286 431.193 354.221C476.747 292.125 490.843 205.586 449.844 117.845C430.334 76.162 396.641 42.9698 354.697 23.7578C189.243 -51.8036 28 66.8133 28 222.996C28 281.919 50.9487 335.438 88.3372 375.234L173.514 475.926C214.083 523.87 288.086 523.87 328.568 475.926C340.945 461.259 353.408 446.507 365.785 431.841C345.157 349.761 282.241 341.528 257.659 341.442Z" fill="url(#paint0_linear_565_1109)"/>
<defs>
<linearGradient id="paint0_linear_565_1109" x1="28.609" y1="94.7543" x2="355.182" y2="542.317" gradientUnits="userSpaceOnUse">
<stop offset="0.170481" stop-color="#FF6600"/>
<stop offset="0.8668" stop-color="#FF2500"/>
</linearGradient>
</defs>
</svg>
