<svg clip-rule="evenodd" fill-rule="evenodd" height="827" image-rendering="optimizeQuality" shape-rendering="geometricPrecision" text-rendering="geometricPrecision" viewBox="0 0 827 827" width="827" xmlns="http://www.w3.org/2000/svg"><path d="m118 148v-59h147c-2 9-3 19-3 29s1 20 3 30zm216-59h159c3 9 5 19 5 29 0 11-2 20-5 30h-159c-3-10-5-19-5-30 0-10 2-20 5-29zm228 0h147v59h-147c2-10 3-20 3-30s-1-20-3-29z" fill="#f60"/><path d="m414 118c29 0 57 4 83 12-2 19-11 35-24 48-15 15-36 25-59 25-24 0-45-10-60-25-13-13-22-29-24-48 26-8 54-12 84-12zm146 39c89 51 149 147 149 257 0 119-71 222-174 269v-269c0-26-10-49-27-66-16-17-40-27-65-27h-59c-25 0-49 10-65 27-17 17-27 40-27 66v269c-103-47-174-150-174-269 0-110 60-206 149-257 7 26 21 50 39 68 28 28 66 45 108 45 41 0 79-17 107-45 18-18 32-42 39-68zm-91 547c-18 3-37 5-55 5-19 0-38-2-56-5v-290c0-8 3-14 8-19 4-4 11-7 18-7h59c7 0 14 3 18 7 5 5 8 11 8 19z" fill="#f60"/><g fill="#5a5a5a"><circle cx="414" cy="118" r="118"/><rect height="473" rx="59" ry="44" width="177" x="325" y="354"/></g></svg>