<svg width="4625" height="828" viewBox="0 0 4625 828" fill="none" xmlns="http://www.w3.org/2000/svg">
<path d="M307.333 456.319C302.962 456.778 298.476 457.007 293.99 457.007C221.988 457.007 163.673 398.826 163.673 326.99C163.673 255.153 221.988 196.972 293.99 196.972C304.342 196.972 314.349 198.235 324.011 200.415C341.494 120.775 402.454 109.873 402.454 109.873C434.774 103.217 431.209 123.3 431.209 123.3C356.791 326.301 465.83 429.351 539.557 473.417C600.518 390.335 619.381 274.547 564.517 157.152C538.407 101.381 493.32 56.9711 437.19 31.266C215.777 -69.8332 0 88.8731 0 297.842C0 376.679 30.7103 448.286 80.7438 501.532L194.728 636.255C249.018 700.403 348.05 700.403 402.224 636.255C418.787 616.632 435.465 596.894 452.027 577.271C424.423 467.45 340.228 456.434 307.333 456.319Z" fill="url(#paint0_linear_574_1262)"/>
<path d="M1052.69 200.196L1237.37 581.868C1245.12 597.372 1249 609 1249 616.752C1249 633.168 1235.78 647.988 1209.33 661.212C1193.82 668.964 1181.51 672.84 1172.39 672.84C1163.73 672.84 1156.43 670.788 1150.5 666.684C1145.03 662.58 1140.93 658.248 1138.19 653.688C1135.91 649.128 1132.49 642.288 1127.93 633.168L1092.36 559.296H902.896L867.328 633.168C862.768 642.288 859.12 648.9 856.384 653.004C854.104 657.108 850 661.44 844.072 666C838.6 670.104 831.304 672.156 822.184 672.156C813.52 672.156 801.436 668.28 785.932 660.528C759.484 647.76 746.26 633.168 746.26 616.752C746.26 609 750.136 597.372 757.888 581.868L942.568 199.512C947.584 189.024 955.108 180.588 965.14 174.204C975.628 167.82 986.572 164.628 997.972 164.628C1022.6 164.628 1040.84 176.484 1052.69 200.196ZM997.288 364.356L952.144 458.064H1043.12L997.288 364.356ZM1486.79 305.532C1532.39 305.532 1570.24 323.088 1600.34 358.2C1630.89 392.856 1646.16 435.264 1646.16 485.424V605.808C1646.16 616.296 1645.71 624.276 1644.8 629.748C1644.34 634.764 1642.52 640.464 1639.32 646.848C1632.94 659.16 1615.16 665.316 1585.97 665.316C1553.6 665.316 1534.9 656.88 1529.88 640.008C1527.15 632.256 1525.78 620.628 1525.78 605.124V484.74C1525.78 466.044 1520.31 451.452 1509.36 440.964C1498.88 430.476 1484.51 425.232 1466.27 425.232C1448.49 425.232 1433.9 430.704 1422.5 441.648C1411.55 452.592 1406.08 466.956 1406.08 484.74V605.808C1406.08 616.296 1405.62 624.276 1404.71 629.748C1404.26 634.764 1402.2 640.464 1398.56 646.848C1392.63 659.16 1375.07 665.316 1345.89 665.316C1317.16 665.316 1299.6 659.16 1293.22 646.848C1290.03 640.008 1287.98 634.08 1287.06 629.064C1286.61 623.592 1286.38 615.612 1286.38 605.124V362.988C1286.38 352.956 1286.61 345.432 1287.06 340.416C1287.98 334.944 1290.26 329.016 1293.9 322.632C1300.29 311.232 1317.84 305.532 1346.57 305.532C1374.39 305.532 1391.49 310.776 1397.87 321.264C1402.43 329.016 1404.71 338.364 1404.71 349.308C1406.54 346.116 1410.64 341.556 1417.02 335.628C1423.41 329.7 1429.56 324.912 1435.49 321.264C1451 310.776 1468.1 305.532 1486.79 305.532ZM1903.81 426.6L1859.35 423.864V518.256C1859.35 530.568 1861.18 539.46 1864.82 544.932C1868.93 550.404 1876.22 553.14 1886.71 553.14C1897.66 553.14 1905.86 553.596 1911.34 554.508C1917.26 554.964 1923.42 557.016 1929.8 560.664C1940.29 566.592 1945.54 581.868 1945.54 606.492C1945.54 635.22 1939.15 652.776 1926.38 659.16C1919.54 662.352 1913.39 664.404 1907.92 665.316C1902.9 665.772 1895.38 666 1885.34 666C1837.92 666 1801.9 655.284 1777.27 633.852C1752.65 612.42 1740.34 576.168 1740.34 525.096V423.864C1731.67 425.232 1722.32 425.916 1712.29 425.916C1702.26 425.916 1693.82 422.04 1686.98 414.288C1680.6 406.536 1677.41 393.312 1677.41 374.616C1677.41 355.92 1678.55 342.468 1680.83 334.26C1683.11 325.596 1686.3 319.44 1690.4 315.792C1697.7 309.864 1706.82 306.9 1717.76 306.9L1740.34 309.636V239.184C1740.34 228.696 1740.56 220.944 1741.02 215.928C1741.93 210.912 1744.21 205.44 1747.86 199.512C1753.79 188.112 1771.34 182.412 1800.53 182.412C1831.54 182.412 1850 190.848 1855.93 207.72C1858.21 215.016 1859.35 226.644 1859.35 242.604V309.636C1879.42 307.812 1894.46 306.9 1904.5 306.9C1914.98 306.9 1922.74 307.356 1927.75 308.268C1933.22 308.724 1939.38 310.776 1946.22 314.424C1958.08 320.352 1964 337.908 1964 367.092C1964 395.82 1957.85 413.376 1945.54 419.76C1938.7 422.952 1932.54 425.004 1927.07 425.916C1922.05 426.372 1914.3 426.6 1903.81 426.6ZM2235.7 343.836C2238.44 318.3 2256.45 305.532 2289.74 305.532C2307.52 305.532 2320.75 306.9 2329.41 309.636C2338.07 312.372 2344 317.16 2347.19 324C2350.84 330.84 2352.89 336.996 2353.35 342.468C2354.26 347.484 2354.72 355.236 2354.72 365.724V605.124C2354.72 615.612 2354.26 623.592 2353.35 629.064C2352.89 634.08 2351.07 640.008 2347.88 646.848C2341.49 658.704 2325.76 664.632 2300.68 664.632C2276.06 664.632 2259.41 661.668 2250.75 655.74C2242.54 649.356 2237.75 640.236 2236.39 628.38C2219.51 652.548 2191.24 664.632 2151.57 664.632C2112.35 664.632 2075.87 646.62 2042.13 610.596C2008.39 574.572 1991.51 532.848 1991.51 485.424C1991.51 437.544 2008.39 395.82 2042.13 360.252C2076.33 324.228 2113.72 306.216 2154.31 306.216C2169.81 306.216 2183.95 308.952 2196.71 314.424C2209.48 319.896 2218.37 325.14 2223.39 330.156C2228.41 334.716 2232.51 339.276 2235.7 343.836ZM2111.21 486.108C2111.21 501.156 2117.14 514.836 2129 527.148C2140.85 539.004 2155.22 544.932 2172.09 544.932C2188.96 544.932 2202.87 538.776 2213.81 526.464C2225.21 514.152 2230.91 500.7 2230.91 486.108C2230.91 471.06 2225.44 457.152 2214.5 444.384C2204.01 431.616 2189.65 425.232 2171.41 425.232C2153.62 425.232 2139.03 431.616 2127.63 444.384C2116.69 457.152 2111.21 471.06 2111.21 486.108ZM2654.11 309.636C2662.77 312.372 2669.84 317.16 2675.31 324C2681.24 330.384 2684.2 340.872 2684.2 355.464C2684.2 370.056 2679.87 386.016 2671.21 403.344C2662.54 420.672 2650 429.336 2633.59 429.336C2625.38 429.336 2617.4 427.512 2609.65 423.864C2602.35 420.216 2592.55 418.392 2580.24 418.392C2567.92 418.392 2556.3 422.724 2545.35 431.388C2534.86 440.052 2529.62 450.54 2529.62 462.852V606.492C2529.62 616.98 2529.16 624.96 2528.25 630.432C2527.8 635.448 2525.74 641.376 2522.1 648.216C2515.26 660.072 2497.47 666 2468.74 666C2446.86 666 2431.12 662.124 2421.55 654.372C2414.25 647.988 2410.15 638.184 2409.24 624.96C2409.24 620.4 2409.24 613.788 2409.24 605.124V365.04C2409.24 354.552 2409.46 346.8 2409.92 341.784C2410.83 336.312 2412.88 330.384 2416.08 324C2422.46 311.688 2440.24 305.532 2469.43 305.532C2496.79 305.532 2513.89 310.776 2520.73 321.264C2525.74 328.56 2528.25 336.084 2528.25 343.836C2530.53 340.644 2533.72 336.768 2537.83 332.208C2542.39 327.648 2551.74 321.492 2565.87 313.74C2580.01 305.988 2592.32 302.112 2602.81 302.112C2613.75 302.112 2622.87 302.796 2630.17 304.164C2637.46 305.076 2645.44 306.9 2654.11 309.636Z" fill="url(#paint1_linear_574_1262)"/>
<path d="M3011.18 200.196L3195.86 581.868C3203.61 597.372 3207.48 609 3207.48 616.752C3207.48 633.168 3194.26 647.988 3167.81 661.212C3152.31 668.964 3140 672.84 3130.88 672.84C3122.21 672.84 3114.92 670.788 3108.99 666.684C3103.52 662.58 3099.41 658.248 3096.68 653.688C3094.4 649.128 3090.98 642.288 3086.42 633.168L3050.85 559.296H2861.38L2825.81 633.168C2821.25 642.288 2817.6 648.9 2814.87 653.004C2812.59 657.108 2808.48 661.44 2802.56 666C2797.08 670.104 2789.79 672.156 2780.67 672.156C2772 672.156 2759.92 668.28 2744.42 660.528C2717.97 647.76 2704.74 633.168 2704.74 616.752C2704.74 609 2708.62 597.372 2716.37 581.868L2901.05 199.512C2906.07 189.024 2913.59 180.588 2923.62 174.204C2934.11 167.82 2945.06 164.628 2956.46 164.628C2981.08 164.628 2999.32 176.484 3011.18 200.196ZM2955.77 364.356L2910.63 458.064H3001.6L2955.77 364.356ZM3445.28 305.532C3490.88 305.532 3528.72 323.088 3558.82 358.2C3589.37 392.856 3604.65 435.264 3604.65 485.424V605.808C3604.65 616.296 3604.19 624.276 3603.28 629.748C3602.82 634.764 3601 640.464 3597.81 646.848C3591.42 659.16 3573.64 665.316 3544.46 665.316C3512.08 665.316 3493.38 656.88 3488.37 640.008C3485.63 632.256 3484.26 620.628 3484.26 605.124V484.74C3484.26 466.044 3478.79 451.452 3467.85 440.964C3457.36 430.476 3443 425.232 3424.76 425.232C3406.97 425.232 3392.38 430.704 3380.98 441.648C3370.04 452.592 3364.56 466.956 3364.56 484.74V605.808C3364.56 616.296 3364.11 624.276 3363.2 629.748C3362.74 634.764 3360.69 640.464 3357.04 646.848C3351.11 659.16 3333.56 665.316 3304.37 665.316C3275.64 665.316 3258.09 659.16 3251.7 646.848C3248.51 640.008 3246.46 634.08 3245.55 629.064C3245.09 623.592 3244.86 615.612 3244.86 605.124V362.988C3244.86 352.956 3245.09 345.432 3245.55 340.416C3246.46 334.944 3248.74 329.016 3252.39 322.632C3258.77 311.232 3276.33 305.532 3305.06 305.532C3332.87 305.532 3349.97 310.776 3356.36 321.264C3360.92 329.016 3363.2 338.364 3363.2 349.308C3365.02 346.116 3369.12 341.556 3375.51 335.628C3381.89 329.7 3388.05 324.912 3393.98 321.264C3409.48 310.776 3426.58 305.532 3445.28 305.532ZM3862.3 426.6L3817.84 423.864V518.256C3817.84 530.568 3819.66 539.46 3823.31 544.932C3827.41 550.404 3834.71 553.14 3845.2 553.14C3856.14 553.14 3864.35 553.596 3869.82 554.508C3875.75 554.964 3881.9 557.016 3888.29 560.664C3898.78 566.592 3904.02 581.868 3904.02 606.492C3904.02 635.22 3897.64 652.776 3884.87 659.16C3878.03 662.352 3871.87 664.404 3866.4 665.316C3861.38 665.772 3853.86 666 3843.83 666C3796.4 666 3760.38 655.284 3735.76 633.852C3711.13 612.42 3698.82 576.168 3698.82 525.096V423.864C3690.16 425.232 3680.81 425.916 3670.78 425.916C3660.74 425.916 3652.31 422.04 3645.47 414.288C3639.08 406.536 3635.89 393.312 3635.89 374.616C3635.89 355.92 3637.03 342.468 3639.31 334.26C3641.59 325.596 3644.78 319.44 3648.89 315.792C3656.18 309.864 3665.3 306.9 3676.25 306.9L3698.82 309.636V239.184C3698.82 228.696 3699.05 220.944 3699.5 215.928C3700.42 210.912 3702.7 205.44 3706.34 199.512C3712.27 188.112 3729.83 182.412 3759.01 182.412C3790.02 182.412 3808.49 190.848 3814.42 207.72C3816.7 215.016 3817.84 226.644 3817.84 242.604V309.636C3837.9 307.812 3852.95 306.9 3862.98 306.9C3873.47 306.9 3881.22 307.356 3886.24 308.268C3891.71 308.724 3897.86 310.776 3904.7 314.424C3916.56 320.352 3922.49 337.908 3922.49 367.092C3922.49 395.82 3916.33 413.376 3904.02 419.76C3897.18 422.952 3891.02 425.004 3885.55 425.916C3880.54 426.372 3872.78 426.6 3862.3 426.6ZM4294.37 443.016C4294.37 470.832 4287.3 491.58 4273.17 505.26C4259.49 518.484 4244.21 525.096 4227.34 525.096H4065.23C4065.23 537.864 4072.76 548.58 4087.8 557.244C4102.85 565.908 4117.9 570.24 4132.95 570.24C4159.4 570.24 4180.14 567.504 4195.19 562.032L4202.72 559.296C4213.66 554.28 4222.78 551.772 4230.08 551.772C4244.67 551.772 4257.21 562.032 4267.7 582.552C4273.62 594.864 4276.59 605.352 4276.59 614.016C4276.59 654.6 4228.02 674.892 4130.9 674.892C4097.15 674.892 4067.06 669.192 4040.61 657.792C4014.62 645.936 3994.32 630.432 3979.73 611.28C3951 574.344 3936.64 533.076 3936.64 487.476C3936.64 430.02 3955.11 384.192 3992.04 349.992C4029.44 315.336 4075.95 298.008 4131.58 298.008C4194.96 298.008 4241.48 320.352 4271.12 365.04C4286.62 388.752 4294.37 414.744 4294.37 443.016ZM4150.05 462.852C4167.38 462.852 4176.04 455.556 4176.04 440.964C4176.04 430.476 4171.94 422.04 4163.73 415.656C4155.98 409.272 4144.58 406.08 4129.53 406.08C4114.94 406.08 4100.34 412.236 4085.75 424.548C4071.16 436.404 4063.86 449.172 4063.86 462.852H4150.05ZM4583.87 309.636C4592.53 312.372 4599.6 317.16 4605.07 324C4611 330.384 4613.96 340.872 4613.96 355.464C4613.96 370.056 4609.63 386.016 4600.97 403.344C4592.3 420.672 4579.76 429.336 4563.35 429.336C4555.14 429.336 4547.16 427.512 4539.41 423.864C4532.11 420.216 4522.31 418.392 4510 418.392C4497.68 418.392 4486.06 422.724 4475.11 431.388C4464.62 440.052 4459.38 450.54 4459.38 462.852V606.492C4459.38 616.98 4458.92 624.96 4458.01 630.432C4457.56 635.448 4455.5 641.376 4451.86 648.216C4445.02 660.072 4427.23 666 4398.5 666C4376.62 666 4360.88 662.124 4351.31 654.372C4344.01 647.988 4339.91 638.184 4339 624.96C4339 620.4 4339 613.788 4339 605.124V365.04C4339 354.552 4339.22 346.8 4339.68 341.784C4340.59 336.312 4342.64 330.384 4345.84 324C4352.22 311.688 4370 305.532 4399.19 305.532C4426.55 305.532 4443.65 310.776 4450.49 321.264C4455.5 328.56 4458.01 336.084 4458.01 343.836C4460.29 340.644 4463.48 336.768 4467.59 332.208C4472.15 327.648 4481.5 321.492 4495.63 313.74C4509.77 305.988 4522.08 302.112 4532.57 302.112C4543.51 302.112 4552.63 302.796 4559.93 304.164C4567.22 305.076 4575.2 306.9 4583.87 309.636Z" fill="#404040"/>
<defs>
<linearGradient id="paint0_linear_574_1262" x1="0.814906" y1="126.257" x2="437.737" y2="725.158" gradientUnits="userSpaceOnUse">
<stop offset="0.170481" stop-color="#FF6600"/>
<stop offset="0.8668" stop-color="#FF2500"/>
</linearGradient>
<linearGradient id="paint1_linear_574_1262" x1="741.308" y1="152.756" x2="889.031" y2="1242.99" gradientUnits="userSpaceOnUse">
<stop offset="0.170481" stop-color="#FF6600"/>
<stop offset="0.8668" stop-color="#FF2500"/>
</linearGradient>
</defs>
</svg>
