<svg clip-rule="evenodd" fill-rule="evenodd" height="2362" image-rendering="optimizeQuality" shape-rendering="geometricPrecision" text-rendering="geometricPrecision" viewBox="0 0 2362 2362" width="2362" xmlns="http://www.w3.org/2000/svg"><path d="m738 782v-88h220c-3 14-4 29-4 44s1 30 4 44zm324-88h238c5 14 8 29 8 44 0 16-3 31-8 44h-238c-5-13-8-28-8-44 0-15 3-30 8-44zm342 0h220v88h-220c3-14 4-29 4-44s-1-30-4-44z" fill="#f60"/><path d="m1181 738c44 0 86 6 126 18-4 28-17 53-36 72-23 23-55 37-90 37s-67-14-90-37c-19-19-32-44-36-72 40-12 82-18 126-18zm220 58c133 77 223 220 223 385 0 179-107 334-260 403v-403c0-38-16-73-41-98s-60-41-98-41h-88c-38 0-73 16-98 41s-41 60-41 98v403c-153-69-260-224-260-403 0-165 90-308 223-385 11 40 31 75 59 103 41 41 98 66 161 66s120-25 161-66c28-28 48-63 59-103zm-137 820c-27 5-55 8-83 8s-56-3-83-8v-435c0-11 4-20 12-27 7-7 16-12 27-12h88c11 0 20 5 27 12 8 7 12 16 12 27z" fill="#f60"/><g fill="#5a5a5a"><circle cx="1181" cy="738" r="177"/><rect height="709" rx="89" ry="67" width="266" x="1048" y="1092"/></g></svg>