<svg width="258" height="173" viewBox="0 0 258 173" fill="none" xmlns="http://www.w3.org/2000/svg">
<g clip-path="url(#clip0_1619_36650)">
<rect x="44" width="173" height="173" rx="86.5" fill="#DFE0F3" fill-opacity="0.3"/>
<path d="M152.796 142.241L150.089 122.8L160.959 121.53L161.954 128.632L174.616 112.841L180.31 115.063C180.31 115.063 172.386 138.749 165.219 145.653C164.602 146.227 163.904 146.708 163.149 147.081C162.101 147.579 160.927 147.747 159.782 147.563C158.636 147.378 157.575 146.851 156.738 146.05L152.796 142.241Z" fill="#FC9D9D"/>
<path opacity="0.15" d="M157.137 139.42L156.261 123.907L152.438 124.859L151.921 137.198L152.757 142.237L156.778 146.006C157.616 146.805 158.678 147.332 159.822 147.516C160.968 147.701 162.142 147.534 163.189 147.038C163.956 146.682 164.656 146.2 165.259 145.609C165.538 145.332 167.41 143.149 167.688 142.832C167.688 142.832 162.353 148.149 158.69 143.546C157.742 142.372 157.198 140.926 157.137 139.42Z" fill="black"/>
<path d="M106.417 168.982V298.167H119.756L125.569 245.081L131.382 191.994C131.419 191.629 131.59 191.289 131.861 191.041C132.133 190.792 132.487 190.651 132.855 190.645C133.224 190.639 133.58 190.776 133.848 191.029C134.116 191.281 134.275 191.627 134.289 191.994L146.672 298.127H160.011L155.193 168.982H106.417Z" fill="#333336"/>
<path d="M94.5036 160.531H97.6571V121.689H94.8301C92.3614 121.689 90.3706 123.831 90.3706 126.49L90.052 155.731C90.0441 158.389 92.0349 160.531 94.5036 160.531Z" fill="#333336"/>
<path opacity="0.2" d="M96.7338 161.484H99.8793V121.689H96.4153C93.9466 121.689 92.5928 123.395 92.5928 126.093L92.2743 156.524C92.2344 159.301 94.2651 161.484 96.7338 161.484Z" fill="black"/>
<path d="M100.955 92.6458H132.451C136.353 92.6458 139.498 95.4627 139.498 98.9542V156.167C139.498 159.658 136.353 162.475 132.451 162.475H99.92C96.0179 162.475 92.8723 159.658 92.8723 156.167L93.9076 98.9542C93.9076 95.4627 97.0531 92.6458 100.955 92.6458Z" fill="#333336"/>
<path opacity="0.2" d="M100.955 92.6458H132.451C136.353 92.6458 139.498 95.4627 139.498 98.9542V156.167C139.498 159.658 136.353 162.475 132.451 162.475H99.92C96.0179 162.475 92.8723 159.658 92.8723 156.167L93.9076 98.9542C93.9076 95.4627 97.0531 92.6458 100.955 92.6458Z" fill="white"/>
<path d="M107.923 94.8284L134.561 93.9159C137.826 93.9159 140.454 96.6535 140.454 100.026V155.096C140.454 158.468 137.826 161.206 134.561 161.206L107.326 162.476C104.061 162.476 101.433 159.738 101.433 156.366L102.038 100.935C102.038 97.5661 104.658 94.8284 107.923 94.8284Z" fill="#333336"/>
<path d="M125.999 97.2087C125.809 97.213 125.622 97.1579 125.465 97.0512C125.308 96.9444 125.189 96.7913 125.123 96.6135L123.968 93.7172C123.72 93.2478 123.348 92.8554 122.891 92.5825C122.435 92.3095 121.912 92.1671 121.38 92.1698H115.049C114.461 92.1698 113.887 92.3484 113.403 92.6817C112.92 93.0145 112.549 93.4867 112.342 94.0346L111.665 96.4945C111.591 96.7254 111.432 96.9198 111.219 97.0369C111.007 97.1539 110.757 97.1852 110.521 97.1241C110.287 97.063 110.084 96.9143 109.956 96.7083C109.827 96.5024 109.784 96.2556 109.833 96.0184L110.51 93.4395C110.846 92.5087 111.462 91.704 112.275 91.1359C113.087 90.5673 114.056 90.2634 115.049 90.2654H121.38C122.274 90.2678 123.149 90.5177 123.908 90.9871C124.668 91.4565 125.281 92.127 125.68 92.9237L125.72 93.003L126.875 95.939C126.922 96.0561 126.944 96.1815 126.942 96.3072C126.939 96.4334 126.911 96.5576 126.859 96.6722C126.807 96.7869 126.732 96.8901 126.639 96.9758C126.546 97.0611 126.436 97.1269 126.317 97.169C126.215 97.2035 126.107 97.217 125.999 97.2087Z" fill="#333336"/>
<path d="M133.564 95.2248L148.536 97.4863C149.9 97.7069 151.189 98.256 152.293 99.0857C153.396 99.9153 154.279 101 154.867 102.247C157.574 107.802 161.874 122.839 161.874 122.839L154.269 124.426L156.499 173.386H105.135V125.656L90.2432 123.117L96.2556 104.35C96.6442 102.867 97.4318 101.518 98.5335 100.449C99.6353 99.3785 101.009 98.629 102.507 98.2798L120.066 94.1139L133.564 95.2248Z" fill="#FF6600"/>
<path opacity="0.2" d="M155.544 155.254H104.897V155.73H155.544V155.254Z" fill="white"/>
<path opacity="0.2" d="M155.704 159.42H104.897V159.897H155.743L155.704 159.42Z" fill="white"/>
<path opacity="0.2" d="M155.863 163.586H104.897V164.062H155.903L155.863 163.586Z" fill="white"/>
<path opacity="0.2" d="M146.466 97.169L144.754 96.9309H109.674L109.594 97.407H146.545L146.466 97.169Z" fill="white"/>
<path opacity="0.2" d="M149.571 101.097H108.957L108.877 101.573H149.73L149.571 101.097Z" fill="white"/>
<path opacity="0.2" d="M150.765 105.263H108.28L108.2 105.739H150.925L150.765 105.263Z" fill="white"/>
<path opacity="0.2" d="M151.961 109.429H107.565L107.485 109.905H152.121L151.961 109.429Z" fill="white"/>
<path opacity="0.2" d="M152.757 113.595H106.887L106.808 114.071H152.876L152.757 113.595Z" fill="white"/>
<path opacity="0.2" d="M153.155 117.761H106.171L106.091 118.237H153.275L153.155 117.761Z" fill="white"/>
<path opacity="0.2" d="M153.552 121.927H105.493L105.413 122.403H153.672L153.552 121.927Z" fill="white"/>
<path opacity="0.2" d="M154.35 126.093H104.897V126.569H154.39L154.35 126.093Z" fill="white"/>
<path opacity="0.2" d="M154.509 130.259H104.897V130.735H154.549L154.509 130.259Z" fill="white"/>
<path opacity="0.2" d="M154.708 134.424H104.897V134.901H154.708V134.424Z" fill="white"/>
<path opacity="0.2" d="M154.867 138.591H104.897V139.067H154.867V138.591Z" fill="white"/>
<path opacity="0.2" d="M155.027 142.756H104.897V143.232H155.067L155.027 142.756Z" fill="white"/>
<path opacity="0.2" d="M155.186 146.923H104.897V147.399H155.226L155.186 146.923Z" fill="white"/>
<path opacity="0.2" d="M155.393 151.089H104.897V151.565H155.393V151.089Z" fill="white"/>
<path opacity="0.2" d="M156.062 167.752H104.897V168.229H156.062V167.752Z" fill="white"/>
<path d="M122.416 79.3148L122.775 77.6088C123.651 65.9838 138.702 75.863 138.702 75.863C138.702 75.863 138.224 80.029 137.945 84.5917C137.945 85.5836 137.069 86.2978 136.87 87.0516V90.305L137.189 96.5738C137.189 96.5738 134.76 99.8669 129.226 99.9066C129.226 99.9066 123.292 99.9462 119.948 95.5422L122.416 79.3148Z" fill="#FC9D9D"/>
<path d="M140.891 62.2147C140.891 62.2147 146.386 89.6307 133.684 91.0193C122.695 92.2096 121.859 75.1093 121.859 75.1093L122.655 64.0795L131.176 60.9054L140.891 62.2147Z" fill="#FC9D9D"/>
<path d="M137.307 68.797C136.033 67.0116 133.882 65.7023 131.613 65.7816C129.065 65.861 126.994 67.8845 127.233 70.8601L127.273 71.5346C127.285 71.8314 127.186 72.1222 126.994 72.3496C126.803 72.5773 126.533 72.7253 126.238 72.7646C125.957 72.7689 125.68 72.8296 125.422 72.9423C125.166 73.055 124.934 73.2181 124.741 73.4212C124.548 73.6243 124.398 73.8644 124.299 74.1262C124.201 74.3881 124.156 74.667 124.167 74.9467L124.207 76.8909C124.206 77.0063 124.159 77.1166 124.077 77.1983C123.995 77.2801 123.885 77.3261 123.769 77.3273C123.769 77.3273 123.211 77.4066 123.092 76.9702L122.813 74.9071L124.724 63.2027L134.44 60.6238L138.541 64.0359L137.307 68.797Z" fill="#333336"/>
<path opacity="0.15" d="M122.416 79.3939C122.416 79.3939 123.172 79.3542 123.77 78.3623L122.257 80.9412L122.416 79.3939Z" fill="black"/>
<path d="M136.193 83.6793L131.136 82.5287C131.116 83.1056 131.295 83.6722 131.642 84.134C131.99 84.5958 132.486 84.9255 133.047 85.0679C135.484 85.6631 136.193 83.6793 136.193 83.6793Z" fill="white"/>
<path d="M131.694 77.2122C131.421 77.2071 131.161 77.0968 130.967 76.9043C130.774 76.7119 130.664 76.4528 130.658 76.1806C130.657 76.045 130.684 75.9105 130.735 75.7847C130.787 75.6589 130.863 75.545 130.959 75.449C131.055 75.353 131.17 75.2768 131.296 75.2253C131.422 75.1741 131.558 75.1479 131.694 75.1491C131.968 75.1491 132.232 75.2578 132.426 75.4514C132.62 75.6446 132.729 75.9069 132.729 76.1806C132.729 76.4544 132.62 76.7167 132.426 76.9099C132.232 77.1035 131.968 77.2122 131.694 77.2122Z" fill="black"/>
<path d="M132.132 76.0616C132.092 76.0616 132.054 76.0501 132.021 76.0283C131.988 76.0064 131.963 75.9755 131.948 75.939C131.933 75.9029 131.929 75.8628 131.937 75.8243C131.944 75.7858 131.963 75.7505 131.991 75.7227C132.019 75.6954 132.054 75.6763 132.093 75.6688C132.132 75.6609 132.172 75.6648 132.208 75.6799C132.244 75.695 132.275 75.7204 132.297 75.7529C132.319 75.7854 132.331 75.8239 132.331 75.8632C132.333 75.8898 132.329 75.9164 132.319 75.941C132.31 75.966 132.295 75.9886 132.276 76.0072C132.258 76.0263 132.235 76.0406 132.21 76.0501C132.185 76.0596 132.158 76.0632 132.132 76.0616Z" fill="white"/>
<path d="M112.103 95.939C112.103 95.939 125.402 112.523 128.707 130.536C128.707 130.536 132.251 146.645 105.095 160.055V158.309C105.095 158.309 121.42 148.866 123.849 134.94L123.292 129.505C123.292 129.505 116.881 112.047 106.33 97.3673L112.103 95.939Z" fill="#333336"/>
<path d="M139.775 77.4504C139.502 77.4452 139.242 77.3349 139.049 77.1425C138.856 76.9501 138.745 76.691 138.74 76.4188C138.739 76.2831 138.765 76.1486 138.816 76.0229C138.868 75.8971 138.944 75.7832 139.041 75.6872C139.137 75.5912 139.252 75.515 139.378 75.4634C139.504 75.4122 139.639 75.3861 139.775 75.3872C140.05 75.3872 140.313 75.496 140.507 75.6896C140.701 75.8828 140.811 76.1451 140.811 76.4188C140.811 76.6926 140.701 76.9548 140.507 77.1481C140.313 77.3417 140.05 77.4504 139.775 77.4504Z" fill="black"/>
<path d="M140.175 76.2599C140.136 76.2599 140.098 76.2484 140.065 76.2266C140.032 76.2048 140.006 76.1739 139.991 76.1374C139.976 76.1012 139.973 76.0612 139.98 76.0227C139.988 75.9842 140.007 75.9489 140.035 75.9211C140.063 75.8937 140.098 75.8747 140.137 75.8672C140.175 75.8592 140.215 75.8632 140.252 75.8783C140.288 75.8933 140.319 75.9187 140.341 75.9513C140.363 75.9838 140.374 76.0223 140.374 76.0616C140.376 76.0881 140.372 76.1147 140.363 76.1393C140.354 76.1643 140.339 76.1869 140.32 76.2056C140.301 76.2246 140.278 76.2389 140.254 76.2484C140.229 76.258 140.202 76.2615 140.175 76.2599Z" fill="white"/>
<path opacity="0.2" d="M104.937 125.815L105.693 119.031C105.813 117.245 106.529 115.5 107.127 113.793C107.127 113.793 109.874 106.969 115.329 173.228L104.897 173.466V125.815H104.937Z" fill="black"/>
<g opacity="0.3">
<path opacity="0.3" d="M136.113 82.1318L134.799 82.1715C134.76 82.1742 134.721 82.1691 134.683 82.1564C134.646 82.1437 134.612 82.1243 134.582 82.0985C134.553 82.0727 134.529 82.0413 134.511 82.006C134.494 81.9711 134.484 81.933 134.481 81.8937C134.478 81.8549 134.484 81.8156 134.496 81.7783C134.509 81.7414 134.529 81.7069 134.554 81.6775C134.58 81.6482 134.612 81.624 134.647 81.6065C134.682 81.589 134.72 81.5791 134.76 81.5763L136.073 81.5367C136.152 81.5315 136.229 81.5109 136.299 81.4764C136.37 81.4414 136.433 81.3934 136.484 81.3343C136.536 81.2752 136.576 81.207 136.601 81.1328C136.626 81.0586 136.636 80.98 136.631 80.9019C136.626 80.8237 136.605 80.7475 136.57 80.6773C136.535 80.6071 136.487 80.5444 136.428 80.4928C136.369 80.4412 136.3 80.4015 136.226 80.3765C136.151 80.3515 136.072 80.3412 135.994 80.3464C135.92 80.3345 135.851 80.3023 135.794 80.2532C135.738 80.204 135.697 80.1401 135.675 80.0687C135.635 79.91 135.835 79.7909 135.954 79.7512C136.269 79.7386 136.576 79.8469 136.813 80.0536C137.051 80.2603 137.199 80.5495 137.228 80.8622C137.239 81.0185 137.219 81.1756 137.168 81.324C137.118 81.4728 137.039 81.6097 136.936 81.7279C136.832 81.8457 136.706 81.9422 136.565 82.0116C136.424 82.081 136.27 82.1219 136.113 82.1318Z" fill="black"/>
</g>
<path d="M142.722 73.7999L138.262 73.6809H137.665L133.803 73.6015H133.763L128.746 73.4825C128.357 73.4782 127.981 73.6246 127.699 73.8912C127.416 74.1578 127.249 74.5236 127.233 74.9108L127.193 76.0218C127.18 76.5455 127.271 77.0664 127.459 77.5552C127.648 78.044 127.932 78.4908 128.295 78.8705C128.657 79.2498 129.091 79.5545 129.571 79.7668C130.052 79.9794 130.569 80.0953 131.095 80.1084C131.621 80.1215 132.143 80.031 132.634 79.8429C133.124 79.6545 133.573 79.3716 133.954 79.0105C134.335 78.6495 134.64 78.2174 134.853 77.7385C135.067 77.2596 135.183 76.7439 135.196 76.2201L135.236 75.1092C135.267 74.7803 135.167 74.4526 134.957 74.1967L136.51 74.2364C136.398 74.359 136.311 74.503 136.257 74.6601C136.202 74.8168 136.18 74.9831 136.192 75.1489L136.152 76.2598C136.139 76.7835 136.229 77.3045 136.418 77.7933C136.607 78.2821 136.891 78.7288 137.254 79.1085C137.616 79.4878 138.049 79.7926 138.53 80.0048C139.011 80.2175 139.528 80.3333 140.054 80.3464C140.579 80.3595 141.102 80.2691 141.593 80.081C142.083 79.8925 142.532 79.6096 142.913 79.2486C143.293 78.8875 143.599 78.4555 143.812 77.9766C144.026 77.4977 144.142 76.9819 144.155 76.4582L144.195 75.3473C144.178 74.9557 144.02 74.5831 143.749 74.2987C143.478 74.0142 143.113 73.8368 142.722 73.7999ZM134.679 75.1092L134.639 76.2201C134.623 77.12 134.249 77.9766 133.6 78.6015C132.95 79.2264 132.077 79.5688 131.175 79.5529C130.272 79.537 129.412 79.1645 128.785 78.5174C128.158 77.8699 127.814 77.001 127.83 76.1011L127.87 74.9902C127.88 74.7656 127.977 74.5538 128.14 74.3986C128.303 74.2431 128.52 74.1566 128.746 74.157L133.803 74.276C134.03 74.2737 134.249 74.3593 134.413 74.5149C134.578 74.67 134.676 74.8835 134.687 75.1092H134.679ZM143.558 76.4979C143.542 77.3977 143.168 78.2543 142.519 78.8792C141.869 79.5041 140.996 79.8465 140.094 79.8306C139.191 79.8148 138.331 79.4422 137.704 78.7951C137.077 78.1476 136.733 77.2787 136.749 76.3788L136.789 75.2679C136.799 75.0434 136.896 74.8315 137.059 74.6764C137.222 74.5208 137.439 74.4343 137.665 74.4347H138.27L142.73 74.5538C142.955 74.5641 143.168 74.6605 143.323 74.8232C143.479 74.9858 143.566 75.2017 143.566 75.4266L143.558 76.4979Z" fill="black"/>
<path d="M119.39 67.531C119.749 64.5553 121.302 62.3334 123.89 61.778C124.985 61.5554 126.118 61.5962 127.195 61.897C127.291 61.9267 127.393 61.9371 127.494 61.9272C127.594 61.9172 127.692 61.8875 127.781 61.8391C127.87 61.7911 127.948 61.726 128.012 61.6474C128.075 61.5685 128.122 61.478 128.15 61.3812C128.386 60.4 128.947 59.5264 129.741 58.9007C130.535 58.2746 131.517 57.9326 132.53 57.9294C133.243 57.9179 133.948 58.0778 134.586 58.3956C135.223 58.713 135.775 59.1792 136.193 59.7545C136.25 59.8406 136.325 59.9136 136.413 59.9676C136.501 60.0215 136.6 60.0553 136.703 60.0668C136.805 60.0783 136.909 60.0668 137.007 60.0334C137.105 59.9997 137.194 59.9453 137.268 59.8735C137.268 59.8735 140.295 57.4533 144.276 59.8735C145.628 60.7313 146.61 62.0609 147.029 63.6019C147.449 65.1429 147.276 66.7843 146.546 68.2055C144.953 71.3795 140.812 72.3317 138.224 69.9512C137.308 69.118 136.591 67.8484 136.472 65.9439C136.339 64.9044 136.434 63.8487 136.751 62.8492H135.437C133.884 62.7699 131.415 62.4921 129.106 62.8492C129.146 62.8889 129.185 62.8889 129.265 62.9286L125.164 64.3172C125.164 64.3172 123.93 75.1487 123.293 75.0694C120.306 74.4345 119.032 70.2289 119.39 67.531Z" fill="#333336"/>
<path opacity="0.15" d="M125.53 88.3211C126.992 90.0914 129.065 91.2523 131.343 91.5745C133.037 92.7406 135.059 93.3385 137.117 93.2806L136.957 89.8684L136.48 90.1462C134.593 91.1321 132.398 91.3595 130.348 90.781C128.608 90.3204 127.06 89.3197 125.928 87.9243C125.888 87.8053 125.649 87.8053 125.57 87.8846C125.5 88.0195 125.486 88.1759 125.53 88.3211Z" fill="black"/>
<path d="M186.323 97.1692H178.12C177.978 97.1732 177.838 97.2113 177.713 97.2803C177.588 97.3494 177.482 97.4474 177.404 97.566L167.847 112.563C167.81 112.613 167.787 112.671 167.782 112.733C167.777 112.795 167.79 112.857 167.82 112.911C167.849 112.965 167.894 113.01 167.948 113.04C168.002 113.07 168.064 113.084 168.126 113.079L177.045 113.436L186.641 97.685C186.671 97.6311 186.685 97.5704 186.683 97.5089C186.682 97.4474 186.664 97.3875 186.632 97.3351C186.599 97.2831 186.554 97.2399 186.499 97.2109C186.445 97.1815 186.384 97.1673 186.323 97.1692Z" fill="#2175E9"/>
<path opacity="0.2" d="M186.323 97.1692H177.842C177.785 97.1704 177.73 97.1855 177.682 97.2133C177.633 97.2407 177.592 97.2803 177.563 97.3279L167.847 112.563C167.81 112.613 167.787 112.671 167.782 112.733C167.777 112.795 167.79 112.857 167.82 112.911C167.849 112.965 167.894 113.01 167.948 113.04C168.002 113.07 168.064 113.084 168.126 113.079L177.045 113.436L186.641 97.685C186.671 97.6311 186.685 97.5704 186.683 97.5089C186.682 97.4474 186.664 97.3875 186.632 97.3351C186.599 97.2831 186.554 97.2399 186.499 97.2109C186.445 97.1815 186.384 97.1673 186.323 97.1692Z" fill="black"/>
<path d="M186.561 97.7243H178.399C178.286 97.7231 178.175 97.7521 178.077 97.808C177.979 97.8635 177.898 97.9445 177.841 98.0417L168.245 113.119L176.926 113.674L186.561 97.7243Z" fill="#2175E9"/>
<path d="M119.35 143.034L125.529 142.99C125.864 142.99 126.199 142.95 126.525 142.871L131.223 141.562C131.67 141.444 132.055 141.16 132.298 140.769C132.598 140.339 132.738 139.819 132.694 139.297C132.651 138.776 132.426 138.286 132.059 137.912C132.059 137.912 133.015 136.642 131.741 135.055C131.741 135.055 133.015 133.468 131.422 132.199C131.422 132.199 131.9 130.136 130.307 129.501L123.339 129.421C122.509 129.465 121.714 129.77 121.07 130.294L116.809 133.746L105.063 136.285V125.533L91.6049 123.153C91.6049 123.153 87.1055 138.825 86.349 149.18C86.3076 149.821 86.4032 150.464 86.6297 151.066C86.8559 151.668 87.2083 152.216 87.663 152.671C88.8177 153.822 90.49 154.06 92.1225 153.822C96.375 153.27 103.63 152.16 119.35 143.034Z" fill="#FC9D9D"/>
<path opacity="0.15" d="M105.095 125.815L104.299 125.498L103.025 135.932C100.346 136.611 97.7836 137.68 95.4197 139.106C95.4197 139.106 97.6494 137.837 105.095 136.448V125.815Z" fill="black"/>
<path opacity="0.15" d="M128.388 132.441L131.255 132.123" stroke="black" stroke-width="0.208062" stroke-miterlimit="10" stroke-linecap="round"/>
<path opacity="0.15" d="M128.865 135.416L131.732 135.139" stroke="black" stroke-width="0.208062" stroke-miterlimit="10" stroke-linecap="round"/>
<path opacity="0.15" d="M129.184 138.273L132.051 137.956" stroke="black" stroke-width="0.208062" stroke-miterlimit="10" stroke-linecap="round"/>
<path opacity="0.15" d="M86.4219 148.708C86.3757 149.037 86.3491 149.368 86.3423 149.7C86.3702 150.494 86.5884 151.269 86.9794 151.962C88.0942 153.866 90.1249 154.263 92.076 153.945C96.3364 153.271 103.623 152.16 119.311 142.995L125.483 142.955C125.818 142.955 126.152 142.915 126.478 142.836L131.177 141.527C131.624 141.409 132.008 141.125 132.252 140.733C132.551 140.304 132.692 139.783 132.648 139.262C132.604 138.741 132.38 138.251 132.013 137.877C132.013 137.877 132.968 136.607 131.694 135.02C131.694 135.02 132.968 133.433 131.376 132.163C131.376 132.163 131.853 130.1 130.261 129.465H129.146C129.423 129.882 129.597 130.358 129.653 130.855C129.708 131.352 129.644 131.855 129.464 132.322C130.42 134.068 129.783 135.337 129.783 135.337C131.057 136.29 130.261 138.194 130.261 138.194C130.336 138.438 130.377 138.692 130.38 138.948C130.415 139.487 130.24 140.019 129.892 140.433C129.543 140.847 129.048 141.111 128.509 141.17L125.164 141.527H118.833C104.897 149.105 92.2751 150.692 92.2751 150.692C86.5016 150.692 86.5016 145.97 86.5016 145.97L86.4219 148.708Z" fill="black"/>
<path opacity="0.2" d="M154.229 124.387L152.158 110.342C152.158 110.342 154.229 109.469 156.379 123.95L154.229 124.387Z" fill="black"/>
<path opacity="0.15" d="M161.836 129.029C158.977 133.592 158.181 134.659 158.181 134.659C159.136 131.485 161.685 126.565 161.685 126.565L161.836 129.029Z" fill="black"/>
<path d="M184.292 106.374L184.809 100.859L183.177 103.16L184.292 106.374Z" fill="#FC9D9D"/>
<path opacity="0.15" d="M184.292 106.374L184.809 100.859L183.177 103.16L184.292 106.374Z" fill="black"/>
<path d="M183.495 103.636L181.106 99.8272C180.996 99.6542 180.823 99.5296 180.624 99.478C180.424 99.4264 180.213 99.4518 180.031 99.5494C179.859 99.6423 179.725 99.7922 179.652 99.9735C179.579 100.155 179.572 100.356 179.633 100.541L181.066 104.707L176.097 103.315C175.977 103.275 175.849 103.264 175.724 103.285C175.599 103.306 175.481 103.357 175.381 103.434L175.301 103.513C175.17 103.596 175.067 103.715 175.003 103.857C174.939 103.997 174.918 104.154 174.943 104.307C174.964 104.428 175.011 104.543 175.079 104.645C175.148 104.748 175.237 104.835 175.341 104.902L179.76 107.322L179.96 108.671L174.146 106.608C173.939 106.532 173.711 106.535 173.506 106.616C173.3 106.696 173.132 106.849 173.031 107.044C172.933 107.25 172.92 107.485 172.995 107.7C173.069 107.916 173.225 108.093 173.429 108.195L178.447 110.972L177.929 111.647L173.191 109.544C172.989 109.455 172.761 109.447 172.554 109.521C172.346 109.595 172.175 109.745 172.076 109.941C171.984 110.141 171.974 110.369 172.048 110.577C172.123 110.784 172.276 110.955 172.474 111.051L174.584 112.797C174.584 112.797 171.439 114.702 174.704 118.114L176.257 119.264L183.463 112.083C183.616 111.937 183.729 111.755 183.792 111.554C183.854 111.353 183.865 111.139 183.822 110.932L183.663 109.782L184.379 108.83C184.515 108.636 184.607 108.415 184.649 108.181C184.69 107.948 184.679 107.709 184.619 107.481L183.495 103.636Z" fill="#FC9D9D"/>
<path opacity="0.15" d="M177.961 111.647L180.031 113.195L178.479 110.933L177.961 111.647Z" fill="black"/>
<path opacity="0.15" d="M179.793 107.282C180.738 108.027 181.386 109.082 181.625 110.258L180.032 108.75L179.793 107.282Z" fill="black"/>
<path opacity="0.15" d="M179.832 101.057L181.903 104.112L183.177 106.215L181.067 104.708L179.832 101.057Z" fill="black"/>
<path opacity="0.1" d="M175.931 118.594C175.434 118.283 174.99 117.895 174.617 117.443C174.562 117.114 174.623 116.776 174.791 116.487C174.957 116.197 175.22 115.974 175.533 115.856L177.325 115.221L176.13 113.555L174.657 112.88C172.626 114.15 173.383 116.094 173.701 116.689C173.706 116.731 173.72 116.772 173.741 116.808V116.888C173.949 117.272 174.218 117.621 174.537 117.919C174.617 118.038 174.736 118.157 174.856 118.316C174.828 118.283 174.814 118.24 174.816 118.197C175.1 118.478 175.421 118.719 175.772 118.911C175.811 118.911 175.811 118.951 175.851 118.951C175.911 118.941 175.967 118.913 176.011 118.872C176.032 118.823 176.036 118.769 176.021 118.718C176.007 118.668 175.975 118.624 175.931 118.594Z" fill="black"/>
<path d="M122.893 73.8793C122.837 73.6056 122.721 73.3477 122.553 73.1235C122.386 72.8993 122.172 72.7144 121.925 72.5819C121.678 72.4498 121.405 72.3728 121.125 72.357C120.845 72.3411 120.565 72.3867 120.305 72.4907C117.836 73.2048 118.314 78.1643 121.579 79.2752C123.61 79.672 123.331 78.4817 123.172 76.8153L122.893 73.8793Z" fill="#FC9D9D"/>
<path opacity="0.15" d="M119.988 73.84C120.164 73.7305 120.362 73.6595 120.568 73.6321C120.774 73.6047 120.983 73.6218 121.182 73.6813C121.538 73.8364 121.823 74.1197 121.978 74.4748C122.186 74.9346 122.255 75.4445 122.177 75.9428V76.3792C122.163 76.4384 122.127 76.4899 122.075 76.5237C122.024 76.5574 121.962 76.5705 121.902 76.5602C121.841 76.5502 121.787 76.5181 121.749 76.4697C121.712 76.4213 121.694 76.3606 121.7 76.2999V75.8635C121.73 75.4469 121.676 75.0287 121.54 74.6335C121.433 74.397 121.251 74.2022 121.023 74.078C120.768 74.0288 120.505 74.0566 120.266 74.1574C120.211 74.1753 120.152 74.1772 120.095 74.1629C120.039 74.1491 119.988 74.1197 119.948 74.078C119.868 74.078 119.908 73.9193 119.988 73.84Z" fill="black"/>
</g>
<path d="M82.919 59.2564C82.8888 59.38 82.8505 59.5017 82.804 59.6207C82.924 60.5754 72.7557 60.0653 72.7557 60.0653C72.7557 60.0653 70.0394 61.909 68.6799 60.1649C65.9661 60.9859 50.7549 61.3964 44.3726 60.4734C38.9399 61.0879 29.9761 60.0653 25.6304 59.9608C21.2847 59.8564 21.1498 58.9357 23.5938 58.5277C23.5663 58.3163 23.7912 58.0078 24.2335 57.675C25.9478 56.3876 30.9432 54.7601 37.3105 57.2499C36.2235 54.5391 40.7066 51.663 45.7295 53.0962C45.5946 51.5561 47.6337 51.7626 47.6337 51.7626C47.6337 51.7626 46.8166 45 54.151 45C61.4854 45 62.2976 54.42 62.2976 54.42C62.2976 54.42 62.8399 50.6355 69.0898 50.327C75.3397 50.0185 75.3372 54.6338 75.3372 54.6338C75.3372 54.6338 83.9186 55.2119 82.919 59.2564Z" fill="#CBD7F4"/>
<path opacity="0.8" d="M83 59.1944C82.9697 59.3225 82.9314 59.4485 82.8849 59.5717C83.005 60.5603 72.8232 60.032 72.8232 60.032C72.8232 60.032 70.1033 61.9412 68.742 60.1352C66.0245 60.9854 50.7932 61.4104 44.4023 60.4546C38.9624 61.091 29.9867 60.032 25.6353 59.9239C21.2838 59.8157 21.1487 58.8624 23.5959 58.4398C23.5684 58.221 23.7936 57.9015 24.2365 57.5569C24.9296 57.7707 25.4876 58.2537 25.5302 58.8398C26.1955 58.6426 26.8954 58.591 27.5823 58.6891C28.2689 58.7872 28.927 59.0324 29.5113 59.4082C30.6023 58.4927 32.514 59.0083 34.0329 59.3906C35.5726 59.7679 37.1555 59.9372 38.7397 59.8937C39.0868 59.905 39.4326 59.8487 39.7581 59.7277C40.4538 59.4183 40.5438 58.6838 40.6739 58.065C40.8246 57.2395 41.2828 56.5028 41.9551 56.005C42.6908 55.4818 43.8443 55.268 44.7076 55.6403C45.1405 55.8264 45.4733 56.1433 45.9212 56.2917C46.239 56.4024 46.6044 56.4326 46.9096 56.5709C47.6828 56.9181 47.7404 57.7557 47.7054 58.4549C48.5614 58.2152 49.4772 58.3254 50.2527 58.7618C49.2943 57.0011 50.658 55.0139 52.1619 53.4997C52.84 52.818 53.5957 52.1339 54.6091 51.7893C56.148 51.261 58.0223 51.6383 59.3259 52.4659C60.6296 53.2934 61.4479 54.5033 62.0234 55.7358C62.4147 55.5922 62.8356 55.5505 63.2473 55.6143C63.6589 55.678 64.048 55.8453 64.378 56.1006C67.1656 55.3309 70.5412 56.1408 72.2928 57.9971C75.9045 57.4412 79.5982 57.8543 83 59.1944Z" fill="#F4EAD5"/>
<path d="M225.902 25.8205C225.865 25.975 225.819 26.1272 225.762 26.2759C225.908 27.4692 213.573 26.8316 213.573 26.8316C213.573 26.8316 210.277 29.1362 208.628 26.9561C205.336 27.9824 186.883 28.4955 179.141 27.3417C172.55 28.1099 161.676 26.8316 156.404 26.701C151.132 26.5705 150.969 25.4197 153.933 24.9096C153.9 24.6454 154.173 24.2598 154.71 23.8438C156.789 22.2345 162.849 20.2001 170.573 23.3124C169.255 19.9238 174.693 16.3288 180.787 18.1202C180.623 16.1952 183.097 16.4533 183.097 16.4533C183.097 16.4533 182.105 8 191.003 8C199.9 8 200.886 19.7751 200.886 19.7751C200.886 19.7751 201.543 15.0444 209.125 14.6588C216.707 14.2731 216.704 20.0423 216.704 20.0423C216.704 20.0423 227.114 20.7649 225.902 25.8205Z" fill="#DFE0F3"/>
<path d="M226 25.7084C225.963 25.8709 225.917 26.0308 225.86 26.1873C226.006 27.4419 213.654 26.7715 213.654 26.7715C213.654 26.7715 210.355 29.1946 208.703 26.9024C205.407 27.9815 186.929 28.521 179.177 27.3078C172.577 28.1156 161.689 26.7715 156.41 26.6342C151.131 26.4969 150.967 25.287 153.936 24.7506C153.903 24.4729 154.176 24.0674 154.713 23.63C155.554 23.9014 156.231 24.5144 156.282 25.2582C157.09 25.0079 157.939 24.9425 158.772 25.067C159.605 25.1915 160.403 25.5028 161.112 25.9797C162.436 24.8177 164.755 25.4721 166.597 25.9574C168.465 26.4363 170.385 26.6511 172.307 26.5959C172.728 26.6103 173.148 26.5388 173.543 26.3852C174.387 25.9925 174.496 25.0603 174.654 24.2749C174.836 23.2271 175.392 22.292 176.208 21.6602C177.1 20.9962 178.5 20.7248 179.547 21.1973C180.072 21.4336 180.476 21.8358 181.019 22.0242C181.405 22.1646 181.848 22.203 182.218 22.3786C183.156 22.8191 183.226 23.8822 183.184 24.7698C184.222 24.4655 185.333 24.6054 186.274 25.1593C185.111 22.9245 186.765 20.4024 188.59 18.4804C189.412 17.6153 190.329 16.7469 191.559 16.3095C193.425 15.6391 195.699 16.118 197.281 17.1683C198.862 18.2187 199.855 19.7543 200.553 21.3186C201.028 21.1363 201.538 21.0833 202.038 21.1644C202.537 21.2452 203.009 21.4575 203.409 21.7815C206.791 20.8046 210.886 21.8326 213.011 24.1887C217.392 23.4832 221.873 24.0074 226 25.7084Z" fill="#C6962B"/>
<path opacity="0.8" d="M226 25.7084C225.963 25.8709 225.917 26.0308 225.86 26.1873C226.006 27.4419 213.654 26.7715 213.654 26.7715C213.654 26.7715 210.355 29.1946 208.703 26.9024C205.407 27.9815 186.929 28.521 179.177 27.3078C172.577 28.1156 161.689 26.7715 156.41 26.6342C151.131 26.4969 150.967 25.287 153.936 24.7506C153.903 24.4729 154.176 24.0674 154.713 23.63C155.554 23.9014 156.231 24.5144 156.282 25.2582C157.09 25.0079 157.939 24.9425 158.772 25.067C159.605 25.1915 160.403 25.5028 161.112 25.9797C162.436 24.8177 164.755 25.4721 166.597 25.9574C168.465 26.4363 170.385 26.6511 172.307 26.5959C172.728 26.6103 173.148 26.5388 173.543 26.3852C174.387 25.9925 174.496 25.0603 174.654 24.2749C174.836 23.2271 175.392 22.292 176.208 21.6602C177.1 20.9962 178.5 20.7248 179.547 21.1973C180.072 21.4336 180.476 21.8358 181.019 22.0242C181.405 22.1646 181.848 22.203 182.218 22.3786C183.156 22.8191 183.226 23.8822 183.184 24.7698C184.222 24.4655 185.333 24.6054 186.274 25.1593C185.111 22.9245 186.765 20.4024 188.59 18.4804C189.412 17.6153 190.329 16.7469 191.559 16.3095C193.425 15.6391 195.699 16.118 197.281 17.1683C198.862 18.2187 199.855 19.7543 200.553 21.3186C201.028 21.1363 201.538 21.0833 202.038 21.1644C202.537 21.2452 203.009 21.4575 203.409 21.7815C206.791 20.8046 210.886 21.8326 213.011 24.1887C217.392 23.4832 221.873 24.0074 226 25.7084Z" fill="white"/>
<defs>
<clipPath id="clip0_1619_36650">
<rect x="44" width="173" height="173" rx="86.5" fill="white"/>
</clipPath>
</defs>
</svg>
