<svg width="255" height="194" viewBox="0 0 255 194" fill="none" xmlns="http://www.w3.org/2000/svg">
<path opacity="0.05" d="M28.2488 189.569L6.52794 79.9869C6.3029 77.1977 7.07764 74.4194 8.71338 72.1504L53.2601 10.4145C54.4506 8.76443 56.0485 7.45231 57.8973 6.60635C59.7462 5.7604 61.7826 5.40967 63.8075 5.58838L216.294 19.0613C218.707 19.2746 220.995 20.2303 222.845 21.7976C224.694 23.3651 226.015 25.467 226.624 27.8152L247.57 108.563C248.083 110.548 248.072 112.634 247.532 114.613L219.713 189.852L28.2488 189.569Z" fill="#FF6600"/>
<path d="M196.315 60.9784C193.605 62.297 190.484 62.4844 187.637 61.4991C184.791 60.5138 182.451 58.4365 181.132 55.7242C179.815 53.0108 179.628 49.8847 180.613 47.0334C181.596 44.182 183.672 41.8389 186.381 40.5195C187.723 39.8661 189.179 39.4836 190.668 39.394C192.156 39.3045 193.649 39.5094 195.06 39.9974C196.47 40.4853 197.77 41.2466 198.886 42.2376C200.001 43.2289 200.912 44.4303 201.564 45.7738C202.881 48.4871 203.068 51.6133 202.083 54.4646C201.1 57.3159 199.026 59.659 196.315 60.9784Z" fill="url(#paint0_linear_2095_38385)"/>
<path d="M88.0744 44.7058C84.7615 44.7049 81.5845 43.3863 79.2422 41.0399C76.8998 38.6937 75.584 35.512 75.584 32.1943C75.584 30.5515 75.9071 28.9249 76.5351 27.4073C77.1628 25.8897 78.083 24.5107 79.2431 23.3492C80.403 22.1879 81.7803 21.2666 83.2958 20.638C84.8115 20.0095 86.436 19.6863 88.0763 19.6865C89.7168 19.6865 91.3413 20.0101 92.857 20.6388C94.3727 21.2674 95.7498 22.1888 96.9097 23.3505C98.0698 24.5121 98.99 25.8913 99.6177 27.4089C100.245 28.9267 100.569 30.5534 100.569 32.1962C100.569 33.8392 100.245 35.4661 99.6175 36.9839C98.9896 38.5017 98.0692 39.8809 96.9091 41.0426C95.7488 42.2041 94.3715 43.1255 92.8557 43.7542C91.3398 44.3826 89.7151 44.706 88.0744 44.7058Z" fill="#FF6600"/>
<path d="M108.526 42.1694H165.702C167.762 42.1694 169.735 42.9884 171.192 44.4462C172.648 45.904 173.465 47.8812 173.465 49.9428V179.132C173.465 180.152 173.264 181.163 172.873 182.106C172.484 183.05 171.911 183.906 171.192 184.629C170.47 185.349 169.615 185.922 168.672 186.312C167.731 186.704 166.721 186.905 165.702 186.905H107.346C106.278 186.905 105.254 186.481 104.498 185.724C103.743 184.967 103.319 183.942 103.319 182.872V47.3855C103.319 46.002 103.868 44.6754 104.844 43.6972C105.821 42.7189 107.146 42.1694 108.528 42.1694H108.526Z" fill="#3F4249"/>
<path opacity="0.3" d="M108.526 42.1694H165.702C167.762 42.1694 169.735 42.9884 171.192 44.4462C172.648 45.904 173.465 47.8812 173.465 49.9428V179.132C173.465 180.152 173.264 181.163 172.873 182.106C172.484 183.05 171.911 183.906 171.192 184.629C170.47 185.349 169.615 185.922 168.672 186.312C167.731 186.704 166.721 186.905 165.702 186.905H108.297C106.976 186.905 105.71 186.379 104.777 185.445C103.843 184.51 103.319 183.243 103.319 181.92V47.3855C103.319 46.002 103.868 44.6754 104.844 43.6972C105.821 42.7189 107.146 42.1694 108.528 42.1694H108.526Z" fill="black"/>
<path d="M167.888 44.1748H102.061V183.335H167.888V44.1748Z" fill="white"/>
<path d="M166.63 44.7251H102.88V60.9714H166.63V44.7251Z" fill="#FF6600"/>
<path d="M138.284 153.543C137.59 153.55 136.913 153.763 136.339 154.155C135.765 154.546 135.319 155.099 135.058 155.744C134.798 156.388 134.733 157.096 134.873 157.777C135.013 158.458 135.351 159.083 135.844 159.572C136.338 160.062 136.965 160.394 137.647 160.527C138.329 160.66 139.034 160.588 139.676 160.32C140.316 160.052 140.864 159.601 141.249 159.022C141.634 158.443 141.84 157.763 141.84 157.068C141.838 156.602 141.744 156.142 141.565 155.713C141.385 155.284 141.122 154.894 140.792 154.567C140.462 154.24 140.07 153.981 139.64 153.805C139.209 153.629 138.749 153.54 138.284 153.543Z" fill="white"/>
<path d="M166.624 172.976H102.874V184.252H166.624V172.976Z" fill="#FF6600"/>
<path d="M161.69 182.74H107.818C105.103 182.74 102.905 180.638 102.905 178.052V50.6827C102.905 48.0928 105.105 45.9942 107.819 45.9942H117.517C118.084 45.9866 118.639 46.1576 119.104 46.4837C119.568 46.8096 119.918 47.2737 120.104 47.81L120.548 49.1632C120.735 49.6993 121.085 50.1632 121.549 50.4887C122.013 50.8144 122.568 50.9853 123.135 50.977H146.382C146.949 50.9849 147.504 50.814 147.968 50.4883C148.432 50.1628 148.782 49.6991 148.969 49.1632L149.412 47.81C149.598 47.2737 149.948 46.8098 150.413 46.4839C150.878 46.158 151.433 45.9866 152 45.9942H161.698C164.412 45.9942 166.613 48.0967 166.611 50.6827V178.052C166.605 180.64 164.404 182.74 161.69 182.74ZM99.6885 48.7389V180.187C99.6906 181.945 100.389 183.633 101.631 184.877C102.873 186.12 104.557 186.821 106.314 186.823H163.192C164.952 186.823 166.639 186.123 167.884 184.877C169.128 183.631 169.829 181.941 169.829 180.179V48.7312C169.827 46.9694 169.128 45.2799 167.884 44.0345C166.639 42.7889 164.952 42.0894 163.192 42.0894H106.314C104.555 42.0918 102.869 42.7937 101.626 44.0406C100.384 45.2876 99.687 46.9776 99.6885 48.7389Z" fill="#3F4249"/>
<path d="M160.808 55.8396H156.432C156.418 55.8398 156.404 55.8373 156.391 55.8322C156.378 55.827 156.367 55.8192 156.357 55.8094C156.347 55.7997 156.339 55.7878 156.334 55.775C156.329 55.7622 156.326 55.7485 156.327 55.7345C156.327 55.7066 156.338 55.6799 156.357 55.6602C156.377 55.6405 156.404 55.6294 156.432 55.6294H160.808C160.834 55.6328 160.857 55.6455 160.874 55.6649C160.891 55.6844 160.901 55.7095 160.901 55.7355C160.901 55.7615 160.891 55.7865 160.874 55.806C160.857 55.8255 160.834 55.8381 160.808 55.8416V55.8396Z" fill="white"/>
<path d="M160.808 57.2786H156.432C156.404 57.2786 156.377 57.2675 156.357 57.2478C156.338 57.2282 156.327 57.2014 156.327 57.1735C156.326 57.1595 156.329 57.1458 156.334 57.133C156.339 57.1202 156.347 57.1083 156.357 57.0986C156.367 57.0888 156.378 57.081 156.391 57.0758C156.404 57.0707 156.418 57.0682 156.432 57.0684H160.808C160.836 57.0684 160.863 57.0795 160.882 57.0991C160.902 57.1188 160.913 57.1456 160.913 57.1735C160.913 57.2014 160.902 57.2282 160.882 57.2478C160.863 57.2675 160.836 57.2786 160.808 57.2786Z" fill="white"/>
<path d="M160.808 58.72H156.432C156.418 58.7202 156.404 58.7177 156.391 58.7126C156.378 58.7074 156.367 58.6996 156.357 58.6898C156.347 58.6801 156.339 58.6682 156.334 58.6554C156.329 58.6426 156.326 58.6288 156.327 58.6149C156.327 58.587 156.338 58.5602 156.357 58.5405C156.377 58.5209 156.404 58.5098 156.432 58.5098H160.808C160.834 58.5132 160.857 58.5258 160.874 58.5453C160.891 58.5648 160.901 58.5898 160.901 58.6158C160.901 58.6418 160.891 58.6669 160.874 58.6864C160.857 58.7059 160.834 58.7185 160.808 58.7219V58.72Z" fill="white"/>
<path d="M110.259 55.0806L108.604 56.5256C108.578 56.5483 108.558 56.5764 108.544 56.6076C108.53 56.6389 108.522 56.6728 108.522 56.7072V59.1632C108.522 59.206 108.539 59.2469 108.569 59.2775C108.599 59.3079 108.64 59.3251 108.682 59.3257H109.673C109.694 59.3257 109.715 59.3215 109.735 59.3133C109.755 59.3052 109.773 59.2932 109.788 59.2781C109.803 59.263 109.815 59.245 109.823 59.2253C109.831 59.2057 109.835 59.1846 109.835 59.1632V57.8807C109.835 57.8379 109.852 57.797 109.882 57.7664C109.912 57.736 109.953 57.7188 109.995 57.7183H110.841C110.884 57.7188 110.924 57.736 110.954 57.7664C110.985 57.797 111.001 57.8379 111.001 57.8807V59.1632C111.001 59.1846 111.006 59.2057 111.014 59.2253C111.022 59.245 111.034 59.263 111.049 59.2781C111.064 59.2932 111.082 59.3052 111.102 59.3133C111.121 59.3215 111.142 59.3257 111.164 59.3257H112.154C112.197 59.3251 112.238 59.3079 112.268 59.2775C112.298 59.2469 112.315 59.206 112.315 59.1632V56.7091C112.315 56.6732 112.309 56.6374 112.294 56.6043C112.28 56.5715 112.259 56.5418 112.232 56.518L110.578 55.073C110.532 55.0363 110.475 55.0168 110.417 55.0181C110.359 55.0195 110.302 55.0416 110.259 55.0806Z" stroke="white" stroke-width="1.84" stroke-miterlimit="10"/>
<path d="M161.457 66.1684L108.183 66.1318C107.857 66.1316 107.591 66.2182 107.591 66.3253L107.459 86.9255C107.458 87.0327 107.723 87.1196 108.049 87.1199L161.323 87.1565C161.65 87.1567 161.915 87.07 161.916 86.9629L162.047 66.3627C162.048 66.2556 161.784 66.1686 161.457 66.1684Z" fill="#DADDDF"/>
<path d="M161.457 130.398L108.183 130.353C107.857 130.352 107.591 130.46 107.591 130.593L107.459 156.25C107.458 156.384 107.723 156.492 108.049 156.492L161.323 156.538C161.65 156.538 161.915 156.43 161.916 156.297L162.047 130.64C162.048 130.507 161.784 130.398 161.457 130.398Z" fill="#DADDDF"/>
<path d="M161.457 94.2451L108.183 94.2285C107.857 94.2284 107.591 94.2678 107.591 94.3165L107.459 103.68C107.458 103.729 107.723 103.768 108.049 103.769L161.323 103.785C161.65 103.785 161.915 103.746 161.916 103.697L162.047 94.3335C162.048 94.2848 161.784 94.2452 161.457 94.2451Z" fill="#DADDDF"/>
<path d="M115.256 176.703H111.276C111.249 176.695 111.224 176.68 111.207 176.657C111.189 176.634 111.18 176.607 111.18 176.578C111.18 176.55 111.189 176.523 111.207 176.5C111.224 176.477 111.249 176.462 111.276 176.454H115.262C115.289 176.462 115.314 176.477 115.332 176.5C115.349 176.523 115.359 176.55 115.359 176.578C115.359 176.607 115.349 176.634 115.332 176.657C115.314 176.68 115.289 176.695 115.262 176.703H115.256Z" fill="white" stroke="white" stroke-width="0.45" stroke-miterlimit="10"/>
<path d="M115.256 178.048H111.276C111.249 178.04 111.225 178.025 111.209 178.002C111.192 177.979 111.183 177.952 111.183 177.926C111.183 177.897 111.192 177.87 111.209 177.847C111.225 177.824 111.249 177.809 111.276 177.801H115.261C115.288 177.809 115.312 177.824 115.329 177.847C115.345 177.87 115.355 177.897 115.355 177.926C115.355 177.952 115.345 177.979 115.329 178.002C115.312 178.025 115.288 178.04 115.261 178.048H115.256Z" fill="white" stroke="white" stroke-width="0.45" stroke-miterlimit="10"/>
<path d="M115.256 179.395H111.276C111.247 179.392 111.222 179.376 111.204 179.353C111.186 179.33 111.178 179.302 111.181 179.273C111.178 179.244 111.186 179.216 111.203 179.191C111.221 179.168 111.247 179.153 111.276 179.149H115.262C115.289 179.157 115.314 179.172 115.331 179.195C115.349 179.218 115.358 179.244 115.358 179.273C115.358 179.302 115.349 179.329 115.331 179.352C115.314 179.374 115.289 179.39 115.262 179.397L115.256 179.395Z" fill="white" stroke="white" stroke-width="0.45" stroke-miterlimit="10"/>
<path d="M156.176 176.293L158.322 177.756L156.174 179.56" stroke="white" stroke-width="1.8" stroke-miterlimit="10" stroke-linecap="round"/>
<path d="M136.293 177.238V179.818H132.859V177.238" stroke="white" stroke-width="1.8" stroke-miterlimit="10" stroke-linecap="round"/>
<path d="M132.344 177.582L134.577 176.034L136.809 177.582" stroke="white" stroke-width="1.8" stroke-miterlimit="10" stroke-linecap="round"/>
<path d="M154.825 48.6872L154.695 48.8171L154.621 48.8917C154.455 48.7254 154.258 48.5933 154.042 48.5033C153.825 48.4131 153.593 48.3668 153.358 48.3668C153.123 48.3668 152.891 48.4131 152.675 48.5033C152.458 48.5933 152.261 48.7254 152.095 48.8917L152.023 48.8171L151.895 48.6872H151.905C151.96 48.6375 152.013 48.5878 152.071 48.54C152.188 48.4435 152.316 48.3615 152.452 48.2953C152.613 48.216 152.784 48.1587 152.96 48.1252C153.044 48.1099 153.13 48.1023 153.214 48.0908C153.243 48.0908 153.432 48.0908 153.437 48.0908L153.609 48.1042C153.768 48.1218 153.925 48.1591 154.075 48.2151C154.184 48.2554 154.289 48.3053 154.39 48.3641C154.497 48.4245 154.598 48.4949 154.691 48.5744C154.739 48.6145 154.783 48.6566 154.829 48.6986L154.825 48.6872Z" fill="white"/>
<path d="M152.504 49.3123L152.313 49.0982C152.539 48.8677 152.835 48.7192 153.155 48.6758C153.384 48.641 153.619 48.6609 153.839 48.7341C154.059 48.8071 154.259 48.9312 154.422 49.0963L154.204 49.3123C153.979 49.0877 153.675 48.9616 153.357 48.9616C153.039 48.9616 152.735 49.0877 152.51 49.3123H152.504Z" fill="white"/>
<path d="M153.999 49.5032L153.792 49.7097C153.736 49.6519 153.668 49.6061 153.593 49.5753C153.518 49.5443 153.438 49.529 153.357 49.53C153.277 49.5296 153.197 49.5455 153.123 49.5762C153.048 49.607 152.981 49.6525 152.924 49.7097L152.718 49.5051C152.801 49.4201 152.901 49.3524 153.011 49.3062C153.121 49.2599 153.239 49.236 153.358 49.2358C153.477 49.2356 153.595 49.2592 153.705 49.305C153.815 49.3511 153.915 49.4184 153.999 49.5032Z" fill="white"/>
<path d="M153.544 49.9045C153.544 49.9424 153.533 49.9792 153.512 50.0108C153.491 50.0421 153.461 50.0666 153.426 50.0811C153.391 50.0956 153.353 50.0993 153.316 50.092C153.279 50.0846 153.245 50.0664 153.218 50.0396C153.191 50.0129 153.173 49.9789 153.166 49.9418C153.158 49.9047 153.162 49.8663 153.177 49.8313C153.191 49.7965 153.216 49.7665 153.247 49.7455C153.278 49.7247 153.315 49.7134 153.353 49.7134C153.404 49.7134 153.452 49.7334 153.488 49.7694C153.524 49.8051 153.544 49.8539 153.544 49.9045Z" fill="white"/>
<path d="M107.693 49.081C107.693 48.974 107.725 48.8694 107.784 48.7805C107.844 48.6915 107.928 48.6223 108.027 48.5812C108.125 48.5403 108.234 48.5296 108.339 48.5504C108.444 48.5714 108.54 48.6228 108.615 48.6985C108.691 48.7742 108.742 48.8706 108.763 48.9755C108.784 49.0804 108.773 49.1892 108.733 49.288C108.692 49.3868 108.623 49.4713 108.534 49.5307C108.445 49.5902 108.34 49.6219 108.234 49.6219C108.163 49.6219 108.092 49.6079 108.027 49.5808C107.961 49.5535 107.902 49.5137 107.852 49.4634C107.801 49.4132 107.762 49.3535 107.734 49.288C107.707 49.2224 107.693 49.1521 107.693 49.081Z" fill="white"/>
<path d="M109.394 49.0809C109.394 48.9739 109.426 48.8692 109.485 48.7803C109.545 48.6912 109.629 48.6218 109.728 48.5809C109.827 48.5402 109.936 48.5295 110.04 48.5506C110.145 48.5716 110.241 48.6234 110.317 48.6991C110.392 48.7749 110.444 48.8715 110.464 48.9766C110.485 49.0817 110.474 49.1905 110.433 49.2893C110.392 49.3881 110.322 49.4724 110.233 49.5316C110.144 49.5909 110.039 49.6222 109.932 49.6218C109.789 49.6213 109.652 49.5641 109.552 49.4628C109.451 49.3613 109.394 49.2241 109.394 49.0809Z" fill="white"/>
<path d="M111.085 49.081C111.085 48.974 111.117 48.8694 111.176 48.7805C111.236 48.6915 111.32 48.6223 111.419 48.5812C111.518 48.5403 111.626 48.5296 111.731 48.5504C111.836 48.5714 111.932 48.6228 112.008 48.6985C112.083 48.7742 112.134 48.8706 112.155 48.9755C112.176 49.0804 112.166 49.1892 112.125 49.288C112.084 49.3868 112.015 49.4713 111.926 49.5307C111.837 49.5902 111.732 49.6219 111.626 49.6219C111.482 49.6219 111.345 49.5649 111.244 49.4634C111.142 49.362 111.085 49.2245 111.085 49.081Z" fill="white"/>
<path d="M112.792 49.081C112.792 48.974 112.823 48.8694 112.883 48.7805C112.942 48.6915 113.026 48.6223 113.125 48.5812C113.224 48.5403 113.332 48.5296 113.437 48.5504C113.542 48.5714 113.638 48.6228 113.714 48.6985C113.789 48.7742 113.841 48.8706 113.862 48.9755C113.882 49.0804 113.872 49.1892 113.831 49.288C113.79 49.3868 113.721 49.4713 113.632 49.5307C113.543 49.5902 113.439 49.6219 113.332 49.6219C113.188 49.6219 113.051 49.5649 112.95 49.4634C112.848 49.362 112.792 49.2245 112.792 49.081Z" fill="white"/>
<path d="M163.181 50.077H159.757V48.4849H163.192L163.181 50.077ZM159.919 49.9031H163.002V48.6588H159.919V49.9031Z" fill="white"/>
<path d="M162.248 48.7485H160.032V49.8017H162.248V48.7485Z" fill="white"/>
<path d="M163.49 48.8481H163.185V49.7006H163.49V48.8481Z" fill="white"/>
<path d="M146.232 56.4341H123.278C122.87 56.4341 122.539 56.7653 122.539 57.1738V57.1757C122.539 57.5841 122.87 57.9154 123.278 57.9154H146.232C146.639 57.9154 146.97 57.5841 146.97 57.1757V57.1738C146.97 56.7653 146.639 56.4341 146.232 56.4341Z" fill="white"/>
<path d="M204.664 180.436H177.507V183.887H204.664V180.436Z" fill="#EAB326"/>
<path opacity="0.2" d="M204.664 180.436H177.507V183.887H204.664V180.436Z" fill="#FFF618"/>
<path opacity="0.2" d="M182.617 180.436H177.452V183.887H182.617V180.436Z" fill="black"/>
<path opacity="0.2" d="M201.431 180.436H197.644V183.887H201.431V180.436Z" fill="#FFF618"/>
<path d="M204.664 173.532H177.507V176.984H204.664V173.532Z" fill="#EAB326"/>
<path opacity="0.2" d="M204.664 173.532H177.507V176.984H204.664V173.532Z" fill="#FFF618"/>
<path opacity="0.2" d="M182.617 173.532H177.452V176.984H182.617V173.532Z" fill="black"/>
<path opacity="0.2" d="M201.431 173.532H197.644V176.984H201.431V173.532Z" fill="#FFF618"/>
<path d="M204.664 163.178H177.507V166.63H204.664V163.178Z" fill="#EAB326"/>
<path opacity="0.2" d="M204.664 163.178H177.507V166.63H204.664V163.178Z" fill="#FFF618"/>
<path opacity="0.2" d="M182.619 163.176H177.454V166.628H182.619V163.176Z" fill="black"/>
<path opacity="0.2" d="M201.431 163.178H197.644V166.63H201.431V163.178Z" fill="#FFF618"/>
<path d="M207.895 183.887H180.739V187.339H207.895V183.887Z" fill="#EAB326"/>
<path opacity="0.2" d="M207.895 183.887H180.739V187.339H207.895V183.887Z" fill="#FFF618"/>
<path opacity="0.2" d="M186.041 183.696H180.876V187.148H186.041V183.696Z" fill="black"/>
<path opacity="0.2" d="M204.662 183.887H200.875V187.339H204.662V183.887Z" fill="#FFF618"/>
<path d="M207.895 170.08H180.739V173.531H207.895V170.08Z" fill="#EAB326"/>
<path opacity="0.2" d="M207.895 170.08H180.739V173.531H207.895V170.08Z" fill="#FFF618"/>
<path opacity="0.2" d="M186.041 170.08H180.876V173.531H186.041V170.08Z" fill="black"/>
<path opacity="0.2" d="M204.664 170.082H200.877V173.533H204.664V170.082Z" fill="#FFF618"/>
<path d="M207.897 166.63H180.741V170.082H207.897V166.63Z" fill="#EAB326"/>
<path opacity="0.2" d="M207.897 166.63H180.741V170.082H207.897V166.63Z" fill="#FFF618"/>
<path opacity="0.2" d="M186.041 166.628H180.876V170.08H186.041V166.628Z" fill="black"/>
<path opacity="0.2" d="M204.664 166.63H200.877V170.082H204.664V166.63Z" fill="#FFF618"/>
<path d="M207.895 176.983H180.739V180.435H207.895V176.983Z" fill="#EAB326"/>
<path opacity="0.2" d="M207.895 176.983H180.739V180.435H207.895V176.983Z" fill="#FFF618"/>
<path opacity="0.2" d="M186.041 176.983H180.876V180.435H186.041V176.983Z" fill="black"/>
<path opacity="0.2" d="M204.662 176.983H200.875V180.435H204.662V176.983Z" fill="#FFF618"/>
<g opacity="0.3">
<path opacity="0.3" d="M204.662 183.778H180.739V183.996H204.662V183.778Z" fill="black"/>
</g>
<g opacity="0.3">
<path opacity="0.3" d="M204.662 180.326H180.739V180.544H204.662V180.326Z" fill="black"/>
</g>
<g opacity="0.3">
<path opacity="0.3" d="M204.662 176.875H180.739V177.092H204.662V176.875Z" fill="black"/>
</g>
<g opacity="0.3">
<path opacity="0.3" d="M204.662 173.422H180.739V173.64H204.662V173.422Z" fill="black"/>
</g>
<g opacity="0.3">
<path opacity="0.3" d="M207.897 169.971H180.741V170.189H207.897V169.971Z" fill="black"/>
</g>
<g opacity="0.3">
<path opacity="0.3" d="M207.897 166.519H180.741V166.737H207.897V166.519Z" fill="black"/>
</g>
<path d="M218.855 187.324C225.139 186.374 229.462 180.502 228.513 174.21C227.565 167.919 221.701 163.589 215.418 164.54C209.136 165.49 204.811 171.361 205.76 177.653C206.71 183.945 212.572 188.274 218.855 187.324Z" fill="#EAB326"/>
<path opacity="0.1" d="M218.855 187.324C225.139 186.374 229.462 180.502 228.513 174.21C227.565 167.919 221.701 163.589 215.418 164.54C209.136 165.49 204.811 171.361 205.76 177.653C206.71 183.945 212.572 188.274 218.855 187.324Z" fill="black"/>
<path d="M226.954 176.697C227.627 170.369 223.05 164.693 216.733 164.019C210.413 163.345 204.746 167.928 204.072 174.256C203.4 180.583 207.976 186.259 214.295 186.932C220.613 187.607 226.282 183.023 226.954 176.697Z" fill="#EAB326"/>
<path opacity="0.4" d="M226.954 176.697C227.627 170.369 223.05 164.693 216.733 164.019C210.413 163.345 204.746 167.928 204.072 174.256C203.4 180.583 207.976 186.259 214.295 186.932C220.613 187.607 226.282 183.023 226.954 176.697Z" fill="#FFF618"/>
<path d="M218.674 184.178C223.463 182.431 225.931 177.127 224.184 172.331C222.44 167.536 217.143 165.065 212.354 166.812C207.565 168.56 205.099 173.864 206.844 178.66C208.588 183.455 213.885 185.925 218.674 184.178Z" fill="#EAB326"/>
<path opacity="0.2" d="M218.674 184.178C223.463 182.431 225.931 177.127 224.184 172.331C222.44 167.536 217.143 165.065 212.354 166.812C207.565 168.56 205.099 173.864 206.844 178.66C208.588 183.455 213.885 185.925 218.674 184.178Z" fill="#FFF618"/>
<path opacity="0.2" d="M207.14 173.74C207.579 172.123 208.447 170.655 209.655 169.494C210.862 168.333 212.362 167.523 213.994 167.15C215.626 166.777 217.326 166.855 218.918 167.376C220.508 167.897 221.928 168.842 223.024 170.108C222.323 169.108 221.432 168.258 220.401 167.605C219.371 166.952 218.222 166.51 217.019 166.305C215.817 166.1 214.588 166.136 213.398 166.41C212.209 166.684 211.087 167.191 210.096 167.902C209.106 168.613 208.264 169.514 207.623 170.553C206.981 171.591 206.552 172.748 206.359 173.952C206.166 175.158 206.214 176.391 206.5 177.578C206.785 178.765 207.304 179.883 208.024 180.869C206.829 178.694 206.512 176.142 207.14 173.742V173.74Z" fill="black"/>
<path d="M213.307 181.512L213.652 180.233C212.227 179.774 211.639 179.086 212.11 177.345C212.206 176.97 212.333 176.603 212.492 176.25L214.313 176.743C214.246 176.905 214.189 177.073 214.143 177.244C213.939 178.008 213.872 178.44 214.61 178.641C215.349 178.841 215.485 178.595 215.756 177.626C215.884 177.15 215.929 176.986 215.729 176.684C215.324 176.028 214.072 175.317 213.557 174.684C213.089 174.134 213.11 173.537 213.522 172.008C214 170.25 214.683 169.801 216.386 170.172L216.66 169.155L217.695 169.436L217.42 170.453C218.947 170.938 219.329 171.626 218.916 173.188C218.827 173.524 218.714 173.853 218.579 174.172L216.775 173.683C216.83 173.539 216.874 173.375 216.941 173.128C217.132 172.438 217.132 172.066 216.435 171.878C215.843 171.718 215.626 171.878 215.404 172.693C215.174 173.547 215.2 173.648 215.691 174.04C216.223 174.485 216.763 174.826 217.218 175.216C217.857 175.776 218.306 176.074 217.848 177.767C217.202 180.149 216.536 180.85 214.696 180.493L214.345 181.789L213.307 181.512Z" fill="#F4F4F4"/>
<path d="M184.684 152.147C183.642 151.744 182.69 151.138 181.88 150.362C181.07 149.586 180.419 148.657 179.963 147.626C179.509 146.596 179.259 145.485 179.228 144.357C179.197 143.229 179.386 142.105 179.784 141.051C180.18 139.995 180.78 139.028 181.546 138.207C182.314 137.385 183.232 136.725 184.25 136.263C185.268 135.801 186.368 135.548 187.484 135.516C188.599 135.485 189.711 135.677 190.753 136.081C192.856 136.895 194.553 138.521 195.472 140.602C196.393 142.682 196.457 145.048 195.653 147.177C195.257 148.233 194.657 149.2 193.892 150.021C193.126 150.843 192.205 151.504 191.187 151.966C190.169 152.427 189.069 152.681 187.953 152.712C186.838 152.743 185.727 152.551 184.684 152.147Z" fill="url(#paint1_linear_2095_38385)"/>
<path d="M47.1826 168.358C44.9235 168.897 42.543 168.514 40.565 167.296C38.5871 166.077 37.1735 164.122 36.6352 161.859C36.0972 159.597 36.4787 157.213 37.6957 155.232C38.9127 153.252 40.8656 151.836 43.1248 151.297C45.3841 150.758 47.7644 151.14 49.7423 152.359C51.7205 153.578 53.1341 155.533 53.6721 157.796C54.2102 160.058 53.8288 162.442 52.6117 164.422C51.3947 166.403 49.4419 167.819 47.1826 168.358Z" fill="url(#paint2_linear_2095_38385)"/>
<path d="M211.305 84.6892L212.185 84.5133L213.576 81.4552L213.227 79.6949C213.227 79.6949 214.563 79.3413 214.868 81.6769C215.174 84.0126 215.221 83.3971 215.221 83.3971C215.221 83.3971 217.443 82.6422 218.401 83.0397C219.434 83.4659 219.26 86.0462 219.6 87.5982C219.77 88.38 219.434 89.2057 218.743 89.5344C218.647 89.5818 218.544 89.6172 218.439 89.6395C217.718 89.7829 213.92 89.9262 213.92 89.9262L212.393 90.2282L211.305 84.6892Z" fill="url(#paint3_linear_2095_38385)"/>
<path d="M209.237 85.0714L210.423 90.6276L211.93 90.3295L210.76 84.7866L209.237 85.0714Z" fill="url(#paint4_linear_2095_38385)"/>
<path d="M154.017 24.6655L154.46 25.474L155.267 25.9174L154.46 26.359L154.017 27.1675L153.576 26.359L152.767 25.9155L153.576 25.474L154.017 24.6655Z" fill="#FF6600"/>
<path d="M199.641 64.6777L200.082 65.4862L200.889 65.9297L200.082 66.3712L199.639 67.1797L199.198 66.3712L198.391 65.9297L199.198 65.4862L199.641 64.6777Z" fill="#FF6600"/>
<path d="M193.239 97.6367L193.68 98.4452L194.487 98.8886L193.68 99.3302L193.239 100.139L192.796 99.3302L191.989 98.8867L192.796 98.4452L193.239 97.6367Z" fill="#FF6600"/>
<path d="M158.499 35.3784L158.942 36.1869L159.749 36.6284L158.942 37.0719L158.499 37.8803L158.058 37.0719L157.25 36.6284L158.058 36.1869L158.499 35.3784Z" fill="#FF6600"/>
<path d="M61.4157 30.4492L61.9826 31.4871L63.0209 32.0566L61.9826 32.6243L61.4138 33.6641L60.8469 32.6243L59.8086 32.0566L60.8469 31.4871L61.4157 30.4492Z" fill="#DADDDF"/>
<path d="M51.5934 118.164L52.0344 118.973L52.8436 119.416L52.0344 119.858L51.5934 120.666L51.1506 119.858L50.3433 119.416L51.1525 118.973L51.5934 118.164Z" fill="#FF6600"/>
<path d="M84.5051 161.012L84.946 161.823L85.7534 162.264L84.946 162.706L84.5051 163.516L84.0623 162.706L83.2549 162.264L84.0623 161.821L84.5051 161.012Z" fill="#FF6600"/>
<path d="M145.921 28.5493L146.942 30.4167L148.807 31.4392L146.942 32.4599L145.921 34.3292L144.901 32.4599L143.037 31.4392L144.901 30.4167L145.921 28.5493Z" fill="#FF6600"/>
<path d="M53.8075 23.0527L55.1646 25.5394L57.6497 26.9002L55.1646 28.2611L53.8056 30.7477L52.4485 28.2592L49.9653 26.9002L52.4485 25.5394L53.8075 23.0527Z" fill="#DADDDF"/>
<path d="M186.511 103.808L187.53 105.675L189.397 106.698L187.53 107.719L186.511 109.588L185.492 107.719L183.625 106.698L185.492 105.675L186.511 103.808Z" fill="#FF6600"/>
<path d="M59.8734 105.456L60.8907 107.319L62.7517 108.338L60.8907 109.357L59.8734 111.22L58.8561 109.357L56.9951 108.338L58.8561 107.319L59.8734 105.456Z" fill="#FF6600"/>
<path d="M209.279 143.151L210.297 145.014L212.157 146.033L210.297 147.052L209.279 148.915L208.262 147.052L206.401 146.033L208.262 145.014L209.279 143.151Z" fill="#FF6600"/>
<path d="M53.3991 63.5574C53.1128 63.6014 52.502 64.148 52.0974 65.0196L52.0744 65.0578C51.7805 65.6484 51.1201 64.2551 50.9521 63.7199C50.9241 63.637 50.8773 63.5617 50.8155 63.4995C50.7536 63.4376 50.6786 63.3906 50.5958 63.3621C50.5131 63.3336 50.425 63.3246 50.3381 63.3355C50.2513 63.3466 50.1682 63.3774 50.0951 63.4256L48.4327 64.6393L47.9002 64.7616C47.7807 64.8315 47.6917 64.9435 47.6509 65.076C47.6098 65.2083 47.6198 65.351 47.6788 65.4764L49.1141 68.2001L49.5168 69.9604L53.1204 68.5116L52.3569 66.8201C52.3569 66.5812 52.7539 66.2562 52.7921 65.9294C52.8269 65.6333 52.9127 65.3455 53.046 65.0789C53.1886 64.7774 53.3619 64.4919 53.5632 64.2264C53.5804 64.2111 53.5995 64.1882 53.6167 64.1748C53.6522 64.1438 53.6814 64.1062 53.7026 64.0639C53.7377 64.0125 53.7573 63.9523 53.7592 63.8902C53.761 63.8279 53.7451 63.7665 53.7131 63.7132C53.6812 63.6599 53.6346 63.6169 53.5789 63.5892C53.5231 63.5617 53.4609 63.5506 53.3991 63.5574Z" fill="#FC9D9D"/>
<path d="M51.2918 58.565C51.2918 58.565 49.6026 58.565 46.8503 56.8964C44.098 55.2278 42.384 52.5653 42.111 52.6417C41.8381 52.7182 40.5001 52.4277 39.3205 57.9591C38.141 63.4905 39.3072 64.4576 39.7633 64.3391C40.2195 64.2206 43.136 62.6609 45.1287 62.4469C47.1213 62.2328 49.845 62.6915 49.845 62.6915L51.2918 58.565Z" fill="#FF6600"/>
<path d="M55.3231 60.5301L55.0081 61.6998L54.8669 62.2235C54.7736 62.5693 54.5514 62.8661 54.2458 63.0525C53.9404 63.2388 53.5751 63.3008 53.2254 63.2251L49.5073 62.7969L50.4884 57.7529L54.3458 58.8175C54.7016 58.916 55.0039 59.1513 55.187 59.472C55.3702 59.7929 55.4191 60.1732 55.3231 60.5301Z" fill="#3F4249"/>
<path d="M53.7082 62.6516L53.0917 65.056L52.5076 65.0254L51.0685 68.5518L49.2075 67.8523C49.2075 67.8523 50.0454 65.6256 50.2687 64.7808C50.4921 63.936 49.9996 63.8653 49.9996 63.8653L50.744 62.5044L53.7082 62.6516Z" fill="#3F4249"/>
<path d="M39.5268 58.0088C38.9103 61 38.9409 63.5364 39.5975 63.6721C40.254 63.8078 41.2866 61.4912 41.9031 58.5C42.5197 55.5088 42.4891 52.9724 41.8325 52.8367C41.1759 52.701 40.1433 55.0176 39.5268 58.0088Z" fill="#3F4249"/>
<path d="M55.8059 62.0033L54.9565 61.8906L55.2887 60.6597L56.0884 60.9387L55.8059 62.0033Z" fill="#61656D"/>
<path opacity="0.15" d="M49.4538 66.6636C49.4538 66.6636 49.053 67.6804 48.0986 66.2699L47.5947 65.3027L49.7038 66.503L49.4538 66.6636Z" fill="black"/>
<g opacity="0.3">
<path opacity="0.5" d="M50.4883 62.9668L53.3609 64.0085L53.5364 63.3223L50.4883 62.9668Z" fill="black"/>
</g>
<path d="M54.7008 61.0575C54.7008 61.0919 54.1874 61.0136 53.569 60.8855C52.9506 60.7574 52.4524 60.6275 52.46 60.5931C52.4677 60.5587 52.9735 60.637 53.5938 60.7651C54.2141 60.8932 54.7085 61.025 54.7008 61.0575Z" fill="#61656D"/>
<path d="M54.493 61.8277C54.493 61.8449 54.3747 61.843 54.1857 61.8277C54.0903 61.8277 53.9777 61.8105 53.8536 61.7952C53.7295 61.7799 53.5959 61.7455 53.4547 61.7168C53.1092 61.661 52.7725 61.5609 52.4526 61.4187C52.4526 61.3824 52.9203 61.4741 53.4795 61.5964C53.6188 61.6251 53.7525 61.6614 53.8727 61.6843C53.9929 61.7073 54.1037 61.7245 54.1972 61.7417C54.3804 61.778 54.4949 61.8105 54.493 61.8277Z" fill="#61656D"/>
<path d="M42.0712 56.9671C42.0712 56.9671 40.4775 56.4109 40.1358 58.4752C39.7942 60.5394 41.3364 60.5222 41.3364 60.5222C41.7468 59.3775 41.9941 58.1808 42.0712 56.9671Z" fill="white"/>
<path opacity="0.3" d="M42.8731 54.2549C42.8922 54.3782 42.9011 54.5028 42.8998 54.6276C42.8998 54.8684 42.9189 55.2182 42.9227 55.6521C42.9074 55.8675 42.8922 56.1026 42.8769 56.3573C42.8769 56.4835 42.8597 56.6154 42.8502 56.7511C42.8502 56.818 42.8406 56.8868 42.8368 56.9556C42.833 57.0244 42.8177 57.0951 42.8082 57.1658C42.7643 57.4487 42.7204 57.7392 42.6746 58.0527C42.6631 58.1311 42.6517 58.2075 42.6383 58.2859C42.625 58.3642 42.604 58.4407 42.5887 58.5191C42.5505 58.6758 42.5142 58.8344 42.4761 58.995C42.4379 59.1555 42.3997 59.3142 42.3635 59.4709C42.3444 59.5493 42.3291 59.6276 42.3043 59.7041C42.2795 59.7805 42.2566 59.8532 42.2318 59.9277C42.1363 60.224 42.0409 60.5011 41.955 60.7821C41.9321 60.849 41.913 60.9178 41.8882 60.9828L41.808 61.1739C41.7565 61.3 41.705 61.4205 41.6553 61.539C41.558 61.7721 41.4645 61.992 41.3805 62.1907C41.1896 62.573 41.0197 62.8826 40.9052 63.0948C40.8503 63.2074 40.7863 63.3154 40.7144 63.4178C40.7539 63.2987 40.8031 63.1829 40.8613 63.0718C40.9682 62.8501 41.119 62.5367 41.3022 62.1525C41.3824 61.9518 41.4683 61.732 41.5618 61.4988C41.6095 61.3822 41.6572 61.2599 41.7069 61.1357C41.7336 61.0726 41.7584 61.0095 41.7832 60.9445C41.808 60.8796 41.8271 60.8107 41.8481 60.7439L42.1172 59.8933C42.1401 59.8207 42.163 59.7461 42.1879 59.6697C42.2127 59.5932 42.226 59.5168 42.2451 59.4403C42.2814 59.2855 42.3196 59.1269 42.3558 58.9682C42.3921 58.8096 42.4322 58.6509 42.4684 58.4942C42.4856 58.4178 42.5085 58.3413 42.52 58.2629C42.5314 58.1846 42.5429 58.1081 42.5562 58.0317C42.604 57.7278 42.6498 57.4315 42.6956 57.1525C42.7051 57.0817 42.7185 57.0129 42.7261 56.9441L42.7433 56.7396C42.7547 56.6058 42.7643 56.4758 42.7757 56.3573C42.7967 56.1051 42.8158 55.87 42.8349 55.6559C42.8349 55.2297 42.8464 54.8914 42.8521 54.6371C42.8486 54.5093 42.8557 54.3816 42.8731 54.2549Z" fill="black"/>
<path d="M49.5454 63.1924C49.4479 63.2654 49.3819 63.373 49.3613 63.4932C49.3408 63.6134 49.367 63.7371 49.4347 63.8384C49.6924 64.2436 50.1028 64.8801 50.3891 65.2547C50.4725 65.3818 50.5801 65.4909 50.7059 65.5758C50.7668 65.6178 50.8384 65.6419 50.9123 65.6454C50.9861 65.6486 51.0594 65.6312 51.1239 65.5949C51.1862 65.5444 51.2331 65.4777 51.2596 65.4022C51.2864 65.3265 51.2915 65.2451 51.2747 65.1668C51.2388 65.0091 51.1741 64.8594 51.0839 64.7252C50.8567 64.343 50.4864 63.7696 50.1753 63.3204C50.1429 63.2701 50.1005 63.227 50.0509 63.1937C50.0012 63.1602 49.9455 63.1373 49.8867 63.1262C49.8279 63.1151 49.7676 63.1163 49.7092 63.1293C49.651 63.1423 49.5958 63.1669 49.5474 63.2019L49.5454 63.1924Z" fill="#FC9D9D"/>
<path d="M48.9138 63.741C48.8188 63.8137 48.7547 63.9196 48.7341 64.0377C48.7136 64.1556 48.7383 64.277 48.8031 64.3775C49.0608 64.7827 49.4693 65.4173 49.7575 65.7938C49.842 65.9198 49.9495 66.0287 50.0743 66.1149C50.136 66.1562 50.2076 66.1797 50.2816 66.183C50.3557 66.1864 50.4292 66.1694 50.4942 66.134C50.5565 66.0836 50.6032 66.0169 50.6296 65.9412C50.6559 65.8655 50.6607 65.7841 50.6431 65.7059C50.6084 65.5478 50.5437 65.3978 50.4522 65.2644C50.2251 64.8821 49.8548 64.3087 49.5437 63.8595C49.5113 63.8093 49.4689 63.7661 49.4193 63.7328C49.3696 63.6994 49.3139 63.6764 49.2551 63.6654C49.1963 63.6543 49.136 63.6552 49.0776 63.6684C49.0194 63.6814 48.9642 63.7061 48.9158 63.741H48.9138Z" fill="#FC9D9D"/>
<path d="M48.4387 64.3948C48.3529 64.455 48.2939 64.5466 48.2742 64.6496C48.2546 64.7528 48.2759 64.8595 48.3338 64.9472C48.5609 65.297 48.9274 65.8455 49.1812 66.1685C49.256 66.2782 49.352 66.3719 49.4637 66.4438C49.5194 66.4854 49.5868 66.5084 49.6565 66.5095C49.726 66.5107 49.7941 66.4898 49.8512 66.4503C49.9084 66.4105 49.9516 66.3539 49.9749 66.2882C49.9981 66.2226 50.0002 66.1513 49.981 66.0844C49.9502 65.9474 49.8932 65.8174 49.813 65.7022C49.6107 65.3734 49.2805 64.886 49.0037 64.4923C48.9734 64.4472 48.9342 64.4086 48.8886 64.3791C48.843 64.3497 48.7919 64.3296 48.7382 64.3207C48.6848 64.3115 48.6298 64.3134 48.5771 64.3262C48.5243 64.3388 48.4746 64.3623 48.4311 64.3948H48.4387Z" fill="#FC9D9D"/>
<path d="M47.6961 64.7462C47.6104 64.8076 47.5516 64.8995 47.532 65.0031C47.5125 65.1069 47.5337 65.2141 47.5911 65.3024C47.8202 65.6541 48.1885 66.2046 48.4424 66.5295C48.5184 66.6394 48.6149 66.7336 48.7268 66.8066C48.7829 66.8479 48.8505 66.8707 48.9203 66.8716C48.99 66.8726 49.0581 66.8517 49.1154 66.812C49.1727 66.772 49.216 66.7153 49.2395 66.6497C49.2628 66.584 49.265 66.5125 49.246 66.4454C49.2154 66.3082 49.1583 66.1784 49.078 66.0631C48.8757 65.7325 48.5436 65.2432 48.2649 64.8456C48.234 64.8013 48.1945 64.7636 48.1488 64.7348C48.103 64.7059 48.0523 64.6862 47.999 64.6772C47.9456 64.6681 47.8912 64.6698 47.8385 64.6818C47.7858 64.694 47.7362 64.7166 47.6923 64.7481L47.6961 64.7462Z" fill="#FC9D9D"/>
<path opacity="0.15" d="M50.4638 65.1861C50.4257 65.2148 50.1623 64.9109 49.8741 64.5076C49.5858 64.1043 49.3854 63.7584 49.4236 63.7316C49.4618 63.7049 49.7233 64.0088 50.0115 64.4101C50.2997 64.8115 50.502 65.1594 50.4638 65.1861Z" fill="black"/>
<path opacity="0.15" d="M49.9465 66.0175C49.9084 66.0423 49.6183 65.6887 49.3014 65.2262C48.9846 64.7636 48.7555 64.3661 48.7937 64.3393C48.8319 64.3126 49.1201 64.6662 49.4388 65.1306C49.7576 65.5951 49.9847 65.9907 49.9465 66.0175Z" fill="black"/>
<path opacity="0.15" d="M49.2669 66.2678C49.2326 66.2984 48.9367 66.0117 48.6447 65.6027C48.3527 65.1937 48.179 64.8209 48.2171 64.798C48.2553 64.7751 48.4939 65.1019 48.7897 65.5052C49.0856 65.9085 49.3013 66.2372 49.2669 66.2678Z" fill="black"/>
<path d="M53.5272 68.7642L49.6297 70.3754L49.1602 69.1961L52.9393 67.604L53.5272 68.7642Z" fill="white"/>
<path d="M73.3067 183.961L61.8813 184.252L66.4374 181.003C66.8065 180.743 67.1098 180.401 67.3222 180.001C67.5349 179.604 67.6507 179.16 67.6608 178.709L67.8613 175.078L74.0626 175.101L73.3067 183.961Z" fill="#FC9D9D"/>
<path opacity="0.15" d="M72.0392 179.778V179.711C72.0613 179.522 72.0087 179.333 71.8922 179.184C71.7756 179.033 71.605 178.935 71.417 178.91L67.7046 178.375L67.7485 177.662H73.9078L73.3505 183.717L68.3726 183.161L70.016 182.515C70.5693 182.286 71.0497 181.909 71.4061 181.427C71.7624 180.946 71.9812 180.374 72.0392 179.778Z" fill="black"/>
<path d="M93.8689 183.74H88.7346L87.7783 175.036L93.846 175.059L93.8689 183.74Z" fill="#FC9D9D"/>
<path opacity="0.15" d="M92.5804 182.27L92.4468 179.594C92.4333 179.426 92.3649 179.269 92.2525 179.143C92.1401 179.019 91.9897 178.935 91.8246 178.904L88.1332 178.346L88.0454 177.612L93.8249 177.635L93.8459 183.801L92.5804 182.27Z" fill="black"/>
<path d="M93.0692 109.932L94.203 178.048H87.534L81.7316 120.031C81.7127 119.85 81.6276 119.681 81.4925 119.558C81.3571 119.435 81.1813 119.366 80.9987 119.364C80.8172 119.363 80.6423 119.432 80.5099 119.556C80.3772 119.68 80.2974 119.85 80.2868 120.031L74.1064 178.042H67.4375L68.9644 109.926L93.0692 109.932Z" fill="#21252B"/>
<path d="M94.3806 178.048H87.2669L87.1333 176.601H94.3577L94.3806 178.048Z" fill="#21252B"/>
<path opacity="0.15" d="M94.3807 178.048H91.4013L91.3345 176.601H94.3578L94.3807 178.048Z" fill="black"/>
<path opacity="0.15" d="M70.106 177.245L76.6852 122.465C76.7867 121.614 77.1954 120.83 77.834 120.26C78.4729 119.69 79.2976 119.373 80.1533 119.37H80.9759C80.7944 119.369 80.6196 119.437 80.4871 119.561C80.3544 119.686 80.2747 119.856 80.264 120.037L74.1295 177.736L70.106 177.245Z" fill="black"/>
<path d="M74.2631 178.048H67.1724L67.2831 176.601H74.4177L74.2631 178.048Z" fill="#21252B"/>
<path opacity="0.15" d="M74.263 178.048H70.0391L70.1956 176.601H74.4176L74.263 178.048Z" fill="black"/>
<path opacity="0.15" d="M93.0695 109.932L94.2147 176.555L91.3517 176.578L89.9736 106.904L93.0695 109.932Z" fill="black"/>
<path d="M76.3223 61.841C75.6966 61.8156 75.1066 61.5424 74.6821 61.0814C74.2576 60.6206 74.0334 60.0096 74.0586 59.383C74.0839 58.7565 74.3567 58.1657 74.8171 57.7406C75.2774 57.3154 75.8875 57.0908 76.5131 57.1162C76.5837 57.1162 76.7746 57.0703 76.7517 57.141C76.2268 59.1919 76.8471 61.841 76.3223 61.841Z" fill="black"/>
<path d="M86.8448 71.2159C86.8448 71.3344 83.8902 77.8234 81.7219 77.9189C79.84 78.0126 78.6489 71.9059 78.668 71.7874L78.8284 68.6165V66.9708C78.7329 66.5886 78.2806 66.2312 78.2806 65.7304C78.1374 63.4158 77.874 61.3171 77.874 61.3171C77.874 61.3171 85.4267 56.2597 85.9019 62.1524L86.0928 63.0106L86.8448 71.2159Z" fill="#FC9D9D"/>
<path d="M76.7289 54.3985C76.7289 54.3985 74.0376 68.3053 80.4451 68.9724C85.9955 69.5457 86.3525 60.8855 86.3525 60.8855L85.9249 55.3044L81.6132 53.7295L76.7289 54.3985Z" fill="#FC9D9D"/>
<path d="M78.5611 57.722C79.2044 56.816 80.279 56.149 81.4242 56.1719C82.7106 56.1968 83.7585 57.2212 83.6402 58.7255L83.6153 59.058C83.6052 59.2096 83.6543 59.3591 83.7522 59.4751C83.8501 59.5909 83.9893 59.6641 84.1402 59.6792C84.2811 59.6817 84.4202 59.7121 84.5493 59.7687C84.6785 59.8252 84.7951 59.907 84.8926 60.0089C84.99 60.111 85.0663 60.2314 85.1171 60.3631C85.1677 60.4948 85.1919 60.6353 85.1881 60.7763L85.1633 61.7549C85.1633 61.7832 85.1688 61.8111 85.1797 61.8373C85.1906 61.8633 85.2064 61.887 85.2265 61.9071C85.2465 61.9269 85.2704 61.9426 85.2965 61.9533C85.3227 61.9638 85.3507 61.9692 85.379 61.969C85.379 61.969 85.6653 62.0168 85.7111 61.7779L85.8542 60.7285L84.8541 54.813L79.943 53.5171L77.895 55.2583L78.5611 57.722Z" fill="black"/>
<path opacity="0.15" d="M86.0816 63.0339C86.0816 63.0339 85.6998 63.0091 85.3906 62.5083L86.1541 63.8214L86.0816 63.0339Z" fill="black"/>
<path opacity="0.15" d="M84.0891 67.6363C83.4237 68.4662 82.4688 69.0127 81.417 69.1654C80.6436 69.709 79.7182 69.9934 78.7734 69.9777L78.8441 68.4028L79.0578 68.5213C79.8621 68.9313 80.7831 69.0507 81.6651 68.8592C82.5471 68.6677 83.3359 68.1769 83.8982 67.4701C83.9212 67.4223 84.0166 67.4223 84.0643 67.4471C84.0845 67.4737 84.0977 67.5052 84.1019 67.5385C84.1063 67.5716 84.1019 67.6054 84.0891 67.6363Z" fill="black"/>
<path d="M79.1567 65.2511L81.7067 64.6548C81.7197 64.9466 81.6319 65.2341 81.458 65.4686C81.2843 65.7033 81.0351 65.8708 80.7524 65.943C79.5385 66.2546 79.1567 65.2511 79.1567 65.2511Z" fill="white"/>
<path d="M81.4204 60.9102C81.5242 60.9102 81.6258 60.9409 81.7122 60.9988C81.7985 61.0568 81.8659 61.1389 81.9056 61.2351C81.9453 61.3312 81.9554 61.4369 81.9352 61.539C81.9147 61.6411 81.8645 61.7347 81.7909 61.8081C81.7172 61.8815 81.6237 61.9314 81.5216 61.9514C81.4196 61.9715 81.3141 61.9608 81.2183 61.9209C81.1223 61.8807 81.0406 61.8131 80.9831 61.7263C80.9257 61.6397 80.8951 61.5378 80.8955 61.4339C80.8961 61.2947 80.9516 61.1615 81.0499 61.0634C81.1482 60.9652 81.2814 60.9102 81.4204 60.9102Z" fill="black"/>
<path d="M81.1819 61.3879C81.2345 61.3879 81.2773 61.3451 81.2773 61.2923C81.2773 61.2396 81.2345 61.1968 81.1819 61.1968C81.1292 61.1968 81.0864 61.2396 81.0864 61.2923C81.0864 61.3451 81.1292 61.3879 81.1819 61.3879Z" fill="white"/>
<path d="M100.349 114.754L100.036 117.726C100.004 118.039 100.085 118.352 100.265 118.609L102.325 121.541C102.339 121.562 102.357 121.579 102.38 121.591C102.402 121.603 102.427 121.609 102.452 121.609C102.477 121.609 102.501 121.603 102.524 121.591C102.546 121.579 102.565 121.562 102.579 121.541C102.699 121.376 102.755 121.172 102.737 120.968C102.674 120.586 103.338 121.581 103.338 121.581L102.976 123.223C102.964 123.272 102.963 123.323 102.974 123.372C102.984 123.421 103.005 123.467 103.035 123.508C103.066 123.547 103.104 123.58 103.149 123.603C103.193 123.627 103.242 123.64 103.292 123.642C103.369 123.643 103.445 123.624 103.512 123.587C103.579 123.549 103.635 123.494 103.674 123.428C103.876 123.122 104.184 122.168 104.333 121.677C104.36 121.586 104.364 121.489 104.343 121.396C104.323 121.303 104.278 121.216 104.214 121.146C104.336 121.068 104.437 120.961 104.51 120.837C104.582 120.712 104.624 120.571 104.632 120.427C104.911 120.021 105.079 119.548 105.119 119.057C105.171 118.622 105.156 118.183 105.075 117.753L103.712 114.143L100.349 114.754Z" fill="#FC9D9D"/>
<g opacity="0.15">
<path opacity="0.15" d="M101.183 118.328C101.151 118.344 101.401 118.965 101.826 119.666C102.252 120.368 102.685 120.884 102.712 120.861C102.739 120.838 102.361 120.288 101.948 119.598C101.536 118.908 101.217 118.311 101.183 118.328Z" fill="black"/>
</g>
<g opacity="0.15">
<path opacity="0.15" d="M103.198 119.447C103.168 119.468 103.406 119.921 103.733 120.462C104.059 121.003 104.351 121.417 104.382 121.417C104.412 121.417 104.174 120.945 103.847 120.403C103.521 119.86 103.229 119.428 103.198 119.447Z" fill="black"/>
</g>
<g opacity="0.15">
<path opacity="0.15" d="M103.792 118.774C103.762 118.797 103.983 119.143 104.212 119.602C104.441 120.06 104.573 120.45 104.609 120.441C104.646 120.431 104.563 120.013 104.333 119.542C104.102 119.072 103.819 118.751 103.792 118.774Z" fill="black"/>
</g>
<g opacity="0.15">
<path opacity="0.15" d="M104.332 118.061C104.302 118.082 104.472 118.365 104.659 118.724C104.846 119.083 104.983 119.382 105.019 119.368C105.056 119.355 104.97 119.03 104.775 118.663C104.58 118.296 104.361 118.04 104.332 118.061Z" fill="black"/>
</g>
<path d="M77.3476 62.103C77.6376 62.103 77.8725 61.8677 77.8725 61.5774C77.8725 61.287 77.6376 61.0518 77.3476 61.0518C77.0577 61.0518 76.8228 61.287 76.8228 61.5774C76.8228 61.8677 77.0577 62.103 77.3476 62.103Z" fill="black"/>
<path d="M77.1316 61.5066C77.1842 61.5066 77.227 61.4637 77.227 61.411C77.227 61.3582 77.1842 61.3154 77.1316 61.3154C77.0789 61.3154 77.0361 61.3582 77.0361 61.411C77.0361 61.4637 77.0789 61.5066 77.1316 61.5066Z" fill="white"/>
<path opacity="0.2" d="M79.2103 64.4634L79.8784 64.4883C79.8988 64.4898 79.919 64.4873 79.9385 64.4808C79.9578 64.4745 79.9757 64.4644 79.9912 64.451C80.0065 64.4378 80.0192 64.4216 80.0284 64.4032C80.0376 64.3851 80.0429 64.3652 80.0444 64.3449C80.046 64.3247 80.0435 64.3042 80.0372 64.2847C80.0307 64.2654 80.0206 64.2474 80.0072 64.2321C79.994 64.2167 79.9778 64.2041 79.9597 64.1949C79.9414 64.1857 79.9217 64.1802 79.9013 64.1786L79.2352 64.1538C79.1571 64.1484 79.084 64.1135 79.0307 64.0559C78.9775 63.9984 78.9483 63.9225 78.9489 63.8441C78.9718 63.6779 79.1149 63.5345 79.2581 63.5575C79.2968 63.5521 79.3333 63.5359 79.363 63.5104C79.3928 63.485 79.4148 63.4516 79.426 63.4141C79.4489 63.3434 79.3535 63.2708 79.2829 63.2478C79.1229 63.2432 78.9672 63.3002 78.8477 63.4066C78.7282 63.5133 78.6538 63.6616 78.6396 63.8212C78.6332 63.9013 78.6429 63.982 78.6685 64.058C78.6939 64.1343 78.7345 64.2044 78.7879 64.2645C78.8412 64.3245 78.9061 64.3732 78.9788 64.4072C79.0513 64.4414 79.1302 64.4606 79.2103 64.4634Z" fill="black"/>
<path d="M75.1314 61.0538L75.1562 61.6272C75.1615 61.8934 75.2195 62.156 75.3268 62.3997C75.4341 62.6436 75.5887 62.8636 75.7813 63.0473C75.974 63.2308 76.2012 63.3743 76.4495 63.4697C76.6978 63.5649 76.9627 63.6098 77.2286 63.6019C77.4945 63.5941 77.7562 63.5337 77.9986 63.424C78.241 63.3143 78.4593 63.1576 78.6409 62.963C78.8224 62.7684 78.9636 62.5396 79.0566 62.29C79.1493 62.0404 79.1919 61.7749 79.1816 61.5087L79.1568 60.9353C79.1631 60.7682 79.1035 60.6055 78.9907 60.4823L79.7771 60.4593C79.724 60.5213 79.684 60.5933 79.6593 60.6711C79.6347 60.7491 79.6261 60.8311 79.6339 60.9123L79.6568 61.4857C79.6725 62.0205 79.8998 62.5272 80.2884 62.8942C80.6772 63.2613 81.1956 63.4586 81.7297 63.4429C82.2637 63.4272 82.7697 63.1998 83.1362 62.8105C83.5026 62.4211 83.6998 61.902 83.6842 61.3672L83.6593 60.7938C83.6523 60.5977 83.5681 60.4125 83.425 60.2785C83.282 60.1445 83.0917 60.0729 82.8959 60.079L80.3707 60.1516H80.3554L78.4028 60.1975H78.0936L75.8547 60.2701C75.6574 60.2846 75.473 60.3737 75.3386 60.5192C75.2045 60.6646 75.1304 60.8557 75.1314 61.0538ZM80.3249 60.4574L82.873 60.3848C82.9894 60.3836 83.1016 60.428 83.186 60.5083C83.2704 60.5885 83.3204 60.6984 83.3253 60.8148L83.3501 61.3882C83.3563 61.6142 83.3179 61.8391 83.2373 62.0501C83.1566 62.2611 83.0352 62.4542 82.88 62.6184C82.7249 62.7824 82.539 62.9142 82.3328 63.0064C82.1269 63.0985 81.9047 63.1491 81.6791 63.1553C81.4535 63.1614 81.2288 63.123 81.0181 63.0423C80.8074 62.9615 80.6146 62.8399 80.4507 62.6845C80.1197 62.3707 79.9269 61.9381 79.9145 61.4819L79.8897 60.9085C79.9013 60.7953 79.9506 60.6895 80.0296 60.6078C80.1084 60.526 80.2125 60.4731 80.3249 60.4574ZM75.4177 61.0538C75.4165 60.9372 75.4608 60.8248 75.541 60.7403C75.6209 60.6558 75.7309 60.6057 75.8471 60.6008L78.086 60.5281H78.3952C78.5116 60.527 78.6239 60.5713 78.7082 60.6516C78.7926 60.7319 78.8426 60.8418 78.8476 60.9582L78.8724 61.5316C78.885 61.9878 78.7162 62.4305 78.403 62.7619C78.0898 63.0935 77.6579 63.287 77.2023 63.2996C76.7467 63.3122 76.3046 63.1432 75.9737 62.8296C75.6425 62.5159 75.4493 62.0834 75.4367 61.6272L75.4177 61.0538Z" fill="black"/>
<path d="M57.7681 185.854V185.609C57.7681 185.416 57.806 185.225 57.8799 185.047C57.9536 184.87 58.0618 184.707 58.1981 184.571C58.3344 184.434 58.4962 184.327 58.6743 184.252C58.8524 184.18 59.0433 184.141 59.2358 184.141H61.28C61.7124 184.145 62.1283 183.977 62.4367 183.673L67.6608 178.704L69.2831 180.84C69.4101 181.007 69.5731 181.142 69.7597 181.238C69.9464 181.334 70.1522 181.385 70.3616 181.389C70.5707 181.393 70.7784 181.349 70.9687 181.263C71.1592 181.175 71.3274 181.045 71.461 180.884C71.5927 180.728 71.7558 180.602 71.9398 180.514C72.1236 180.426 72.3241 180.378 72.5279 180.372H73.6178V185.76L57.7681 185.854Z" fill="#3F4249"/>
<path d="M57.7681 185.854V186.657H73.6617V185.766L57.7681 185.854Z" fill="black"/>
<path d="M68.7125 180.048L65.1776 182.914C64.9891 183.065 64.7511 183.144 64.5094 183.13C64.2676 183.119 64.0387 183.018 63.8664 182.848L63.6011 182.58L67.6608 178.71C67.7643 178.679 67.8748 178.681 67.9773 178.715C68.0796 178.75 68.1691 178.815 68.2334 178.901L68.6553 179.501C68.7097 179.568 68.7446 179.65 68.7564 179.736C68.7683 179.822 68.7562 179.91 68.7221 179.99L68.7125 180.048Z" fill="black"/>
<path d="M89.4009 179.801H88.9791C88.7863 179.795 88.5987 179.864 88.4544 179.992C88.3099 180.12 88.2191 180.298 88.2004 180.491L88.1126 182.092C88.0851 182.587 87.9551 183.073 87.7308 183.516L87.5743 183.807C87.2916 184.365 87.147 184.984 87.1525 185.609V185.9H95.2873C95.2848 185.105 95.0449 184.33 94.5983 183.673C94.2664 183.182 94.0606 182.616 93.9989 182.025L93.8214 180.424C93.7833 180.246 93.6848 180.087 93.543 179.973C93.401 179.86 93.2244 179.799 93.0427 179.801H92.7621" fill="#3F4249"/>
<path d="M95.2471 185.877H87.1333V186.657H95.2471V185.877Z" fill="black"/>
<path d="M90.4713 179.065H91.6719C91.8151 179.065 91.9569 179.093 92.0874 179.153C92.2182 179.212 92.3348 179.298 92.4295 179.405C92.5241 179.512 92.5947 179.64 92.6367 179.776C92.6785 179.913 92.6906 180.059 92.6721 180.2L92.4048 182.383C92.3609 182.708 92.2016 183.006 91.9563 183.222C91.7108 183.438 91.3959 183.558 91.0688 183.562C90.7367 183.564 90.416 183.442 90.1688 183.22C89.9218 182.996 89.7665 182.691 89.7327 182.36L89.4884 180.179C89.4678 180.04 89.4781 179.896 89.5183 179.761C89.5584 179.625 89.6279 179.499 89.7214 179.394C89.8151 179.286 89.9306 179.202 90.0602 179.147C90.1896 179.09 90.3301 179.061 90.4713 179.065Z" fill="black"/>
<path d="M88.9121 180.512H93.2238" stroke="white" stroke-width="1.53" stroke-linecap="round" stroke-linejoin="round"/>
<path d="M89.0459 181.536H93.0904" stroke="white" stroke-width="1.53" stroke-linecap="round" stroke-linejoin="round"/>
<path d="M89.1562 182.538H92.9793" stroke="white" stroke-width="1.53" stroke-linecap="round" stroke-linejoin="round"/>
<path d="M64.6606 181.068L66.2391 182.561" stroke="white" stroke-width="1.53" stroke-linecap="round" stroke-linejoin="round"/>
<path d="M65.5039 180.29L67.1263 181.825" stroke="white" stroke-width="1.53" stroke-linecap="round" stroke-linejoin="round"/>
<path d="M66.3706 179.554L67.972 181.068" stroke="white" stroke-width="1.53" stroke-linecap="round" stroke-linejoin="round"/>
<path d="M104.349 114.152L99.6082 114.943L95.8558 95.5262L94.2029 90.2719L93.4394 109.385C93.435 109.534 93.3726 109.676 93.2657 109.78C93.1588 109.883 93.0158 109.941 92.8668 109.941H68.9491C68.8834 109.938 68.8212 109.911 68.7727 109.867C68.7244 109.822 68.6929 109.762 68.6838 109.697L67.9585 83.0509L60.3963 89.0678C60.0449 89.3776 59.6267 89.602 59.1745 89.7234C58.7222 89.8447 58.248 89.8598 57.789 89.7673H57.7527C57.2494 89.6484 56.7847 89.4034 56.4018 89.0555C56.0187 88.7075 55.7303 88.2677 55.5635 87.7776L49.5244 70.4858L53.5995 68.7656L59.6614 80.3177L66.4621 73.4522C67.3219 72.4736 68.5294 71.87 69.8271 71.7702H69.8576L78.4944 70.6598H78.6853C80.0213 73.2152 84.2987 73.6357 86.2055 71.4682L86.9002 70.6808L94.598 72.8845C95.4406 73.1038 96.2264 73.5017 96.9021 74.0514C97.5778 74.6011 98.1279 75.2898 98.5146 76.0707L103.164 95.1286L104.349 114.152Z" fill="#FF6600"/>
<path d="M87.5895 57.0226C87.3987 55.5184 86.6142 54.3984 85.2991 54.1117C84.746 54.002 84.1747 54.0263 83.6328 54.1824C83.5843 54.1969 83.5334 54.2017 83.483 54.1966C83.4326 54.1912 83.3839 54.1759 83.3395 54.1516C83.295 54.1272 83.2559 54.0943 83.2244 54.0545C83.1929 54.015 83.1694 53.9693 83.1557 53.9206C83.0329 53.4251 82.7487 52.985 82.3481 52.6696C81.9475 52.3542 81.4531 52.1818 80.9435 52.1793C80.5856 52.1753 80.2319 52.2579 79.9126 52.42C79.5933 52.5819 79.3177 52.8187 79.1093 53.1102C79.0802 53.1537 79.0421 53.1906 78.9976 53.2181C78.9531 53.2459 78.9033 53.2634 78.8514 53.2701C78.7995 53.277 78.7468 53.2724 78.6968 53.2569C78.6468 53.2417 78.6006 53.2157 78.5615 53.1809C78.5615 53.1809 77.0345 51.9653 75.0361 53.2057C74.3591 53.6444 73.8694 54.32 73.6626 55.1004C73.4559 55.881 73.5468 56.7107 73.9176 57.4278C74.7269 59.0257 76.8227 59.5036 78.1167 58.286C78.5691 57.856 78.9279 57.2119 78.9986 56.2581C79.0606 55.7289 79.0119 55.1926 78.8554 54.6832H79.5234C80.3079 54.6354 81.5466 54.4921 82.7148 54.6602C82.6899 54.6832 82.667 54.6832 82.6422 54.708L84.7151 55.3999C84.7151 55.3999 85.3583 60.8854 85.6923 60.8377C87.1372 60.528 87.7804 58.3816 87.5895 57.0226Z" fill="black"/>
<path opacity="0.2" d="M59.6616 80.3024L60.217 81.3556C60.2588 81.4028 60.31 81.4406 60.3675 81.4664C60.4249 81.4924 60.4871 81.5058 60.5501 81.5058C60.6131 81.5058 60.6753 81.4924 60.7328 81.4664C60.7902 81.4406 60.8414 81.4028 60.8832 81.3556L60.4289 79.4844L59.6616 80.3024Z" fill="black"/>
<path opacity="0.2" d="M67.9814 83.0414L68.7449 82.684C68.7699 82.6706 68.7985 82.6656 68.8266 82.67C68.8547 82.6742 68.8806 82.6874 68.9005 82.7075C68.9205 82.7277 68.9333 82.7539 68.9373 82.782C68.9413 82.8101 68.936 82.8388 68.9224 82.8636L68.0559 84.775L67.9814 83.0414Z" fill="black"/>
<path d="M85.8507 60.2414C85.8507 60.2414 86.0663 59.2169 87.1619 59.5266C88.4007 59.884 88.185 62.3936 86.5416 62.967C85.5186 63.1829 85.6617 62.5618 85.7323 61.7265L85.8507 60.2414Z" fill="#FC9D9D"/>
<path opacity="0.3" d="M87.305 60.2182C87.2178 60.1616 87.1187 60.126 87.0155 60.1136C86.9122 60.1014 86.8076 60.113 86.7095 60.1474C86.6183 60.1841 86.5354 60.239 86.4658 60.3086C86.3963 60.3783 86.3415 60.4613 86.3049 60.5526C86.2001 60.7841 86.1669 61.0417 86.2094 61.2923V61.5064C86.2157 61.5377 86.2342 61.5654 86.261 61.5832C86.2877 61.601 86.3203 61.6073 86.3516 61.601C86.3829 61.5947 86.4106 61.5762 86.4284 61.5494C86.4461 61.5226 86.4524 61.4899 86.4461 61.4586V61.2445C86.4299 61.0347 86.4545 60.8237 86.5186 60.6234C86.5727 60.502 86.6643 60.4014 86.7801 60.3367C86.9092 60.308 87.0439 60.325 87.1619 60.3844C87.1911 60.3953 87.2229 60.3967 87.2527 60.3881C87.2827 60.3795 87.309 60.3613 87.3279 60.3367C87.3756 60.3367 87.3527 60.2659 87.305 60.2182Z" fill="black"/>
<path opacity="0.2" d="M91.6608 94.519L92.3384 86.3251C92.3514 86.1892 92.4088 86.0613 92.5021 85.9615C92.5953 85.8618 92.7188 85.7958 92.8535 85.7741C92.9881 85.7523 93.1263 85.7756 93.2461 85.8408C93.366 85.9059 93.4609 86.009 93.516 86.134L94.2241 90.4784L93.4912 109.328C93.4868 109.496 93.4166 109.655 93.296 109.772C93.1753 109.888 93.0137 109.953 92.8461 109.951H90.1567L90.6625 103.317L91.6608 94.519Z" fill="black"/>
<path d="M99.6084 114.944L104.35 114.152L104.617 115.421L99.8374 116.257L99.6084 114.944Z" fill="white"/>
<path d="M68.0732 87.5867C68.0732 87.5867 68.1095 87.6383 68.2049 87.7282C68.3567 87.8664 68.5231 87.9875 68.7012 88.0894C69.4906 88.5231 70.3543 88.8044 71.2474 88.9189C72.6856 89.1326 74.1465 89.1443 75.5877 88.9533C77.2006 88.7622 78.8726 88.3685 80.6343 88.0187C83.7168 87.3809 86.8833 87.258 90.0059 87.6555C92.3956 87.9652 93.7297 88.4201 93.7584 88.3761C93.6853 88.3375 93.6076 88.3081 93.5274 88.2882C93.369 88.2385 93.1342 88.1601 92.8193 88.0799C91.9125 87.8364 90.9914 87.6498 90.0613 87.5217C88.6315 87.3184 87.1877 87.2289 85.7438 87.2542C83.9901 87.2796 82.2429 87.4715 80.5255 87.8276C78.7466 88.1812 77.0899 88.5749 75.5228 88.7718C74.1245 88.9625 72.7068 88.9625 71.3085 88.7718C70.4333 88.6678 69.5824 88.4145 68.7928 88.0225C68.2985 87.7683 68.1038 87.5753 68.0732 87.5867Z" fill="#FAFAFA"/>
<path d="M93.8271 88.2057C93.9094 88.2869 94.0033 88.3552 94.1058 88.4083C94.3694 88.5755 94.645 88.7231 94.9304 88.8498C95.3594 89.0518 95.8309 89.1468 96.3046 89.127C96.8486 89.0983 97.3983 88.8307 97.8984 88.5001C98.3482 88.1684 98.8216 87.8703 99.3146 87.6075C99.7109 87.3997 100.163 87.3259 100.605 87.3972C100.902 87.4444 101.176 87.5826 101.391 87.7929C101.538 87.9477 101.582 88.0624 101.603 88.0547C101.624 88.0471 101.586 87.9247 101.447 87.7451C101.236 87.4983 100.949 87.3295 100.632 87.2653C100.16 87.1732 99.6713 87.2403 99.2421 87.4565C98.7363 87.7139 98.2524 88.0125 97.7953 88.349C97.3029 88.674 96.7913 88.9225 96.2913 88.9626C95.8425 88.9867 95.394 88.9083 94.98 88.7332C94.2623 88.4331 93.8443 88.1732 93.8271 88.2057Z" fill="#FAFAFA"/>
<path d="M61.5759 78.2515C61.5536 78.3648 61.5484 78.4807 61.5607 78.5955C61.5664 78.9082 61.5952 79.22 61.6465 79.5283C61.7132 79.9981 61.8926 80.4447 62.1695 80.8299C62.494 81.2695 63.0208 81.5791 63.5724 81.8161C64.0971 82.0101 64.6075 82.2414 65.0994 82.508C65.4881 82.7246 65.7983 83.0592 65.985 83.4637C66.109 83.7385 66.1449 84.0449 66.088 84.341C66.0403 84.5474 65.9716 84.6525 65.9869 84.6602C66.0716 84.5788 66.1314 84.4746 66.1587 84.3601C66.2478 84.048 66.2302 83.715 66.109 83.414C65.9289 82.9683 65.6059 82.5952 65.191 82.3532C64.6974 82.073 64.1824 81.8326 63.6507 81.6345C63.1086 81.4033 62.6162 81.1147 62.3146 80.7152C62.0481 80.3534 61.8668 79.9357 61.784 79.4938C61.6255 78.7465 61.6122 78.2477 61.5759 78.2515Z" fill="#FAFAFA"/>
<g filter="url(#filter0_d_2095_38385)">
<path fill-rule="evenodd" clip-rule="evenodd" d="M87.0013 32.6154C85.5274 32.6154 82.5923 33.3534 82.5923 34.823V35.9268H91.4103V34.823C91.4103 33.3534 88.4752 32.6154 87.0013 32.6154ZM84.0661 34.6656C84.5952 34.2998 85.8738 33.8772 87.0013 33.8772C88.1287 33.8772 89.4073 34.2998 89.9364 34.6656H84.0661ZM87.0012 31.5118C88.2168 31.5118 89.2057 30.5216 89.2057 29.3042C89.2057 28.0869 88.2168 27.0967 87.0012 27.0967C85.7856 27.0967 84.7967 28.0869 84.7967 29.3042C84.7967 30.5216 85.7856 31.5118 87.0012 31.5118ZM87.0012 28.3583C87.524 28.3583 87.946 28.7809 87.946 29.3044C87.946 29.8279 87.524 30.2505 87.0012 30.2505C86.4784 30.2505 86.0564 29.8279 86.0564 29.3044C86.0564 28.7809 86.4784 28.3583 87.0012 28.3583ZM91.4356 32.6537C92.1663 33.1835 92.6701 33.89 92.6701 34.8234V35.9272H95.1896V34.8234C95.1896 33.5494 92.9851 32.824 91.4356 32.6537ZM90.7805 31.5118C91.9962 31.5118 92.985 30.5216 92.985 29.3042C92.985 28.0869 91.9962 27.0967 90.7805 27.0967C90.4404 27.0967 90.1255 27.1787 89.8358 27.3174C90.2326 27.8788 90.4656 28.5663 90.4656 29.3042C90.4656 30.0422 90.2326 30.7297 89.8358 31.291C90.1255 31.4298 90.4404 31.5118 90.7805 31.5118Z" fill="white"/>
</g>
<g filter="url(#filter1_d_2095_38385)">
<path fill-rule="evenodd" clip-rule="evenodd" d="M194.767 52.7546L191.644 54.2075V50.517L194.937 48.9855V52.5216C194.937 52.6172 194.872 52.7062 194.767 52.7546ZM187.421 52.7551C187.317 52.7068 187.253 52.6178 187.254 52.5178V48.9855L190.547 50.517V54.2086L187.421 52.7551ZM190.935 46.7653C190.985 46.7416 191.04 46.7301 191.095 46.7301C191.15 46.7301 191.206 46.7416 191.256 46.7653L194.18 48.1248L191.095 49.5601L188.01 48.1248L190.935 46.7653ZM195.845 47.9715C195.844 47.9672 195.844 47.9622 195.842 47.9578C195.841 47.9534 195.836 47.9507 195.833 47.9463C195.808 47.9045 195.777 47.8677 195.748 47.8292C195.731 47.8105 195.718 47.7897 195.699 47.7737C195.57 47.6221 195.418 47.4885 195.229 47.4012L191.717 45.7675C191.717 45.7675 191.716 45.7675 191.716 45.7669C191.322 45.5845 190.869 45.585 190.473 45.7675L186.963 47.4006C186.774 47.488 186.622 47.621 186.493 47.7726C186.472 47.7897 186.457 47.8127 186.439 47.8331C186.411 47.8699 186.382 47.9056 186.358 47.9452C186.355 47.9501 186.35 47.9534 186.348 47.9578C186.346 47.9628 186.347 47.9677 186.344 47.9726C186.229 48.1716 186.157 48.3952 186.157 48.6304V52.5138C186.152 53.0358 186.466 53.5216 186.957 53.7513L190.468 55.3844C190.667 55.4773 190.88 55.5234 191.093 55.5234C191.306 55.5234 191.519 55.4773 191.717 55.385L195.228 53.7518C195.717 53.5254 196.034 53.043 196.034 52.522V48.6299C196.034 48.3947 195.962 48.171 195.845 47.9715Z" fill="#F0F3FF"/>
</g>
<mask id="mask0_2095_38385" style="mask-type:alpha" maskUnits="userSpaceOnUse" x="186" y="45" width="11" height="11">
<path fill-rule="evenodd" clip-rule="evenodd" d="M194.767 52.7546L191.644 54.2075V50.517L194.937 48.9855V52.5216C194.937 52.6172 194.872 52.7062 194.767 52.7546ZM187.421 52.7551C187.317 52.7068 187.253 52.6178 187.254 52.5178V48.9855L190.547 50.517V54.2086L187.421 52.7551ZM190.935 46.7653C190.985 46.7416 191.04 46.7301 191.095 46.7301C191.15 46.7301 191.206 46.7416 191.256 46.7653L194.18 48.1248L191.095 49.5601L188.01 48.1248L190.935 46.7653ZM195.845 47.9715C195.844 47.9672 195.844 47.9622 195.842 47.9578C195.841 47.9534 195.836 47.9507 195.833 47.9463C195.808 47.9045 195.777 47.8677 195.748 47.8292C195.731 47.8105 195.718 47.7897 195.699 47.7737C195.57 47.6221 195.418 47.4885 195.229 47.4012L191.717 45.7675C191.717 45.7675 191.716 45.7675 191.716 45.7669C191.322 45.5845 190.869 45.585 190.473 45.7675L186.963 47.4006C186.774 47.488 186.622 47.621 186.493 47.7726C186.472 47.7897 186.457 47.8127 186.439 47.8331C186.411 47.8699 186.382 47.9056 186.358 47.9452C186.355 47.9501 186.35 47.9534 186.348 47.9578C186.346 47.9628 186.347 47.9677 186.344 47.9726C186.229 48.1716 186.157 48.3952 186.157 48.6304V52.5138C186.152 53.0358 186.466 53.5216 186.957 53.7513L190.468 55.3844C190.667 55.4773 190.88 55.5234 191.093 55.5234C191.306 55.5234 191.519 55.4773 191.717 55.385L195.228 53.7518C195.717 53.5254 196.034 53.043 196.034 52.522V48.6299C196.034 48.3947 195.962 48.171 195.845 47.9715Z" fill="white"/>
</mask>
<g mask="url(#mask0_2095_38385)">
<rect x="184.51" y="43.9824" width="13.1699" height="13.1882" fill="white"/>
</g>
<g filter="url(#filter2_d_2095_38385)">
<path fill-rule="evenodd" clip-rule="evenodd" d="M187.719 139.958C189.512 139.958 190.964 140.161 190.964 141.582V145.644C190.964 146.001 190.805 146.322 190.558 146.545V147.268C190.558 147.492 190.376 147.675 190.152 147.675H189.747C189.524 147.675 189.341 147.492 189.341 147.268V146.862H186.097V147.268C186.097 147.492 185.914 147.675 185.691 147.675H185.285C185.062 147.675 184.88 147.492 184.88 147.268V146.545C184.632 146.322 184.474 146.001 184.474 145.644V141.582C184.474 140.161 185.926 139.958 187.719 139.958ZM190.015 141.172C189.791 140.957 189.216 140.77 187.719 140.77C186.222 140.77 185.646 140.957 185.423 141.172H190.015ZM190.152 141.984H185.285V143.207H190.152V141.984ZM190.015 145.94C190.067 145.896 190.152 145.794 190.152 145.644V144.019H185.285V145.644C185.285 145.794 185.37 145.896 185.423 145.94L185.541 146.05H189.897L190.015 145.94ZM186.299 145.644C185.963 145.644 185.691 145.371 185.691 145.034C185.691 144.698 185.963 144.425 186.299 144.425C186.635 144.425 186.908 144.698 186.908 145.034C186.908 145.371 186.635 145.644 186.299 145.644ZM189.138 145.644C188.802 145.644 188.53 145.371 188.53 145.034C188.53 144.698 188.802 144.425 189.138 144.425C189.474 144.425 189.747 144.698 189.747 145.034C189.747 145.371 189.474 145.644 189.138 145.644Z" fill="white"/>
</g>
<g filter="url(#filter3_d_2095_38385)">
<g filter="url(#filter4_d_2095_38385)">
<path fill-rule="evenodd" clip-rule="evenodd" d="M48.3168 154.489C47.1011 154.489 46.1167 155.465 46.1167 156.668C46.1167 157.87 47.1011 158.847 48.3168 158.847C49.5347 158.847 50.5214 157.87 50.5214 156.668C50.5214 155.465 49.5347 154.489 48.3168 154.489ZM48.319 158.411C47.3456 158.411 46.5572 157.631 46.5572 156.668C46.5572 155.705 47.3456 154.925 48.319 154.925C49.2925 154.925 50.0809 155.705 50.0809 156.668C50.0809 157.631 49.2925 158.411 48.319 158.411ZM48.2706 155.578H48.2574C48.1693 155.578 48.0988 155.648 48.0988 155.735V156.764C48.0988 156.84 48.1384 156.912 48.2067 156.951L49.1207 157.493C49.1956 157.537 49.2925 157.515 49.3365 157.441C49.3828 157.367 49.3585 157.269 49.2814 157.225L48.4291 156.724V155.735C48.4291 155.648 48.3587 155.578 48.2706 155.578Z" fill="white"/>
</g>
</g>
<g filter="url(#filter5_d_2095_38385)">
<path fill-rule="evenodd" clip-rule="evenodd" d="M45.7074 156.668H42.3727C42.082 156.668 41.8397 156.851 41.7472 157.108L40.8795 159.579C40.8487 159.671 40.8311 159.766 40.8311 159.867V162.987C40.8311 163.349 41.1262 163.641 41.4918 163.641C41.8573 163.641 42.1525 163.349 42.1525 162.987V162.769H47.438V162.987C47.438 163.344 47.7331 163.641 48.0987 163.641C48.4599 163.641 48.7594 163.349 48.7594 162.987V159.867C48.7594 159.771 48.7418 159.671 48.711 159.579L48.6056 159.279C48.337 159.266 48.0775 159.219 47.8312 159.142L47.8785 159.283H41.712L42.2714 157.618C42.333 157.444 42.5004 157.322 42.6898 157.322H45.8786C45.7982 157.114 45.7402 156.895 45.7074 156.668ZM41.712 160.808C41.712 161.17 42.0071 161.462 42.3727 161.462C42.7383 161.462 43.0334 161.17 43.0334 160.808C43.0334 160.446 42.7383 160.154 42.3727 160.154C42.0071 160.154 41.712 160.446 41.712 160.808ZM46.5571 160.808C46.5571 161.17 46.8522 161.462 47.2178 161.462C47.5834 161.462 47.8785 161.17 47.8785 160.808C47.8785 160.446 47.5834 160.154 47.2178 160.154C46.8522 160.154 46.5571 160.446 46.5571 160.808Z" fill="white"/>
</g>
<path d="M164.832 110.605L108.229 110.475C107.882 110.474 107.6 110.783 107.599 111.165L107.459 184.651C107.458 185.034 107.739 185.344 108.086 185.345L164.689 185.475C165.036 185.476 165.318 185.167 165.319 184.785L165.459 111.299C165.46 110.917 165.179 110.606 164.832 110.605Z" fill="#DADDDF"/>
<path d="M163.298 110.605L106.694 110.475C106.347 110.474 106.066 110.783 106.065 111.165L105.925 184.651C105.924 185.034 106.205 185.344 106.552 185.345L163.155 185.475C163.502 185.476 163.784 185.167 163.785 184.785L163.925 111.299C163.926 110.917 163.645 110.606 163.298 110.605Z" fill="#DADDDF"/>
<path d="M162.753 110.605L105.174 110.475C104.82 110.474 104.534 110.783 104.533 111.165L104.391 184.651C104.39 185.034 104.676 185.344 105.029 185.345L162.608 185.475C162.961 185.476 163.248 185.167 163.249 184.785L163.391 111.299C163.391 110.917 163.106 110.606 162.753 110.605Z" fill="#DADDDF"/>
<path d="M161.229 110.605L104.626 110.475C104.279 110.474 103.997 110.783 103.996 111.165L103.856 184.651C103.856 185.034 104.137 185.344 104.484 185.345L161.087 185.475C161.434 185.476 161.716 185.167 161.717 184.785L161.856 111.299C161.857 110.917 161.576 110.606 161.229 110.605Z" fill="#DADDDF"/>
<defs>
<filter id="filter0_d_2095_38385" x="81.5923" y="27.0967" width="14.5972" height="11.8306" filterUnits="userSpaceOnUse" color-interpolation-filters="sRGB">
<feFlood flood-opacity="0" result="BackgroundImageFix"/>
<feColorMatrix in="SourceAlpha" type="matrix" values="0 0 0 0 0 0 0 0 0 0 0 0 0 0 0 0 0 0 127 0" result="hardAlpha"/>
<feOffset dy="2"/>
<feGaussianBlur stdDeviation="0.5"/>
<feComposite in2="hardAlpha" operator="out"/>
<feColorMatrix type="matrix" values="0 0 0 0 1 0 0 0 0 0.4 0 0 0 0 0 0 0 0 0.9 0"/>
<feBlend mode="normal" in2="BackgroundImageFix" result="effect1_dropShadow_2095_38385"/>
<feBlend mode="normal" in="SourceGraphic" in2="effect1_dropShadow_2095_38385" result="shape"/>
</filter>
<filter id="filter1_d_2095_38385" x="185.157" y="45.6304" width="11.8774" height="12.8931" filterUnits="userSpaceOnUse" color-interpolation-filters="sRGB">
<feFlood flood-opacity="0" result="BackgroundImageFix"/>
<feColorMatrix in="SourceAlpha" type="matrix" values="0 0 0 0 0 0 0 0 0 0 0 0 0 0 0 0 0 0 127 0" result="hardAlpha"/>
<feOffset dy="2"/>
<feGaussianBlur stdDeviation="0.5"/>
<feComposite in2="hardAlpha" operator="out"/>
<feColorMatrix type="matrix" values="0 0 0 0 0.356863 0 0 0 0 0.364706 0 0 0 0 1 0 0 0 0.9 0"/>
<feBlend mode="normal" in2="BackgroundImageFix" result="effect1_dropShadow_2095_38385"/>
<feBlend mode="normal" in="SourceGraphic" in2="effect1_dropShadow_2095_38385" result="shape"/>
</filter>
<filter id="filter2_d_2095_38385" x="183.474" y="139.958" width="8.48975" height="10.7168" filterUnits="userSpaceOnUse" color-interpolation-filters="sRGB">
<feFlood flood-opacity="0" result="BackgroundImageFix"/>
<feColorMatrix in="SourceAlpha" type="matrix" values="0 0 0 0 0 0 0 0 0 0 0 0 0 0 0 0 0 0 127 0" result="hardAlpha"/>
<feOffset dy="2"/>
<feGaussianBlur stdDeviation="0.5"/>
<feComposite in2="hardAlpha" operator="out"/>
<feColorMatrix type="matrix" values="0 0 0 0 0.580392 0 0 0 0 0.254902 0 0 0 0 1 0 0 0 0.9 0"/>
<feBlend mode="normal" in2="BackgroundImageFix" result="effect1_dropShadow_2095_38385"/>
<feBlend mode="normal" in="SourceGraphic" in2="effect1_dropShadow_2095_38385" result="shape"/>
</filter>
<filter id="filter3_d_2095_38385" x="44.6763" y="154.053" width="7.28564" height="8.22949" filterUnits="userSpaceOnUse" color-interpolation-filters="sRGB">
<feFlood flood-opacity="0" result="BackgroundImageFix"/>
<feColorMatrix in="SourceAlpha" type="matrix" values="0 0 0 0 0 0 0 0 0 0 0 0 0 0 0 0 0 0 127 0" result="hardAlpha"/>
<feOffset dy="2"/>
<feGaussianBlur stdDeviation="0.5"/>
<feComposite in2="hardAlpha" operator="out"/>
<feColorMatrix type="matrix" values="0 0 0 0 0.00392157 0 0 0 0 0.741176 0 0 0 0 0.0745098 0 0 0 0.9 0"/>
<feBlend mode="normal" in2="BackgroundImageFix" result="effect1_dropShadow_2095_38385"/>
<feBlend mode="normal" in="SourceGraphic" in2="effect1_dropShadow_2095_38385" result="shape"/>
</filter>
<filter id="filter4_d_2095_38385" x="42.1167" y="152.489" width="12.4048" height="12.3579" filterUnits="userSpaceOnUse" color-interpolation-filters="sRGB">
<feFlood flood-opacity="0" result="BackgroundImageFix"/>
<feColorMatrix in="SourceAlpha" type="matrix" values="0 0 0 0 0 0 0 0 0 0 0 0 0 0 0 0 0 0 127 0" result="hardAlpha"/>
<feOffset dy="2"/>
<feGaussianBlur stdDeviation="2"/>
<feComposite in2="hardAlpha" operator="out"/>
<feColorMatrix type="matrix" values="0 0 0 0 0.00392157 0 0 0 0 0.741176 0 0 0 0 0.0745098 0 0 0 0.9 0"/>
<feBlend mode="normal" in2="BackgroundImageFix" result="effect1_dropShadow_2095_38385"/>
<feBlend mode="normal" in="SourceGraphic" in2="effect1_dropShadow_2095_38385" result="shape"/>
</filter>
<filter id="filter5_d_2095_38385" x="39.8311" y="156.668" width="9.92822" height="9.97266" filterUnits="userSpaceOnUse" color-interpolation-filters="sRGB">
<feFlood flood-opacity="0" result="BackgroundImageFix"/>
<feColorMatrix in="SourceAlpha" type="matrix" values="0 0 0 0 0 0 0 0 0 0 0 0 0 0 0 0 0 0 127 0" result="hardAlpha"/>
<feOffset dy="2"/>
<feGaussianBlur stdDeviation="0.5"/>
<feComposite in2="hardAlpha" operator="out"/>
<feColorMatrix type="matrix" values="0 0 0 0 0.00392157 0 0 0 0 0.741176 0 0 0 0 0.0745098 0 0 0 0.9 0"/>
<feBlend mode="normal" in2="BackgroundImageFix" result="effect1_dropShadow_2095_38385"/>
<feBlend mode="normal" in="SourceGraphic" in2="effect1_dropShadow_2095_38385" result="shape"/>
</filter>
<linearGradient id="paint0_linear_2095_38385" x1="180.616" y1="39.3735" x2="200.856" y2="62.0957" gradientUnits="userSpaceOnUse">
<stop stop-color="#0066FF"/>
<stop offset="1" stop-color="#00A7CC"/>
</linearGradient>
<linearGradient id="paint1_linear_2095_38385" x1="179.694" y1="135.513" x2="195.018" y2="152.524" gradientUnits="userSpaceOnUse">
<stop stop-color="#8F38FD"/>
<stop offset="1" stop-color="#B182FE"/>
</linearGradient>
<linearGradient id="paint2_linear_2095_38385" x1="37.9845" y1="152.084" x2="53.2168" y2="169.037" gradientUnits="userSpaceOnUse">
<stop stop-color="#01BD13"/>
<stop offset="0.988257" stop-color="#35E818"/>
</linearGradient>
<linearGradient id="paint3_linear_2095_38385" x1="211.305" y1="83.1773" x2="218.443" y2="91.285" gradientUnits="userSpaceOnUse">
<stop offset="0.0677083" stop-color="#FF6701"/>
<stop offset="1" stop-color="#FFB800"/>
</linearGradient>
<linearGradient id="paint4_linear_2095_38385" x1="209.237" y1="86.7248" x2="212.906" y2="89.1559" gradientUnits="userSpaceOnUse">
<stop offset="0.0677083" stop-color="#FF6701"/>
<stop offset="1" stop-color="#FFB800"/>
</linearGradient>
</defs>
</svg>
