<svg width="956" height="247" viewBox="0 0 956 247" fill="none" xmlns="http://www.w3.org/2000/svg">
<path d="M91.7523 159.868H52.4129L46.4272 177.971H14L54.4533 67H90.0242L130.321 177.971H97.7172L91.7523 159.868ZM84.0489 136.258L72.0878 100.374L60.2412 136.258H84.0489Z" fill="#FF6600"/>
<path d="M222.388 99.0316C228.377 105.798 231.368 114.952 231.361 126.493V177.971H200.516V130.595C200.516 125.556 199.205 121.594 196.581 118.706C195.244 117.261 193.608 116.125 191.787 115.377C189.965 114.629 188.003 114.287 186.036 114.376C181.414 114.376 177.795 115.819 175.178 118.706C172.562 121.594 171.25 125.556 171.243 130.595V177.971H140.398V89.673H171.254V102.269C174.08 98.1916 177.861 94.8678 182.267 92.5878C187.178 90.057 192.64 88.787 198.164 88.8923C208.338 88.8853 216.412 92.2651 222.388 99.0316Z" fill="#FF6600"/>
<path d="M300.462 151.685V177.971H287.085C264.516 177.971 253.235 166.794 253.242 144.44V115.292H242.416V89.6731H253.242V68.2598H284.243V89.6731H300.296V115.323H284.243V144.95C284.243 147.365 284.795 149.114 285.899 150.155C287.002 151.196 288.865 151.738 291.489 151.738L300.462 151.685Z" fill="#FF6600"/>
<path d="M314.547 109.817C317.493 103.405 322.183 97.9508 328.08 94.0766C333.778 90.4092 340.427 88.4945 347.203 88.5697C352.671 88.4263 358.085 89.669 362.943 92.182C367.183 94.4403 370.722 97.8175 373.176 101.947V89.6732H404.021V177.971H373.176V165.687C370.707 169.833 367.136 173.214 362.86 175.452C358.04 177.946 352.67 179.188 347.245 179.064C340.469 179.139 333.82 177.224 328.122 173.557C322.208 169.67 317.516 164.187 314.589 157.744C311.278 150.874 309.623 142.872 309.623 133.739C309.623 124.606 311.264 116.632 314.547 109.817ZM368.533 120.362C367.051 118.825 365.275 117.602 363.311 116.763C361.347 115.925 359.235 115.489 357.1 115.481C354.965 115.474 352.849 115.894 350.88 116.718C348.91 117.542 347.125 118.753 345.631 120.279C342.585 123.485 341.061 127.972 341.061 133.739C341.061 139.402 342.585 143.888 345.631 147.199C347.071 148.8 348.839 150.072 350.815 150.927C352.792 151.782 354.929 152.201 357.082 152.154C359.228 152.199 361.359 151.786 363.333 150.945C365.307 150.103 367.08 148.851 368.533 147.272C371.628 144.024 373.176 139.513 373.176 133.739C373.176 128.076 371.628 123.617 368.533 120.362Z" fill="#FF6600"/>
<path d="M465.086 93.2854C469.881 90.3885 475.38 88.8652 480.982 88.882V121.778H472.331C465.62 121.778 460.637 123.089 457.383 125.713C454.128 128.336 452.5 132.899 452.5 139.402V177.971H421.645V89.6731H452.5V105.288C455.773 100.42 460.068 96.3236 465.086 93.2854Z" fill="#FF6600"/>
<path d="M562.201 159.868H522.851L516.876 177.971H484.449L524.902 67H560.473L600.76 177.971H568.176L562.201 159.868ZM554.487 136.258L542.526 100.374L530.773 136.258H554.487Z" fill="#969696"/>
<path d="M692.836 99.0316C698.825 105.798 701.816 114.952 701.809 126.493V177.971H670.965V130.595C670.965 125.556 669.649 121.594 667.019 118.706C665.682 117.261 664.046 116.125 662.225 115.377C660.403 114.629 658.441 114.287 656.474 114.376C651.866 114.376 648.247 115.819 645.616 118.706C642.986 121.594 641.674 125.556 641.681 130.595V177.971H610.836V89.673H641.681V102.269C644.511 98.1911 648.296 94.8674 652.705 92.5878C657.616 90.057 663.078 88.787 668.602 88.8923C678.776 88.8853 686.854 92.2651 692.836 99.0316Z" fill="#969696"/>
<path d="M770.901 151.685V177.971H757.524C734.962 177.971 723.681 166.794 723.681 144.44V115.292H712.823V89.6731H723.681V68.2598H754.692V89.6731H770.744V115.323H754.692V144.95C754.692 147.365 755.244 149.114 756.347 150.155C757.451 151.196 759.304 151.738 761.927 151.738L770.901 151.685Z" fill="#969696"/>
<path d="M868.952 140.037H810.563C810.875 144.895 812.214 148.486 814.581 150.811C815.767 151.989 817.181 152.911 818.737 153.522C820.293 154.132 821.957 154.418 823.627 154.361C825.954 154.477 828.261 153.874 830.233 152.633C832.205 151.393 833.748 149.575 834.651 147.428H867.537C866.221 153.403 863.498 158.978 859.594 163.688C855.568 168.535 850.477 172.386 844.718 174.941C838.483 177.727 831.716 179.123 824.887 179.032C816.808 179.185 808.822 177.29 801.673 173.526C794.987 169.923 789.482 164.469 785.818 157.817C781.987 150.995 780.072 142.969 780.072 133.738C780.072 124.508 781.959 116.506 785.735 109.733C789.393 103.111 794.888 97.6882 801.558 94.118C808.778 90.5227 816.73 88.6385 824.796 88.6114C832.862 88.5843 840.826 90.4151 848.07 93.9619C854.694 97.4421 860.162 102.773 863.81 109.306C867.578 115.969 869.466 123.811 869.473 132.833C869.458 135.243 869.285 137.649 868.952 140.037ZM837.951 125.077C838.033 123.406 837.736 121.739 837.081 120.199C836.427 118.66 835.432 117.288 834.173 116.187C831.526 113.994 828.167 112.846 824.731 112.96C821.358 112.834 818.056 113.944 815.445 116.083C813.03 118.165 811.454 121.181 810.719 125.129L837.951 125.077Z" fill="#969696"/>
<path d="M925.458 93.2854C930.256 90.3872 935.759 88.8639 941.364 88.882V121.778H932.703C925.985 121.778 921.002 123.089 917.754 125.713C914.506 128.336 912.879 132.899 912.872 139.402V177.971H882.017V89.6732H912.872V105.288C916.145 100.42 920.44 96.3236 925.458 93.2854Z" fill="#969696"/>
</svg>
