<svg width="1040" height="1040" viewBox="0 0 1040 1040" fill="none" xmlns="http://www.w3.org/2000/svg">
<path d="M422.577 757.395C448.159 757.395 468.898 736.656 468.898 711.073C468.898 685.49 448.159 664.751 422.577 664.751C396.994 664.751 376.255 685.49 376.255 711.073C376.255 736.656 396.994 757.395 422.577 757.395Z" fill="#FF6600"/>
<path d="M485.414 379.064H479.392C477.567 379.064 475.768 378.632 474.143 377.803C472.517 376.973 471.111 375.771 470.041 374.293C468.97 372.815 468.265 371.105 467.983 369.302C467.701 367.499 467.851 365.655 468.42 363.921L471.394 354.79C474.868 344.244 489.792 344.172 493.338 354.717L496.375 363.848C496.951 365.586 497.106 367.435 496.828 369.243C496.551 371.052 495.849 372.77 494.779 374.255C493.709 375.739 492.303 376.949 490.675 377.785C489.047 378.621 487.244 379.059 485.414 379.064Z" fill="url(#paint0_linear_1411_1368)"/>
<path d="M822.904 755.876L787.409 745.112C784.67 744.283 782.176 742.796 780.145 740.78C778.114 738.764 776.609 736.28 775.761 733.547C775.667 733.235 775.563 732.923 775.469 732.611C774.597 729.89 774.404 726.996 774.906 724.183C775.408 721.37 776.59 718.722 778.35 716.47L801.23 687.257C803.573 684.263 804.883 680.591 804.963 676.791C805.044 672.991 803.891 669.266 801.677 666.176L801.137 665.427C798.926 662.348 795.78 660.065 792.167 658.919C788.554 657.772 784.667 657.822 781.085 659.063L749.469 670.024C740.494 673.144 734.452 672.187 729.782 668.703L729.21 668.277C726.869 666.58 724.978 664.338 723.7 661.744C722.422 659.151 721.797 656.285 721.878 653.395L723.209 616.256C723.342 612.46 722.241 608.723 720.072 605.606C717.903 602.488 714.782 600.156 711.177 598.961L710.313 598.67C706.712 597.47 702.819 597.468 699.216 598.664C695.613 599.86 692.494 602.19 690.325 605.305L669.275 635.465C667.589 637.882 665.34 639.852 662.721 641.204C660.103 642.556 657.194 643.249 654.247 643.223H653.925C650.938 643.205 648.001 642.457 645.369 641.045C642.738 639.633 640.491 637.6 638.824 635.122L618.346 604.723C616.27 601.599 613.245 599.225 609.717 597.952C606.189 596.679 602.345 596.573 598.753 597.65L597.265 598.129C593.707 599.303 590.622 601.592 588.466 604.656C586.31 607.72 585.198 611.398 585.295 615.143C585.513 626.25 585.836 642.183 586.033 652.323C586.068 655.204 585.399 658.05 584.083 660.613C582.767 663.176 580.844 665.378 578.483 667.029L577.88 667.466C575.563 669.142 572.871 670.225 570.039 670.62C567.207 671.015 564.322 670.711 561.635 669.733L526.816 657.024C523.238 655.731 519.338 655.626 515.695 656.726C512.053 657.826 508.863 660.071 506.598 663.129L506.047 663.878C503.784 666.931 502.571 670.635 502.59 674.435C502.609 678.236 503.858 681.928 506.151 684.958L528.542 714.536C530.266 716.813 531.407 719.477 531.866 722.295C532.324 725.114 532.087 728.002 531.173 730.708L530.861 731.644C529.969 734.364 528.424 736.823 526.36 738.807C524.297 740.79 521.779 742.237 519.026 743.022L483.375 753.224C479.778 754.219 476.596 756.342 474.296 759.282C471.997 762.221 470.703 765.821 470.604 769.552C470.604 769.854 470.604 770.155 470.604 770.446C470.604 770.738 470.604 771.039 470.604 771.341C470.642 775.07 471.874 778.688 474.121 781.664C476.367 784.641 479.508 786.818 483.084 787.877L518.579 798.641C521.316 799.471 523.808 800.959 525.837 802.975C527.865 804.991 529.369 807.474 530.217 810.206L530.518 811.131C531.381 813.848 531.568 816.735 531.063 819.54C530.557 822.346 529.374 824.986 527.617 827.23L504.737 856.444C502.391 859.436 501.079 863.109 500.998 866.91C500.917 870.711 502.072 874.436 504.289 877.525L504.83 878.274C507.039 881.369 510.193 883.664 513.819 884.814C517.444 885.964 521.344 885.906 524.933 884.649L560.002 872.491C562.706 871.552 565.599 871.291 568.428 871.729C571.256 872.168 573.934 873.294 576.226 875.008L577.006 875.59C579.304 877.271 581.155 879.49 582.397 882.052C583.639 884.613 584.234 887.441 584.13 890.286C583.777 900.363 583.205 916.286 582.809 927.466C582.676 931.259 583.773 934.994 585.939 938.111C588.104 941.229 591.22 943.562 594.821 944.761L595.674 945.042C599.277 946.242 603.172 946.244 606.777 945.048C610.381 943.852 613.502 941.522 615.673 938.406L636.733 908.246C638.414 905.833 640.658 903.866 643.272 902.518C645.886 901.169 648.789 900.48 651.73 900.509H652.073C655.055 900.526 657.989 901.269 660.62 902.673C663.25 904.078 665.5 906.101 667.174 908.569L687.662 938.989C689.787 942.13 692.869 944.502 696.449 945.752C700.03 947.002 703.919 947.063 707.537 945.926L708.389 945.645C712.01 944.506 715.163 942.224 717.378 939.141C719.592 936.059 720.748 932.342 720.672 928.547L719.944 891.378C719.892 888.536 720.534 885.724 721.816 883.186C723.097 880.649 724.978 878.463 727.297 876.818L728.087 876.256C730.404 874.576 733.097 873.49 735.932 873.095C738.766 872.7 741.654 873.007 744.342 873.989L779.297 886.729C782.858 888.024 786.743 888.134 790.373 887.044C794.003 885.953 797.183 883.72 799.441 880.676L799.993 879.938C802.256 876.883 803.469 873.177 803.451 869.375C803.432 865.573 802.182 861.879 799.889 858.846L777.487 829.258C775.762 826.986 774.621 824.326 774.162 821.51C773.704 818.695 773.942 815.81 774.856 813.107C774.97 812.795 775.074 812.483 775.178 812.161C776.07 809.443 777.614 806.985 779.676 805.001C781.737 803.018 784.253 801.57 787.003 800.783L822.997 790.487C826.558 789.482 829.697 787.351 831.947 784.414C834.196 781.476 835.435 777.89 835.477 774.19V772.464C835.446 768.714 834.206 765.074 831.941 762.086C829.675 759.097 826.506 756.919 822.904 755.876Z" stroke="#FF6600" stroke-width="20" stroke-miterlimit="10"/>
<path d="M687.329 828.25H687.153C684.066 828.247 681.058 827.271 678.556 825.463C676.055 823.654 674.187 821.103 673.217 818.172L672.312 815.437C671.846 814.032 670.949 812.809 669.749 811.943C668.548 811.076 667.105 810.611 665.625 810.611H637.441C635.96 810.611 634.517 811.076 633.317 811.943C632.116 812.809 631.219 814.032 630.753 815.437L629.849 818.172C628.57 821.852 625.882 824.873 622.377 826.57C618.871 828.268 614.834 828.504 611.155 827.225C607.475 825.947 604.454 823.259 602.756 819.753C601.059 816.248 600.823 812.211 602.101 808.531L628.413 736.355C630.151 731.579 633.316 727.454 637.479 724.539C641.642 721.623 646.601 720.06 651.683 720.06C656.766 720.06 661.725 721.623 665.888 724.539C670.051 727.454 673.216 731.579 674.953 736.355L701.151 808.521C701.963 810.742 702.227 813.127 701.92 815.472C701.613 817.817 700.744 820.054 699.387 821.991C698.03 823.928 696.225 825.509 694.125 826.598C692.026 827.688 689.695 828.255 687.329 828.25Z" fill="#969696"/>
<path d="M657.19 766.724C656.724 765.32 655.828 764.099 654.628 763.233C653.429 762.368 651.987 761.902 650.508 761.902C649.029 761.902 647.588 762.368 646.388 763.233C645.189 764.099 644.293 765.32 643.826 766.724L642.017 772.329C641.668 773.386 641.575 774.511 641.745 775.611C641.916 776.712 642.345 777.756 642.998 778.657C643.651 779.559 644.509 780.293 645.501 780.798C646.493 781.304 647.591 781.566 648.704 781.564H652.417C653.532 781.564 654.631 781.299 655.624 780.79C656.617 780.282 657.474 779.545 658.126 778.64C658.778 777.735 659.206 776.688 659.374 775.585C659.542 774.483 659.446 773.356 659.094 772.298L657.19 766.724Z" fill="white"/>
<path d="M760.868 365.471C760.868 366.511 760.868 367.551 760.795 368.664C760.749 372.437 759.422 376.082 757.031 379.002C754.641 381.921 751.329 383.942 747.639 384.732L690.658 397.118C687.537 397.788 684.674 399.336 682.405 401.581C680.137 403.826 678.558 406.672 677.855 409.785C677.841 410.003 677.792 410.217 677.71 410.42C677.019 413.518 677.216 416.749 678.28 419.741C679.343 422.732 681.229 425.363 683.721 427.33L729.73 463.22C732.727 465.584 734.836 468.891 735.716 472.605C736.596 476.318 736.194 480.221 734.577 483.677C733.724 485.445 732.871 487.213 732.029 488.877C730.353 492.32 727.552 495.088 724.089 496.722C720.626 498.356 716.709 498.758 712.986 497.863L670.346 487.608L656.338 484.28C653.241 483.547 649.999 483.71 646.992 484.751C643.985 485.791 641.336 487.666 639.354 490.156C639.209 490.292 639.063 490.51 638.928 490.645C636.939 493.125 635.701 496.122 635.362 499.283C635.023 502.444 635.596 505.636 637.014 508.481L662.817 560.752C664.511 564.189 664.984 568.1 664.16 571.843C663.336 575.585 661.263 578.936 658.282 581.344C656.806 582.55 655.245 583.746 653.758 584.952C650.753 587.305 647.04 588.571 643.224 588.545C639.407 588.518 635.712 587.201 632.74 584.807L587.583 548.012C585.12 545.995 582.131 544.728 578.97 544.359C575.808 543.991 572.608 544.536 569.747 545.932C569.529 546.004 569.321 546.15 569.113 546.223C566.248 547.594 563.834 549.754 562.154 552.449C560.474 555.144 559.598 558.262 559.628 561.438L560.262 619.678C560.289 623.505 559.015 627.227 556.649 630.235C554.283 633.243 550.967 635.358 547.241 636.235C545.401 636.661 543.487 637.088 541.573 637.514C537.838 638.341 533.933 637.873 530.499 636.188C527.065 634.502 524.307 631.698 522.677 628.237L506.328 593.345C526.172 555.489 536.496 513.368 536.405 470.625C536.405 461.993 535.989 453.434 535.209 445.01C537.018 445.439 538.872 445.652 540.731 445.644H541.012C544.619 445.653 548.182 444.848 551.437 443.291C554.691 441.734 557.552 439.464 559.809 436.65C562.066 433.836 563.66 430.549 564.473 427.035C565.286 423.52 565.297 419.867 564.505 416.348C564.295 415.336 564.01 414.342 563.653 413.373L531.101 323.767C579.471 310.459 623.056 283.662 656.764 246.505L712.924 233.048C716.648 232.174 720.557 232.588 724.015 234.222C727.473 235.856 730.276 238.613 731.966 242.044C732.809 243.812 733.662 245.507 734.514 247.244C736.135 250.709 736.541 254.619 735.668 258.344C734.794 262.068 732.692 265.39 729.699 267.773L683.721 303.622C681.228 305.589 679.341 308.219 678.278 311.211C677.214 314.202 677.017 317.434 677.71 320.532C677.792 320.735 677.841 320.949 677.855 321.167C678.558 324.28 680.137 327.126 682.405 329.371C684.674 331.616 687.537 333.164 690.658 333.834L747.639 346.22C751.329 347.01 754.641 349.031 757.031 351.95C759.422 354.87 760.749 358.515 760.795 362.288C760.868 363.349 760.868 364.41 760.868 365.471Z" fill="#FF6600"/>
<path d="M485.414 379.064H479.392C477.567 379.064 475.768 378.632 474.143 377.803C472.517 376.973 471.111 375.771 470.041 374.293C468.97 372.815 468.265 371.105 467.983 369.302C467.701 367.499 467.851 365.655 468.42 363.921L471.394 354.79C474.868 344.244 489.792 344.172 493.338 354.717L496.375 363.848C496.951 365.586 497.106 367.435 496.828 369.243C496.551 371.052 495.849 372.77 494.779 374.255C493.709 375.739 492.303 376.949 490.675 377.785C489.047 378.621 487.244 379.059 485.414 379.064Z" fill="url(#paint1_linear_1411_1368)"/>
<path d="M636.941 222.439C635.529 225.288 634.962 228.483 635.309 231.644C635.656 234.805 636.901 237.8 638.897 240.275C639.017 240.456 639.16 240.62 639.323 240.764C641.294 243.267 643.943 245.15 646.953 246.192C649.964 247.234 653.21 247.389 656.306 246.64L656.805 246.505C623.089 283.676 579.489 310.481 531.101 323.787L520.701 295.125C518.143 287.947 513.572 281.657 507.534 277.008C500.43 271.389 491.632 268.343 482.574 268.366C474.24 268.342 466.101 270.892 459.271 275.669C452.441 280.446 447.253 287.215 444.417 295.052L431.042 331.639C396.421 327.77 362.905 317.101 332.418 300.245C301.932 283.388 275.075 260.676 253.389 233.411L308.603 246.64C311.688 247.39 314.924 247.234 317.923 246.192C320.923 245.15 323.558 243.266 325.513 240.764C325.673 240.618 325.816 240.454 325.94 240.275C327.929 237.796 329.167 234.798 329.506 231.637C329.845 228.476 329.272 225.285 327.853 222.439L321.905 210.407L302.03 170.169C300.351 166.723 299.891 162.81 300.726 159.069C301.561 155.328 303.642 151.981 306.627 149.577C308.114 148.371 309.601 147.175 311.161 145.968C314.167 143.61 317.887 142.346 321.707 142.384C325.527 142.422 329.221 143.759 332.18 146.176L377.337 182.909C379.794 184.936 382.784 186.21 385.948 186.579C389.112 186.948 392.315 186.396 395.173 184.989C395.396 184.921 395.609 184.823 395.807 184.698C398.667 183.321 401.077 181.159 402.756 178.466C404.435 175.772 405.314 172.657 405.292 169.483L404.657 111.243C404.629 107.415 405.902 103.692 408.268 100.684C410.634 97.6756 413.952 95.5606 417.678 94.6858L423.263 93.4066C426.998 92.5697 430.908 93.033 434.344 94.7199C437.78 96.4068 440.537 99.2163 442.16 102.683L466.87 155.411C468.264 158.312 470.455 160.757 473.185 162.46C475.916 164.163 479.075 165.055 482.293 165.031H482.501C485.723 165.065 488.887 164.177 491.622 162.473C494.356 160.769 496.546 158.319 497.935 155.411L522.635 102.683C524.265 99.2225 527.023 96.4189 530.457 94.7331C533.892 93.0472 537.797 92.5795 541.532 93.4066C543.445 93.833 545.359 94.2594 547.2 94.6858C550.919 95.5726 554.23 97.6908 556.594 100.697C558.958 103.702 560.236 107.419 560.221 111.243L559.586 169.483C559.544 172.665 560.414 175.793 562.096 178.495C563.777 181.197 566.198 183.361 569.071 184.729C569.267 184.858 569.48 184.956 569.705 185.02C572.563 186.427 575.766 186.979 578.93 186.61C582.094 186.241 585.084 184.967 587.541 182.94L632.657 146.249C635.615 143.832 639.309 142.494 643.129 142.457C646.95 142.419 650.669 143.683 653.675 146.041C655.162 147.247 656.722 148.443 658.199 149.65C661.174 152.045 663.25 155.377 664.089 159.104C664.927 162.83 664.479 166.73 662.817 170.169L640.977 214.265L636.941 222.439Z" fill="#FF6600"/>
<path d="M536.363 470.646C536.454 513.388 526.131 555.509 506.286 593.366L497.966 575.53C496.578 572.622 494.388 570.17 491.654 568.464C488.92 566.758 485.755 565.869 482.533 565.9H482.325C479.106 565.878 475.947 566.772 473.216 568.477C470.485 570.182 468.295 572.628 466.902 575.53L452.03 607.167L442.191 628.258C440.569 631.725 437.811 634.535 434.375 636.222C430.939 637.908 427.03 638.372 423.294 637.535L417.71 636.256C413.978 635.391 410.654 633.279 408.286 630.268C405.918 627.258 404.649 623.529 404.689 619.699L405.323 561.459C405.338 558.286 404.456 555.174 402.778 552.482C401.099 549.789 398.694 547.627 395.838 546.244C395.62 546.171 395.412 546.025 395.204 545.952C392.343 544.557 389.143 544.011 385.981 544.38C382.82 544.749 379.831 546.016 377.368 548.032L332.211 584.828C329.239 587.222 325.544 588.539 321.727 588.565C317.911 588.592 314.198 587.326 311.193 584.973C309.633 583.767 308.146 582.571 306.658 581.364C303.67 578.963 301.587 575.616 300.752 571.874C299.916 568.132 300.378 564.217 302.062 560.772L327.895 508.533C329.313 505.688 329.887 502.496 329.548 499.335C329.208 496.174 327.971 493.177 325.982 490.697C325.836 490.562 325.701 490.344 325.555 490.208C323.59 487.719 320.954 485.844 317.958 484.803C314.962 483.762 311.73 483.598 308.645 484.332L272.245 493.037L251.861 497.915C248.138 498.795 244.227 498.385 240.768 496.753C237.309 495.12 234.506 492.362 232.818 488.929C231.966 487.234 231.186 485.466 230.343 483.729C228.705 480.279 228.29 476.374 229.165 472.657C230.04 468.939 232.153 465.63 235.158 463.272L281.085 427.382C283.609 425.428 285.519 422.788 286.584 419.779C287.65 416.769 287.828 413.517 287.096 410.409C287.082 410.191 287.033 409.977 286.95 409.775C286.272 406.661 284.709 403.809 282.449 401.562C280.189 399.314 277.328 397.768 274.21 397.108L217.239 384.721C213.547 383.922 210.232 381.902 207.83 378.986C205.427 376.07 204.078 372.43 204 368.653V362.278C204.078 358.501 205.427 354.861 207.83 351.945C210.232 349.03 213.547 347.009 217.239 346.21L274.21 333.824C277.328 333.163 280.189 331.617 282.449 329.37C284.709 327.123 286.272 324.271 286.95 321.156C287.033 320.954 287.082 320.74 287.096 320.522C287.819 317.43 287.642 314.196 286.586 311.201C285.53 308.207 283.639 305.577 281.137 303.622L235.138 267.732C232.129 265.377 230.013 262.067 229.138 258.349C228.263 254.63 228.681 250.724 230.322 247.275C231.165 245.507 231.945 243.812 232.798 242.075C234.498 238.653 237.302 235.904 240.757 234.271C244.212 232.639 248.117 232.219 251.84 233.079L253.39 233.443C275.075 260.707 301.932 283.419 332.419 300.276C362.905 317.133 396.421 327.802 431.042 331.671L402.442 410.097L401.246 413.425C400.06 416.686 399.592 420.164 399.874 423.623C400.157 427.081 401.184 430.437 402.885 433.462C404.586 436.486 406.92 439.107 409.729 441.145C412.537 443.184 415.753 444.59 419.155 445.27C420.72 445.555 422.307 445.698 423.898 445.696C428.962 445.704 433.899 444.114 438.007 441.153C442.115 438.191 445.184 434.009 446.778 429.202L448.265 424.751C449.01 422.434 450.475 420.416 452.446 418.989C454.418 417.562 456.793 416.8 459.226 416.816H505.382C507.815 416.8 510.19 417.562 512.161 418.989C514.133 420.416 515.598 422.434 516.343 424.751L517.83 429.202C519.125 433.108 521.399 436.617 524.436 439.394C527.473 442.171 531.171 444.122 535.178 445.062C535.937 453.455 536.363 462.014 536.363 470.646Z" fill="#969696"/>
<path d="M485.414 379.064H479.392C477.567 379.064 475.768 378.632 474.143 377.803C472.517 376.973 471.111 375.771 470.041 374.293C468.97 372.815 468.265 371.105 467.983 369.302C467.701 367.499 467.851 365.655 468.42 363.921L471.394 354.79C474.868 344.244 489.792 344.172 493.338 354.717L496.375 363.848C496.951 365.586 497.106 367.435 496.828 369.243C496.551 371.052 495.849 372.77 494.779 374.255C493.709 375.739 492.303 376.949 490.675 377.785C489.047 378.621 487.244 379.059 485.414 379.064Z" fill="#FF6600"/>
<defs>
<linearGradient id="paint0_linear_1411_1368" x1="467.827" y1="362.954" x2="496.968" y2="362.954" gradientUnits="userSpaceOnUse">
<stop stop-color="#FFF33B"/>
<stop offset="0.04" stop-color="#FEE72E"/>
<stop offset="0.12" stop-color="#FED51B"/>
<stop offset="0.2" stop-color="#FDCA10"/>
<stop offset="0.28" stop-color="#FDC70C"/>
<stop offset="0.67" stop-color="#F3903F"/>
<stop offset="0.89" stop-color="#ED683C"/>
<stop offset="1" stop-color="#E93E3A"/>
</linearGradient>
<linearGradient id="paint1_linear_1411_1368" x1="467.827" y1="362.954" x2="496.968" y2="362.954" gradientUnits="userSpaceOnUse">
<stop stop-color="#FFF33B"/>
<stop offset="0.04" stop-color="#FEE72E"/>
<stop offset="0.12" stop-color="#FED51B"/>
<stop offset="0.2" stop-color="#FDCA10"/>
<stop offset="0.28" stop-color="#FDC70C"/>
<stop offset="0.67" stop-color="#F3903F"/>
<stop offset="0.89" stop-color="#ED683C"/>
<stop offset="1" stop-color="#E93E3A"/>
</linearGradient>
</defs>
</svg>
