<svg width="1040" height="496" viewBox="0 0 1040 496" fill="none" xmlns="http://www.w3.org/2000/svg">
<path d="M149.028 360.234C161.434 360.234 171.492 350.177 171.492 337.77C171.492 325.364 161.434 315.306 149.028 315.306C136.621 315.306 126.564 325.364 126.564 337.77C126.564 350.177 136.621 360.234 149.028 360.234Z" fill="#FF6600"/>
<path d="M179.511 176.726H176.588C175.702 176.726 174.829 176.516 174.04 176.113C173.251 175.71 172.569 175.126 172.05 174.408C171.53 173.691 171.188 172.86 171.051 171.985C170.915 171.11 170.987 170.215 171.263 169.373L172.709 164.943C173.08 163.825 173.794 162.853 174.749 162.164C175.704 161.476 176.851 161.105 178.029 161.105C179.206 161.105 180.354 161.476 181.308 162.164C182.263 162.853 182.977 163.825 183.348 164.943L184.825 169.373C185.098 170.214 185.169 171.108 185.032 171.981C184.895 172.854 184.554 173.683 184.036 174.4C183.518 175.116 182.838 175.701 182.052 176.105C181.265 176.509 180.395 176.722 179.511 176.726Z" fill="url(#paint0_linear_1411_1366)"/>
<path d="M343.217 359.506L325.994 354.306C324.667 353.9 323.459 353.176 322.475 352.198C321.491 351.219 320.76 350.015 320.347 348.69C320.347 348.544 320.254 348.388 320.202 348.243C319.78 346.922 319.687 345.518 319.932 344.153C320.176 342.788 320.751 341.504 321.606 340.412L332.661 326.216C333.799 324.765 334.435 322.984 334.475 321.14C334.514 319.297 333.954 317.491 332.879 315.992L332.619 315.628C331.549 314.129 330.024 313.015 328.27 312.453C326.516 311.891 324.627 311.91 322.885 312.508L307.555 317.823C303.198 319.331 300.275 318.863 298.008 317.188L297.727 316.98C296.591 316.159 295.673 315.071 295.053 313.813C294.433 312.555 294.13 311.165 294.17 309.763L294.815 291.74C294.88 289.901 294.348 288.09 293.298 286.579C292.248 285.068 290.737 283.938 288.991 283.357L288.575 283.212C286.826 282.632 284.937 282.632 283.188 283.213C281.44 283.794 279.926 284.924 278.872 286.436L268.67 301.079C267.853 302.251 266.764 303.206 265.495 303.862C264.227 304.518 262.818 304.855 261.39 304.844H261.244C259.794 304.835 258.368 304.472 257.091 303.787C255.813 303.102 254.722 302.115 253.912 300.912L243.98 286.165C242.972 284.651 241.504 283.5 239.793 282.882C238.082 282.265 236.217 282.212 234.474 282.733L233.757 282.962C232.032 283.535 230.537 284.646 229.492 286.133C228.447 287.62 227.908 289.403 227.954 291.22C228.058 296.607 228.214 304.344 228.307 309.253C228.325 310.651 228.001 312.032 227.363 313.275C226.725 314.519 225.792 315.587 224.646 316.388L224.355 316.596C223.232 317.411 221.926 317.938 220.551 318.13C219.176 318.322 217.776 318.174 216.472 317.698L199.582 311.541C197.852 310.908 195.963 310.849 194.197 311.373C192.43 311.898 190.879 312.978 189.775 314.453L189.505 314.817C188.399 316.292 187.8 318.085 187.8 319.929C187.8 321.772 188.399 323.566 189.505 325.04L200.362 339.392C201.202 340.495 201.757 341.786 201.98 343.154C202.203 344.521 202.087 345.922 201.642 347.234C201.59 347.39 201.538 347.536 201.496 347.692C201.059 349.009 200.308 350.2 199.308 351.162C198.308 352.125 197.088 352.829 195.755 353.214L178.46 358.154C176.707 358.629 175.153 359.657 174.029 361.084C172.905 362.511 172.271 364.263 172.22 366.079V366.516C172.22 366.661 172.22 366.807 172.22 366.942C172.241 368.754 172.843 370.511 173.936 371.956C175.029 373.401 176.556 374.457 178.294 374.971L195.506 380.171C196.833 380.573 198.042 381.293 199.027 382.271C200.011 383.248 200.741 384.452 201.153 385.776C201.205 385.922 201.246 386.078 201.298 386.234C201.722 387.555 201.816 388.959 201.571 390.324C201.326 391.69 200.751 392.974 199.894 394.065L188.808 408.23C187.672 409.684 187.038 411.467 187.001 413.312C186.963 415.157 187.524 416.964 188.6 418.464L188.86 418.828C189.927 420.327 191.451 421.442 193.203 422.004C194.956 422.566 196.844 422.547 198.584 421.948L215.598 416.051C216.911 415.595 218.315 415.469 219.688 415.683C221.06 415.897 222.36 416.445 223.471 417.278L223.846 417.559C224.961 418.372 225.86 419.447 226.462 420.689C227.064 421.932 227.352 423.303 227.298 424.683C227.132 429.571 226.851 437.277 226.664 442.716C226.597 444.557 227.128 446.37 228.178 447.883C229.228 449.396 230.74 450.528 232.488 451.109L232.904 451.244C234.65 451.826 236.538 451.828 238.285 451.249C240.032 450.67 241.544 449.541 242.597 448.031L252.81 433.367C253.629 432.199 254.719 431.247 255.987 430.593C257.255 429.939 258.663 429.603 260.09 429.612H260.256C261.697 429.63 263.112 429.997 264.38 430.682C265.648 431.367 266.731 432.349 267.536 433.544L277.478 448.301C278.508 449.83 280.004 450.984 281.743 451.593C283.482 452.202 285.371 452.233 287.13 451.681L287.546 451.546C289.306 450.992 290.839 449.881 291.914 448.381C292.989 446.88 293.547 445.071 293.505 443.226L293.151 425.192C293.123 423.812 293.434 422.446 294.055 421.213C294.677 419.98 295.592 418.918 296.718 418.12L297.093 417.84C298.218 417.025 299.526 416.499 300.902 416.307C302.279 416.115 303.681 416.262 304.986 416.737L321.907 422.915C323.635 423.546 325.521 423.601 327.282 423.072C329.044 422.544 330.588 421.46 331.683 419.982L331.943 419.618C333.042 418.138 333.631 416.341 333.621 414.498C333.612 412.654 333.005 410.864 331.891 409.395L321.221 395.074C320.384 393.973 319.83 392.683 319.607 391.318C319.384 389.952 319.499 388.553 319.942 387.243L320.098 386.775C320.531 385.457 321.281 384.265 322.282 383.304C323.283 382.343 324.504 381.642 325.838 381.263L343.3 376.271C345.02 375.776 346.535 374.74 347.62 373.316C348.705 371.893 349.302 370.157 349.322 368.367V367.524C349.303 365.709 348.698 363.948 347.598 362.503C346.499 361.059 344.962 360.007 343.217 359.506Z" stroke="#FF6600" stroke-width="7" stroke-miterlimit="10"/>
<path d="M277.458 394.606H277.364C275.866 394.607 274.406 394.134 273.192 393.257C271.978 392.379 271.073 391.141 270.604 389.718L270.167 388.397C269.941 387.715 269.506 387.121 268.923 386.699C268.341 386.277 267.641 386.049 266.922 386.047H253.246C252.528 386.049 251.828 386.277 251.245 386.699C250.663 387.121 250.228 387.715 250.002 388.397L249.565 389.759C249.257 390.643 248.779 391.458 248.157 392.156C247.535 392.855 246.781 393.425 245.939 393.832C245.097 394.24 244.183 394.477 243.249 394.532C242.315 394.586 241.38 394.456 240.496 394.148C239.612 393.841 238.798 393.363 238.099 392.741C237.4 392.119 236.831 391.365 236.423 390.523C236.016 389.681 235.778 388.767 235.724 387.833C235.67 386.899 235.8 385.963 236.107 385.079L248.868 350.073C249.71 347.756 251.246 345.754 253.265 344.339C255.285 342.924 257.691 342.165 260.157 342.165C262.623 342.165 265.029 342.924 267.049 344.339C269.069 345.754 270.604 347.756 271.446 350.073L284.155 385.079C284.54 386.154 284.661 387.305 284.508 388.436C284.355 389.568 283.933 390.645 283.276 391.579C282.62 392.513 281.749 393.275 280.736 393.802C279.723 394.329 278.599 394.604 277.458 394.606Z" fill="#969696"/>
<path d="M262.835 364.8C262.61 364.118 262.176 363.525 261.595 363.104C261.013 362.683 260.313 362.457 259.596 362.457C258.878 362.457 258.178 362.683 257.597 363.104C257.015 363.525 256.581 364.118 256.356 364.8L255.462 367.493C255.294 368.006 255.251 368.552 255.334 369.085C255.418 369.618 255.627 370.123 255.943 370.56C256.259 370.997 256.675 371.354 257.155 371.599C257.635 371.845 258.167 371.974 258.706 371.976H260.495C261.036 371.976 261.569 371.847 262.05 371.6C262.531 371.354 262.947 370.996 263.263 370.557C263.579 370.119 263.786 369.611 263.867 369.076C263.948 368.542 263.901 367.996 263.73 367.483L262.835 364.8Z" fill="white"/>
<path d="M313.13 170.132C313.13 170.642 313.13 171.172 313.13 171.672C313.109 173.504 312.465 175.274 311.305 176.691C310.144 178.109 308.536 179.089 306.744 179.472L279.111 185.472C277.594 185.797 276.201 186.548 275.096 187.637C273.991 188.725 273.219 190.107 272.871 191.619C272.866 191.725 272.845 191.83 272.809 191.931C272.474 193.434 272.57 195.001 273.085 196.452C273.6 197.904 274.514 199.181 275.721 200.136L298.039 217.546C299.489 218.695 300.509 220.299 300.934 222.1C301.359 223.901 301.163 225.792 300.379 227.468L299.142 230.005C298.329 231.675 296.97 233.017 295.291 233.809C293.612 234.601 291.712 234.797 289.907 234.363L269.221 229.381L262.43 227.769C260.918 227.409 259.335 227.488 257.867 227.997C256.399 228.505 255.106 229.422 254.141 230.64C254.079 230.712 254.006 230.816 253.943 230.879C252.979 232.082 252.379 233.536 252.213 235.069C252.047 236.602 252.323 238.15 253.007 239.532L265.539 264.877C266.361 266.543 266.591 268.439 266.192 270.253C265.794 272.068 264.789 273.692 263.345 274.86C262.627 275.443 261.868 276.025 261.151 276.618C259.691 277.758 257.889 278.37 256.037 278.357C254.185 278.344 252.392 277.706 250.948 276.545L229.046 258.72C227.847 257.748 226.396 257.139 224.863 256.964C223.331 256.789 221.78 257.055 220.393 257.732C220.289 257.732 220.185 257.836 220.091 257.867C218.701 258.533 217.53 259.581 216.714 260.889C215.898 262.196 215.471 263.71 215.484 265.251L215.796 293.497C215.809 295.354 215.191 297.16 214.044 298.62C212.898 300.08 211.29 301.108 209.483 301.536L206.727 302.15C204.917 302.551 203.024 302.325 201.359 301.509C199.694 300.693 198.356 299.334 197.565 297.657L189.64 280.726C199.252 262.358 204.249 241.927 204.2 221.197C204.2 217.036 204.006 212.894 203.618 208.768C204.497 208.978 205.397 209.083 206.301 209.08H206.436C208.19 209.09 209.924 208.704 211.508 207.951C213.092 207.198 214.485 206.098 215.585 204.731C216.684 203.365 217.462 201.768 217.858 200.059C218.255 198.351 218.261 196.575 217.876 194.864C217.771 194.376 217.632 193.897 217.46 193.428L201.621 149.904C225.086 143.462 246.235 130.477 262.596 112.464L289.855 105.933C291.661 105.51 293.558 105.711 295.235 106.505C296.912 107.298 298.271 108.636 299.09 110.301C299.495 111.154 299.911 111.976 300.327 112.839C301.112 114.52 301.307 116.415 300.883 118.221C300.458 120.027 299.439 121.637 297.987 122.792L275.7 140.16C274.493 141.116 273.579 142.392 273.064 143.844C272.549 145.295 272.454 146.862 272.788 148.365C272.825 148.462 272.846 148.564 272.851 148.667C273.198 150.179 273.97 151.56 275.075 152.649C276.18 153.738 277.573 154.489 279.091 154.813L306.661 160.793C308.452 161.173 310.06 162.152 311.22 163.568C312.381 164.984 313.025 166.752 313.047 168.583C313.13 169.103 313.13 169.612 313.13 170.132Z" fill="#FF6600"/>
<path d="M179.511 176.726H176.588C175.702 176.726 174.829 176.516 174.04 176.113C173.251 175.71 172.569 175.126 172.05 174.408C171.53 173.691 171.188 172.86 171.051 171.985C170.915 171.11 170.987 170.215 171.263 169.373L172.709 164.943C173.08 163.825 173.794 162.853 174.749 162.164C175.704 161.476 176.851 161.105 178.029 161.105C179.206 161.105 180.354 161.476 181.308 162.164C182.263 162.853 182.977 163.825 183.348 164.943L184.825 169.373C185.098 170.214 185.169 171.108 185.032 171.981C184.895 172.854 184.554 173.683 184.036 174.4C183.518 175.116 182.838 175.701 182.052 176.105C181.265 176.509 180.395 176.722 179.511 176.726Z" fill="url(#paint1_linear_1411_1366)"/>
<path d="M253.007 100.744C252.323 102.125 252.047 103.674 252.213 105.207C252.379 106.74 252.979 108.193 253.943 109.396C253.999 109.484 254.065 109.565 254.141 109.636C255.098 110.851 256.384 111.766 257.846 112.271C259.308 112.776 260.885 112.851 262.388 112.485L262.627 112.423C246.266 130.435 225.118 143.421 201.652 149.863L196.608 136C195.219 132.204 192.7 128.926 189.39 126.607C186.079 124.288 182.138 123.04 178.096 123.031C174.056 123.025 170.113 124.267 166.806 126.589C163.5 128.91 160.992 132.197 159.626 136L153.136 153.68C136.343 151.803 120.087 146.627 105.3 138.449C90.5136 130.271 77.4882 119.253 66.9722 106.027L93.7418 112.444C95.2387 112.81 96.8094 112.736 98.2652 112.23C99.7209 111.724 101 110.809 101.947 109.594C102.03 109.526 102.1 109.446 102.155 109.355C103.118 108.151 103.716 106.696 103.88 105.163C104.044 103.631 103.767 102.083 103.081 100.702L100.2 94.8677L90.549 75.4093C89.7388 73.7355 89.5188 71.8369 89.9248 70.0223C90.3308 68.2077 91.3388 66.5838 92.785 65.4149C93.5026 64.8325 94.2306 64.2501 94.9794 63.6677C96.4397 62.5255 98.2449 61.9136 100.099 61.9325C101.953 61.9514 103.745 62.5999 105.182 63.7717L127.084 81.5869C128.273 82.5749 129.722 83.1986 131.257 83.3831C132.792 83.5676 134.348 83.305 135.737 82.6269C135.844 82.5969 135.945 82.5514 136.039 82.4917C137.427 81.8237 138.597 80.7751 139.413 79.4678C140.229 78.1606 140.656 76.6485 140.646 75.1077L140.334 46.8509C140.322 44.9942 140.942 43.1887 142.091 41.7301C143.239 40.2715 144.849 39.2461 146.657 38.822L149.361 38.1981C151.174 37.791 153.072 38.0155 154.74 38.8344C156.409 39.6534 157.747 41.0177 158.534 42.7012L170.515 68.2749C171.19 69.6817 172.252 70.8675 173.576 71.6943C174.9 72.521 176.431 72.9545 177.992 72.9445H178.096C179.659 72.9578 181.193 72.5257 182.519 71.6987C183.845 70.8717 184.909 69.6841 185.584 68.2749L197.565 42.7012C198.353 41.021 199.69 39.6594 201.355 38.8408C203.021 38.0222 204.916 37.7955 206.727 38.1981L209.483 38.822C211.286 39.2533 212.891 40.2808 214.037 41.7381C215.182 43.1954 215.802 44.997 215.796 46.8509L215.484 75.1077C215.467 76.6498 215.892 78.1645 216.709 79.4729C217.525 80.7813 218.699 81.8288 220.091 82.4917C220.185 82.5514 220.286 82.5969 220.393 82.6269C221.782 83.305 223.338 83.5676 224.873 83.3831C226.408 83.1986 227.857 82.5749 229.046 81.5869L250.948 63.7717C252.385 62.5999 254.177 61.9514 256.031 61.9325C257.885 61.9136 259.69 62.5255 261.151 63.6677C261.868 64.2501 262.627 64.8325 263.345 65.4149C264.789 66.5859 265.792 68.2124 266.191 70.0281C266.589 71.8438 266.36 73.7411 265.539 75.4093L254.973 96.8021L253.007 100.744Z" fill="#FF6600"/>
<path d="M204.221 221.144C204.27 241.875 199.273 262.306 189.661 280.674L185.605 272.021C184.929 270.613 183.865 269.427 182.539 268.602C181.213 267.777 179.679 267.347 178.117 267.362H178.013C176.453 267.351 174.922 267.783 173.599 268.608C172.275 269.433 171.213 270.616 170.535 272.021L163.328 287.372L158.554 297.605C157.764 299.286 156.425 300.647 154.757 301.463C153.09 302.28 151.194 302.504 149.382 302.098L146.678 301.484C144.866 301.063 143.253 300.038 142.103 298.576C140.954 297.114 140.337 295.305 140.354 293.445L140.666 265.199C140.672 263.659 140.242 262.149 139.427 260.843C138.612 259.536 137.445 258.487 136.059 257.815C135.966 257.815 135.862 257.711 135.758 257.68C134.371 257.003 132.82 256.737 131.287 256.912C129.754 257.087 128.303 257.696 127.105 258.668L105.202 276.524C103.759 277.685 101.966 278.323 100.114 278.336C98.262 278.35 96.4599 277.737 95 276.597L92.8056 274.84C91.3572 273.675 90.3472 272.053 89.941 270.239C89.5348 268.425 89.7564 266.527 90.5696 264.856L103.05 239.511C103.736 238.13 104.013 236.582 103.849 235.049C103.685 233.517 103.087 232.062 102.124 230.858C102.062 230.796 101.989 230.692 101.916 230.619C100.96 229.414 99.6805 228.506 98.2274 228.001C96.7743 227.497 95.2076 227.416 93.7104 227.769L76.0304 231.992L66.14 234.363C64.3346 234.791 62.4375 234.593 60.7595 233.801C59.0815 233.009 57.7223 231.671 56.9048 230.005C56.4888 229.184 56.1144 228.32 55.6984 227.468C54.9117 225.787 54.7209 223.889 55.1576 222.085C55.5943 220.282 56.6324 218.681 58.1008 217.546L80.3776 200.136C81.5996 199.192 82.5246 197.917 83.0427 196.462C83.5608 195.008 83.6501 193.435 83.3 191.931C83.2957 191.823 83.271 191.717 83.2272 191.619C82.8973 190.109 82.1391 188.726 81.0435 187.636C79.9478 186.546 78.5612 185.795 77.0496 185.472L49.4272 179.472C47.6348 179.084 46.0255 178.103 44.8593 176.688C43.6931 175.272 43.038 173.505 43 171.672V168.552C43.0367 166.719 43.6914 164.952 44.8581 163.538C46.0247 162.124 47.6348 161.146 49.4272 160.762L77.06 154.751C78.5716 154.429 79.9582 153.677 81.0539 152.587C82.1495 151.497 82.9077 150.114 83.2376 148.604C83.2801 148.509 83.3048 148.407 83.3104 148.303C83.646 146.812 83.5536 145.257 83.044 143.816C82.5343 142.375 81.6281 141.108 80.4296 140.16L58.1008 122.719C56.6414 121.577 55.6145 119.972 55.1892 118.169C54.7638 116.365 54.9654 114.471 55.7608 112.797C56.1768 111.934 56.5512 111.112 56.9672 110.26C57.7918 108.6 59.1515 107.266 60.827 106.473C62.5025 105.681 64.3961 105.476 66.2024 105.892L66.9616 106.068C77.4826 119.288 90.5113 130.299 105.3 138.47C120.088 146.64 136.345 151.809 153.136 153.68L139.273 191.712L138.69 193.335C138.112 194.917 137.882 196.606 138.018 198.286C138.153 199.965 138.651 201.595 139.476 203.064C140.301 204.534 141.434 205.807 142.797 206.797C144.161 207.787 145.722 208.47 147.374 208.8C148.133 208.938 148.902 209.007 149.673 209.008C152.127 209.01 154.519 208.238 156.51 206.802C158.5 205.366 159.987 203.34 160.759 201.01L161.487 198.847C161.852 197.726 162.563 196.75 163.518 196.058C164.473 195.367 165.623 194.996 166.802 194.999H189.193C190.372 194.996 191.521 195.367 192.476 196.058C193.431 196.75 194.142 197.726 194.507 198.847L195.235 201.01C195.861 202.903 196.962 204.604 198.434 205.95C199.905 207.295 201.697 208.241 203.638 208.696C204.027 212.8 204.221 216.95 204.221 221.144Z" fill="#969696"/>
<path d="M179.511 176.726H176.588C175.702 176.726 174.829 176.516 174.04 176.113C173.251 175.71 172.569 175.126 172.05 174.408C171.53 173.691 171.188 172.86 171.051 171.985C170.915 171.11 170.987 170.215 171.263 169.373L172.709 164.943C173.08 163.825 173.794 162.853 174.749 162.164C175.704 161.476 176.851 161.105 178.029 161.105C179.206 161.105 180.354 161.476 181.308 162.164C182.263 162.853 182.977 163.825 183.348 164.943L184.825 169.373C185.098 170.214 185.169 171.108 185.032 171.981C184.895 172.854 184.554 173.683 184.036 174.4C183.518 175.116 182.838 175.701 182.052 176.105C181.265 176.509 180.395 176.722 179.511 176.726Z" fill="#FF6600"/>
<path d="M406.636 253.208H379.284L375.124 265.792H352.577L380.657 188.644H405.461L433.437 265.792H410.796L406.636 253.208ZM401.301 236.796L392.981 211.836L384.775 236.796H401.301Z" fill="#FF6600"/>
<path d="M497.449 210.88C501.609 215.594 503.689 221.959 503.689 229.974V265.792H482.244V232.855C482.244 229.35 481.329 226.615 479.509 224.597C478.578 223.593 477.441 222.803 476.175 222.283C474.909 221.762 473.545 221.522 472.177 221.581C470.775 221.506 469.374 221.738 468.07 222.258C466.766 222.779 465.591 223.577 464.627 224.597C462.796 226.604 461.891 229.35 461.891 232.855V265.792H440.447V204.432H461.891V213.188C463.859 210.357 466.486 208.048 469.546 206.46C472.96 204.697 476.76 203.814 480.601 203.891C487.673 203.87 493.289 206.2 497.449 210.88Z" fill="#FF6600"/>
<path d="M551.716 247.519V265.792H542.418C526.735 265.792 518.894 258.023 518.894 242.485V222.236H511.343V204.4H518.894V189.528H540.453V204.4H551.612V222.236H540.453V242.808C540.391 243.457 540.461 244.112 540.657 244.733C540.854 245.355 541.173 245.931 541.597 246.427C542.711 247.264 544.099 247.654 545.486 247.519H551.716Z" fill="#FF6600"/>
<path d="M561.513 218.409C563.563 213.953 566.825 210.162 570.925 207.468C574.882 204.907 579.503 203.562 584.216 203.6C588.017 203.499 591.782 204.365 595.157 206.116C598.106 207.68 600.567 210.026 602.27 212.897V204.359H623.715V265.719H602.27V257.18C600.559 260.063 598.077 262.411 595.105 263.961C591.745 265.704 588 266.57 584.216 266.478C579.506 266.533 574.884 265.202 570.925 262.651C566.813 259.948 563.55 256.137 561.513 251.658C559.247 246.403 558.079 240.741 558.079 235.018C558.079 229.295 559.247 223.633 561.513 218.378V218.409ZM599.046 225.741C598.016 224.673 596.781 223.822 595.415 223.239C594.05 222.656 592.581 222.354 591.096 222.349C589.611 222.344 588.141 222.637 586.771 223.211C585.402 223.785 584.162 224.627 583.124 225.689C581.002 227.915 579.945 231.035 579.952 235.049C579.959 239.064 581.016 242.184 583.124 244.409C584.128 245.526 585.362 246.411 586.74 247.005C588.119 247.6 589.61 247.888 591.111 247.852C592.598 247.88 594.075 247.592 595.443 247.008C596.811 246.424 598.039 245.556 599.046 244.461C601.203 242.208 602.277 239.088 602.27 235.101C602.263 231.115 601.189 227.995 599.046 225.741Z" fill="#FF6600"/>
<path d="M666.168 206.917C669.504 204.905 673.328 203.847 677.223 203.86V226.74H671.202C666.529 226.74 663.062 227.651 660.802 229.475C658.541 231.298 657.415 234.46 657.422 238.96V265.792H635.967V204.432H657.422V215.268C659.69 211.878 662.676 209.027 666.168 206.917Z" fill="#FF6600"/>
<path d="M733.685 253.208H706.323L702.163 265.792H679.626L707.706 188.644H732.437L760.444 265.792H737.835L733.685 253.208ZM728.319 236.796L719.999 211.836L711.783 236.796H728.319Z" fill="#969696"/>
<path d="M824.498 210.88C828.658 215.594 830.738 221.959 830.738 229.974V265.792H809.282V232.855C809.282 229.35 808.378 226.615 806.558 224.597C805.633 223.6 804.504 222.814 803.247 222.294C801.991 221.773 800.637 221.53 799.278 221.581C797.876 221.506 796.474 221.738 795.171 222.258C793.867 222.779 792.692 223.577 791.727 224.597C789.897 226.604 788.992 229.35 788.992 232.855V265.792H767.485V204.432H788.94V213.188C790.905 210.355 793.533 208.045 796.595 206.46C800.009 204.697 803.808 203.814 807.65 203.891C814.722 203.87 820.338 206.2 824.498 210.88Z" fill="#969696"/>
<path d="M878.765 247.519V265.792H869.467C853.784 265.792 845.942 258.023 845.942 242.485V222.236H838.392V204.4H845.942V189.528H867.502V204.4H878.661V222.236H867.502V242.808C867.438 243.457 867.506 244.112 867.703 244.734C867.9 245.357 868.22 245.932 868.646 246.427C869.76 247.264 871.148 247.654 872.535 247.519H878.765Z" fill="#969696"/>
<path d="M946.937 239.417H906.377C906.606 242.776 907.531 245.272 909.174 246.916C909.999 247.734 910.983 248.376 912.065 248.8C913.147 249.224 914.305 249.421 915.466 249.38C917.082 249.459 918.682 249.039 920.051 248.178C921.421 247.316 922.492 246.055 923.121 244.565H946.001C945.087 248.726 943.194 252.609 940.478 255.891C937.679 259.257 934.141 261.933 930.141 263.712C925.382 265.74 920.236 266.703 915.066 266.532C909.895 266.361 904.825 265.062 900.21 262.724C895.514 260.231 891.641 256.431 889.061 251.783C886.452 246.598 885.093 240.874 885.093 235.07C885.093 229.266 886.452 223.542 889.061 218.357C891.599 213.74 895.421 209.958 900.064 207.468C905.082 204.969 910.608 203.659 916.214 203.641C921.819 203.623 927.354 204.897 932.387 207.364C936.994 209.781 940.799 213.484 943.338 218.024C946.064 223.038 947.43 228.678 947.301 234.384C947.289 236.068 947.167 237.749 946.937 239.417ZM925.378 229.017C925.436 227.855 925.23 226.695 924.776 225.623C924.322 224.551 923.632 223.596 922.757 222.829C920.911 221.308 918.574 220.513 916.184 220.593C913.853 220.481 911.562 221.22 909.736 222.673C907.93 224.315 906.765 226.545 906.45 228.965L925.378 229.017Z" fill="#969696"/>
<path d="M986.218 206.917C989.537 204.912 993.343 203.855 997.221 203.86V226.74H991.21C986.537 226.74 983.07 227.651 980.81 229.475C978.549 231.298 977.433 234.46 977.461 238.96V265.792H956.016V204.432H977.461V215.268C979.736 211.88 982.725 209.029 986.218 206.917Z" fill="#969696"/>
<defs>
<linearGradient id="paint0_linear_1411_1366" x1="170.983" y1="168.905" x2="185.116" y2="168.905" gradientUnits="userSpaceOnUse">
<stop stop-color="#FFF33B"/>
<stop offset="0.04" stop-color="#FEE72E"/>
<stop offset="0.12" stop-color="#FED51B"/>
<stop offset="0.2" stop-color="#FDCA10"/>
<stop offset="0.28" stop-color="#FDC70C"/>
<stop offset="0.67" stop-color="#F3903F"/>
<stop offset="0.89" stop-color="#ED683C"/>
<stop offset="1" stop-color="#E93E3A"/>
</linearGradient>
<linearGradient id="paint1_linear_1411_1366" x1="170.983" y1="168.905" x2="185.116" y2="168.905" gradientUnits="userSpaceOnUse">
<stop stop-color="#FFF33B"/>
<stop offset="0.04" stop-color="#FEE72E"/>
<stop offset="0.12" stop-color="#FED51B"/>
<stop offset="0.2" stop-color="#FDCA10"/>
<stop offset="0.28" stop-color="#FDC70C"/>
<stop offset="0.67" stop-color="#F3903F"/>
<stop offset="0.89" stop-color="#ED683C"/>
<stop offset="1" stop-color="#E93E3A"/>
</linearGradient>
</defs>
</svg>
