<svg width="1040" height="1041" viewBox="0 0 1040 1041" fill="none" xmlns="http://www.w3.org/2000/svg">
<path d="M451.731 543.891C469.583 543.891 484.054 529.42 484.054 511.568C484.054 493.717 469.583 479.245 451.731 479.245C433.879 479.245 419.408 493.717 419.408 511.568C419.408 529.42 433.879 543.891 451.731 543.891Z" fill="#FF6600"/>
<path d="M495.557 279.904H491.393C490.119 279.905 488.864 279.604 487.729 279.025C486.594 278.447 485.613 277.608 484.865 276.577C484.118 275.545 483.625 274.352 483.428 273.094C483.231 271.835 483.335 270.548 483.731 269.338L485.813 262.967C486.344 261.36 487.367 259.962 488.737 258.968C490.107 257.975 491.754 257.437 493.446 257.431C495.138 257.426 496.789 257.952 498.165 258.936C499.542 259.92 500.574 261.312 501.116 262.915L503.198 269.286C503.599 270.497 503.708 271.787 503.515 273.049C503.322 274.31 502.832 275.508 502.087 276.544C501.341 277.58 500.361 278.425 499.226 279.009C498.091 279.593 496.833 279.9 495.557 279.904Z" fill="url(#paint0_linear_1411_1367)"/>
<path d="M731.052 542.829L706.287 535.313C704.376 534.736 702.637 533.699 701.221 532.292C699.805 530.885 698.756 529.152 698.167 527.246C698.094 527.027 698.021 526.819 697.959 526.6C697.34 524.696 697.2 522.668 697.55 520.697C697.9 518.725 698.731 516.87 699.968 515.295L715.926 494.912C717.559 492.822 718.471 490.26 718.526 487.608C718.58 484.956 717.774 482.358 716.228 480.203L715.853 479.672C714.312 477.523 712.116 475.93 709.595 475.13C707.073 474.331 704.361 474.369 701.862 475.237L679.814 482.93C673.568 485.096 669.331 484.429 666.083 482.004L665.677 481.712C664.042 480.525 662.721 478.955 661.831 477.141C660.94 475.327 660.506 473.323 660.566 471.302L661.482 445.381C661.58 442.741 660.822 440.14 659.322 437.966C657.821 435.792 655.657 434.161 653.154 433.316L652.561 433.118C650.047 432.282 647.33 432.281 644.816 433.116C642.302 433.951 640.125 435.577 638.611 437.751L623.923 458.821C622.747 460.507 621.178 461.881 619.351 462.825C617.525 463.768 615.496 464.252 613.44 464.234H613.19C611.106 464.217 609.058 463.692 607.222 462.706C605.386 461.719 603.819 460.3 602.655 458.571L588.373 437.366C586.92 435.184 584.803 433.528 582.336 432.643C579.868 431.758 577.181 431.691 574.673 432.452L573.632 432.775C571.154 433.6 569.006 435.2 567.507 437.339C566.007 439.477 565.235 442.042 565.304 444.653C565.46 452.408 565.679 463.537 565.814 470.594C565.843 472.606 565.378 474.593 564.459 476.383C563.541 478.172 562.197 479.709 560.547 480.859L560.13 481.161C558.513 482.33 556.635 483.085 554.659 483.361C552.683 483.637 550.669 483.425 548.794 482.743L524.497 473.874C522.01 472.961 519.296 472.874 516.756 473.624C514.215 474.374 511.984 475.921 510.391 478.038L510.006 478.558C508.426 480.688 507.579 483.273 507.592 485.925C507.605 488.577 508.478 491.153 510.079 493.267L525.694 513.9C526.899 515.49 527.696 517.351 528.015 519.32C528.334 521.289 528.167 523.306 527.526 525.195L527.308 525.84C526.687 527.737 525.611 529.453 524.174 530.838C522.736 532.223 520.982 533.234 519.063 533.783L494.183 540.893C491.664 541.591 489.437 543.081 487.832 545.144C486.227 547.206 485.329 549.731 485.272 552.344C485.272 552.552 485.272 552.761 485.272 552.969V553.593C485.299 556.198 486.161 558.725 487.732 560.803C489.302 562.881 491.497 564.401 493.996 565.138L518.761 572.644C520.67 573.224 522.407 574.263 523.823 575.669C525.238 577.075 526.288 578.806 526.881 580.711C526.954 580.93 527.016 581.149 527.089 581.357C527.699 583.257 527.835 585.278 527.485 587.244C527.135 589.209 526.309 591.058 525.08 592.631L509.09 613.003C507.454 615.091 506.539 617.654 506.483 620.306C506.427 622.958 507.232 625.557 508.778 627.713L509.153 628.233C510.694 630.383 512.889 631.977 515.41 632.778C517.931 633.579 520.644 633.544 523.144 632.678L547.607 624.194C549.492 623.538 551.51 623.354 553.483 623.659C555.456 623.963 557.324 624.748 558.923 625.943L559.474 626.349C561.075 627.524 562.363 629.073 563.229 630.86C564.094 632.647 564.51 634.618 564.44 636.603C564.19 643.64 563.795 654.716 563.514 662.544C563.431 665.186 564.204 667.784 565.718 669.951C567.232 672.117 569.405 673.737 571.914 674.568L572.508 674.776C575.021 675.613 577.738 675.614 580.253 674.779C582.767 673.944 584.943 672.318 586.457 670.144L601.156 649.064C602.322 647.386 603.879 646.017 605.693 645.075C607.507 644.134 609.523 643.649 611.566 643.661H611.805C613.889 643.676 615.937 644.198 617.773 645.183C619.608 646.168 621.176 647.586 622.34 649.313L636.633 670.539C638.115 672.738 640.267 674.399 642.77 675.273C645.273 676.148 647.992 676.189 650.52 675.39L651.124 675.203C653.648 674.406 655.847 672.813 657.391 670.663C658.936 668.512 659.742 665.92 659.691 663.273L659.171 637.331C659.132 635.344 659.58 633.376 660.477 631.602C661.373 629.827 662.69 628.299 664.314 627.15L664.855 626.755C666.472 625.582 668.352 624.824 670.331 624.548C672.309 624.272 674.326 624.486 676.202 625.173L700.634 634.094C703.113 635.006 705.819 635.093 708.351 634.343C710.883 633.592 713.106 632.045 714.688 629.93L715.073 629.409C716.653 627.279 717.5 624.695 717.487 622.043C717.473 619.391 716.601 616.814 715 614.7L699.385 594.047C698.17 592.458 697.363 590.596 697.037 588.623C696.71 586.649 696.873 584.626 697.511 582.731C697.594 582.512 697.667 582.283 697.74 582.065C698.361 580.169 699.438 578.455 700.875 577.072C702.312 575.689 704.067 574.68 705.985 574.132L731.104 566.949C733.583 566.239 735.766 564.749 737.331 562.699C738.895 560.649 739.756 558.15 739.786 555.571V554.364C739.758 551.759 738.894 549.233 737.321 547.156C735.749 545.08 733.551 543.563 731.052 542.829V542.829Z" stroke="#FF6600" stroke-width="9" stroke-miterlimit="10"/>
<path d="M636.456 593.37H636.332C634.176 593.368 632.075 592.687 630.328 591.424C628.581 590.16 627.276 588.379 626.598 586.333L625.974 584.428C625.648 583.447 625.023 582.594 624.186 581.989C623.349 581.384 622.343 581.057 621.31 581.055H601.645C600.612 581.055 599.605 581.381 598.768 581.987C597.931 582.592 597.306 583.446 596.982 584.428L596.347 586.333C595.938 587.645 595.269 588.861 594.381 589.909C593.492 590.958 592.402 591.817 591.175 592.436C589.948 593.055 588.609 593.421 587.238 593.512C585.867 593.603 584.492 593.418 583.193 592.967C581.895 592.516 580.701 591.809 579.682 590.887C578.662 589.966 577.838 588.849 577.259 587.603C576.68 586.356 576.357 585.007 576.31 583.633C576.263 582.26 576.492 580.891 576.984 579.608L595.347 529.255C596.557 525.92 598.765 523.039 601.669 521.004C604.574 518.968 608.035 517.875 611.582 517.875C615.129 517.875 618.59 518.968 621.494 521.004C624.399 523.039 626.606 525.92 627.816 529.255L646.096 579.608C646.66 581.157 646.842 582.82 646.627 584.455C646.412 586.089 645.806 587.648 644.86 588.999C643.914 590.349 642.656 591.452 641.193 592.213C639.73 592.974 638.105 593.371 636.456 593.37Z" fill="#969696"/>
<path d="M615.428 550.397C615.113 549.402 614.489 548.533 613.647 547.916C612.805 547.299 611.788 546.967 610.744 546.967C609.7 546.967 608.683 547.299 607.84 547.916C606.998 548.533 606.374 549.402 606.059 550.397L604.862 554.291C604.618 555.028 604.553 555.813 604.671 556.581C604.79 557.348 605.089 558.077 605.545 558.706C606 559.336 606.599 559.848 607.291 560.2C607.983 560.553 608.749 560.736 609.526 560.735H612.097C612.874 560.735 613.64 560.551 614.332 560.197C615.024 559.843 615.622 559.329 616.076 558.699C616.531 558.069 616.829 557.339 616.946 556.571C617.063 555.803 616.996 555.018 616.75 554.28L615.428 550.397Z" fill="white"/>
<path d="M687.778 270.42C687.778 271.17 687.778 271.909 687.778 272.648C687.745 275.283 686.818 277.828 685.147 279.866C683.477 281.903 681.163 283.312 678.585 283.86L638.778 292.521C636.601 292.99 634.604 294.071 633.022 295.637C631.44 297.202 630.338 299.188 629.846 301.359C629.836 301.513 629.801 301.664 629.742 301.807C629.257 303.967 629.39 306.22 630.127 308.308C630.863 310.396 632.173 312.234 633.906 313.612L666 338.648C668.089 340.292 669.563 342.595 670.18 345.181C670.798 347.768 670.525 350.487 669.404 352.899C668.81 354.127 668.217 355.366 667.624 356.553C666.452 358.951 664.496 360.877 662.081 362.012C659.666 363.148 656.935 363.426 654.341 362.799L624.558 355.647L614.783 353.326C612.622 352.815 610.36 352.928 608.261 353.652C606.162 354.376 604.312 355.682 602.926 357.417L602.634 357.771C601.248 359.501 600.386 361.592 600.15 363.796C599.914 366 600.314 368.226 601.302 370.211L619.321 406.646C620.509 409.041 620.846 411.769 620.279 414.381C619.711 416.993 618.272 419.335 616.198 421.022L613.075 423.531C610.979 425.174 608.388 426.058 605.725 426.041C603.062 426.024 600.483 425.106 598.408 423.437L566.907 397.756C565.179 396.348 563.084 395.465 560.87 395.212C558.656 394.96 556.415 395.347 554.415 396.329C554.269 396.329 554.124 396.475 553.967 396.527C551.971 397.485 550.29 398.991 549.119 400.87C547.948 402.748 547.337 404.922 547.357 407.135L547.794 447.786C547.813 450.457 546.924 453.055 545.273 455.155C543.622 457.254 541.306 458.73 538.706 459.341L534.761 460.226C532.16 460.805 529.44 460.483 527.046 459.315C524.652 458.146 522.725 456.199 521.582 453.793L510.131 429.444C523.976 403.027 531.179 373.636 531.117 343.811C531.117 337.784 530.816 331.808 530.274 325.937C531.537 326.231 532.829 326.378 534.126 326.374H534.324C536.842 326.383 539.331 325.823 541.604 324.738C543.876 323.652 545.875 322.068 547.452 320.104C549.028 318.139 550.142 315.845 550.709 313.391C551.277 310.937 551.284 308.386 550.73 305.929C550.579 305.222 550.381 304.527 550.136 303.847L527.422 241.325C561.185 232.034 591.605 213.323 615.126 187.38L654.341 178.011C656.935 177.394 659.662 177.676 662.075 178.811C664.488 179.945 666.444 181.865 667.624 184.257C668.217 185.496 668.81 186.672 669.404 187.911C670.535 190.329 670.818 193.057 670.208 195.656C669.598 198.255 668.13 200.573 666.041 202.235L633.947 227.219C632.214 228.597 630.905 230.435 630.168 232.523C629.432 234.611 629.298 236.864 629.783 239.024C629.843 239.166 629.878 239.318 629.887 239.472C630.379 241.643 631.481 243.628 633.064 245.194C634.646 246.76 636.643 247.841 638.819 248.31L678.575 256.95C681.152 257.498 683.466 258.907 685.137 260.944C686.807 262.982 687.735 265.527 687.767 268.162C687.778 268.942 687.778 269.681 687.778 270.42Z" fill="#FF6600"/>
<path d="M495.557 279.904H491.393C490.119 279.905 488.864 279.604 487.729 279.025C486.594 278.447 485.613 277.608 484.865 276.577C484.118 275.545 483.625 274.352 483.428 273.094C483.231 271.835 483.335 270.548 483.731 269.338L485.813 262.967C486.344 261.36 487.367 259.962 488.737 258.968C490.107 257.975 491.754 257.437 493.446 257.431C495.138 257.426 496.789 257.952 498.165 258.936C499.542 259.92 500.574 261.312 501.116 262.915L503.198 269.286C503.599 270.497 503.708 271.787 503.515 273.049C503.322 274.31 502.832 275.508 502.087 276.544C501.341 277.58 500.361 278.425 499.226 279.009C498.091 279.593 496.833 279.9 495.557 279.904Z" fill="url(#paint1_linear_1411_1367)"/>
<path d="M601.302 170.62C600.314 172.605 599.914 174.83 600.151 177.035C600.387 179.239 601.249 181.33 602.634 183.06C602.718 183.188 602.816 183.307 602.926 183.414C604.304 185.159 606.153 186.472 608.255 187.197C610.357 187.922 612.622 188.029 614.783 187.505L615.126 187.411C591.603 213.347 561.183 232.05 527.422 241.335L520.135 221.338C518.355 216.329 515.167 211.941 510.954 208.7C505.991 204.776 499.844 202.651 493.517 202.672C487.712 202.666 482.046 204.45 477.292 207.781C472.538 211.112 468.927 215.827 466.95 221.285L457.581 246.821C433.434 244.113 410.059 236.663 388.797 224.9C367.535 213.136 348.805 197.29 333.682 178.271L372.199 187.505C374.35 188.029 376.607 187.922 378.699 187.197C380.79 186.471 382.629 185.158 383.993 183.414C384.107 183.308 384.208 183.189 384.295 183.06C385.676 181.327 386.535 179.237 386.771 177.034C387.007 174.831 386.61 172.606 385.628 170.62L381.464 162.219L367.587 134.175C366.418 131.768 366.099 129.036 366.683 126.424C367.268 123.813 368.72 121.477 370.804 119.798C371.845 118.966 372.886 118.122 373.927 117.279C376.026 115.636 378.622 114.757 381.288 114.785C383.954 114.814 386.53 115.748 388.594 117.435L420.105 143.065C421.822 144.475 423.908 145.36 426.115 145.613C428.322 145.866 430.555 145.476 432.545 144.491C432.706 144.454 432.858 144.387 432.993 144.293C434.99 143.333 436.673 141.826 437.845 139.945C439.018 138.065 439.631 135.891 439.614 133.675L439.166 93.0759C439.147 90.405 440.036 87.8069 441.687 85.7075C443.339 83.6081 445.654 82.1318 448.254 81.5208L452.158 80.6359C454.762 80.039 457.492 80.3506 459.895 81.5189C462.298 82.6872 464.229 84.642 465.368 87.0589L482.628 123.879C483.601 125.904 485.13 127.611 487.035 128.801C488.941 129.992 491.145 130.617 493.392 130.604H493.538C495.787 130.625 497.997 130.004 499.905 128.812C501.814 127.621 503.343 125.91 504.312 123.879L521.582 87.0589C522.721 84.6448 524.647 82.6898 527.044 81.515C529.441 80.3402 532.166 80.0155 534.772 80.5943L538.717 81.4792C541.314 82.097 543.625 83.5751 545.275 85.673C546.925 87.7709 547.816 90.3653 547.805 93.0343L547.368 133.633C547.339 135.85 547.947 138.028 549.119 139.91C550.29 141.792 551.977 143.298 553.978 144.251C554.116 144.341 554.267 144.408 554.426 144.449C556.423 145.444 558.666 145.839 560.883 145.586C563.1 145.333 565.196 144.443 566.918 143.023L598.418 117.394C600.482 115.707 603.059 114.772 605.725 114.744C608.391 114.715 610.987 115.595 613.086 117.238C614.127 118.081 615.168 118.924 616.209 119.757C618.282 121.445 619.719 123.786 620.287 126.398C620.854 129.01 620.517 131.737 619.332 134.133L604.123 164.894L601.302 170.62Z" fill="#FF6600"/>
<path d="M531.128 343.811C531.186 373.637 523.98 403.028 510.131 429.444L504.301 417.004C503.332 414.973 501.803 413.262 499.895 412.071C497.986 410.879 495.777 410.258 493.527 410.279H493.381C491.134 410.266 488.93 410.891 487.025 412.081C485.119 413.272 483.591 414.979 482.617 417.004L472.207 439.073L465.368 453.793C464.237 456.211 462.314 458.17 459.917 459.346C457.52 460.522 454.793 460.843 452.189 460.257L448.285 459.372C445.681 458.768 443.362 457.294 441.709 455.193C440.057 453.092 439.171 450.49 439.197 447.817L439.645 407.166C439.66 404.962 439.054 402.797 437.896 400.921C436.738 399.045 435.075 397.533 433.097 396.559C432.951 396.506 432.805 396.402 432.649 396.361C430.655 395.388 428.425 395.006 426.221 395.258C424.017 395.511 421.931 396.388 420.209 397.787L388.646 423.468C386.571 425.138 383.992 426.056 381.329 426.073C378.665 426.09 376.075 425.205 373.978 423.562C372.937 422.729 371.896 421.886 370.855 421.053C368.77 419.375 367.317 417.04 366.732 414.428C366.148 411.816 366.468 409.083 367.639 406.677L385.669 370.242C386.652 368.256 387.049 366.031 386.813 363.828C386.577 361.625 385.718 359.535 384.336 357.802C384.232 357.698 384.139 357.552 384.035 357.448C382.663 355.713 380.824 354.407 378.734 353.682C376.645 352.957 374.391 352.844 372.24 353.357L346.85 359.426L332.63 362.83C330.036 363.445 327.31 363.162 324.897 362.028C322.484 360.893 320.528 358.974 319.347 356.584C318.753 355.397 318.212 354.159 317.619 352.93C316.476 350.524 316.185 347.8 316.794 345.207C317.403 342.613 318.876 340.304 320.971 338.658L353.023 313.622C354.774 312.259 356.097 310.422 356.835 308.33C357.573 306.237 357.695 303.977 357.187 301.817C357.181 301.664 357.149 301.512 357.093 301.369C356.619 299.197 355.528 297.208 353.951 295.64C352.374 294.072 350.378 292.993 348.203 292.531L308.448 283.891C305.871 283.334 303.558 281.924 301.883 279.89C300.207 277.855 299.267 275.315 299.214 272.68V268.234C299.267 265.599 300.207 263.059 301.883 261.024C303.558 258.99 305.871 257.58 308.448 257.023L348.203 248.383C350.378 247.921 352.374 246.842 353.951 245.274C355.528 243.706 356.619 241.717 357.093 239.544C357.149 239.402 357.181 239.25 357.187 239.097C357.687 236.937 357.561 234.679 356.824 232.588C356.086 230.497 354.768 228.66 353.023 227.292L320.919 202.256C318.812 200.612 317.329 198.299 316.715 195.698C316.102 193.097 316.395 190.364 317.546 187.953C318.139 186.714 318.681 185.537 319.274 184.299C320.461 181.913 322.418 179.999 324.829 178.865C327.24 177.732 329.963 177.445 332.557 178.053L333.598 178.292C348.74 197.324 367.494 213.175 388.782 224.936C410.07 236.696 433.472 244.134 457.644 246.821L437.688 301.536L436.844 303.857C436.018 306.133 435.692 308.56 435.89 310.972C436.087 313.385 436.804 315.727 437.99 317.837C439.176 319.947 440.804 321.777 442.762 323.2C444.72 324.623 446.963 325.606 449.336 326.083C450.425 326.28 451.53 326.378 452.636 326.374C456.162 326.382 459.6 325.281 462.465 323.226C465.329 321.17 467.474 318.266 468.595 314.923L469.636 311.8C470.164 310.187 471.191 308.783 472.567 307.79C473.944 306.796 475.6 306.265 477.298 306.273H509.496C511.192 306.264 512.848 306.795 514.223 307.789C515.598 308.782 516.622 310.187 517.147 311.8L518.188 314.923C519.088 317.649 520.673 320.099 522.791 322.036C524.909 323.974 527.489 325.335 530.285 325.989C530.826 331.808 531.128 337.784 531.128 343.811Z" fill="#969696"/>
<path d="M495.557 279.904H491.393C490.119 279.905 488.864 279.604 487.729 279.025C486.594 278.447 485.613 277.608 484.865 276.577C484.118 275.545 483.625 274.352 483.428 273.094C483.231 271.835 483.335 270.548 483.731 269.338L485.813 262.967C486.344 261.36 487.367 259.962 488.737 258.968C490.107 257.975 491.754 257.437 493.446 257.431C495.138 257.426 496.789 257.952 498.165 258.936C499.542 259.92 500.574 261.312 501.116 262.915L503.198 269.286C503.599 270.497 503.708 271.787 503.515 273.049C503.322 274.31 502.832 275.508 502.087 276.544C501.341 277.58 500.361 278.425 499.226 279.009C498.091 279.593 496.833 279.9 495.557 279.904Z" fill="#FF6600"/>
<path d="M133.57 845.635H94.2308L88.245 863.738H55.8179L96.2711 752.768H131.842L172.139 863.738H139.535L133.57 845.635ZM125.867 822.026L113.906 786.142L102.059 822.026H125.867Z" fill="#FF6600"/>
<path d="M264.205 784.799C270.194 791.566 273.186 800.72 273.179 812.261V863.738H242.334V816.363C242.334 811.324 241.022 807.361 238.399 804.474C237.062 803.029 235.426 801.892 233.604 801.144C231.783 800.397 229.82 800.055 227.853 800.144C223.231 800.144 219.612 801.587 216.996 804.474C214.379 807.361 213.068 811.324 213.061 816.363V863.738H182.216V775.441H213.071V788.037C215.897 783.959 219.679 780.636 224.085 778.356C228.995 775.825 234.458 774.555 239.981 774.66C250.155 774.653 258.23 778.033 264.205 784.799Z" fill="#FF6600"/>
<path d="M342.28 837.453V863.739H328.903C306.334 863.739 295.053 852.562 295.06 830.208V801.06H284.234V775.441H295.06V754.028H326.061V775.441H342.114V801.091H326.061V830.718C326.061 833.133 326.613 834.882 327.716 835.923C328.82 836.964 330.683 837.505 333.307 837.505L342.28 837.453Z" fill="#FF6600"/>
<path d="M356.365 795.584C359.311 789.173 364 783.719 369.898 779.844C375.596 776.177 382.245 774.262 389.021 774.338C394.488 774.194 399.903 775.437 404.761 777.95C409 780.208 412.54 783.585 414.994 787.714V775.441H445.839V863.739H414.994V851.455C412.525 855.601 408.953 858.981 404.678 861.219C399.858 863.714 394.488 864.956 389.063 864.832C382.287 864.907 375.638 862.992 369.939 859.325C364.026 855.437 359.334 849.955 356.406 843.512C353.096 836.641 351.441 828.64 351.441 819.507C351.441 810.373 353.082 802.399 356.365 795.584ZM410.351 806.13C408.868 804.593 407.093 803.37 405.129 802.531C403.165 801.693 401.053 801.257 398.918 801.249C396.782 801.242 394.667 801.662 392.697 802.486C390.728 803.31 388.943 804.521 387.449 806.046C384.402 809.253 382.879 813.739 382.879 819.507C382.879 825.17 384.402 829.656 387.449 832.967C388.889 834.568 390.657 835.84 392.633 836.695C394.61 837.55 396.747 837.969 398.9 837.922C401.046 837.966 403.177 837.554 405.151 836.712C407.125 835.871 408.898 834.619 410.351 833.04C413.446 829.792 414.994 825.281 414.994 819.507C414.994 813.843 413.446 809.385 410.351 806.13Z" fill="#FF6600"/>
<path d="M506.904 779.053C511.699 776.156 517.198 774.633 522.8 774.65V807.545H514.149C507.438 807.545 502.455 808.857 499.2 811.48C495.946 814.104 494.318 818.667 494.318 825.169V863.738H463.463V775.441H494.318V791.056C497.591 786.188 501.886 782.091 506.904 779.053Z" fill="#FF6600"/>
<path d="M604.019 845.635H564.669L558.694 863.738H526.267L566.72 752.768H602.291L642.578 863.738H609.994L604.019 845.635ZM596.305 822.026L584.344 786.142L572.591 822.026H596.305Z" fill="#969696"/>
<path d="M734.654 784.799C740.643 791.566 743.634 800.72 743.627 812.261V863.738H712.782V816.363C712.782 811.324 711.467 807.361 708.837 804.474C707.5 803.029 705.864 801.892 704.043 801.144C702.221 800.397 700.259 800.055 698.292 800.144C693.684 800.144 690.064 801.587 687.434 804.474C684.804 807.361 683.492 811.324 683.499 816.363V863.738H652.654V775.441H683.499V788.037C686.329 783.959 690.114 780.635 694.523 778.356C699.434 775.825 704.896 774.555 710.419 774.66C720.593 774.653 728.672 778.033 734.654 784.799Z" fill="#969696"/>
<path d="M812.718 837.453V863.739H799.342C776.78 863.739 765.499 852.562 765.499 830.208V801.06H754.641V775.441H765.499V754.028H796.51V775.441H812.562V801.091H796.51V830.718C796.51 833.133 797.062 834.882 798.165 835.923C799.269 836.964 801.122 837.505 803.745 837.505L812.718 837.453Z" fill="#969696"/>
<path d="M910.77 825.804H852.381C852.693 830.662 854.032 834.254 856.399 836.579C857.585 837.757 858.999 838.679 860.555 839.29C862.11 839.9 863.775 840.186 865.445 840.129C867.772 840.245 870.079 839.641 872.051 838.401C874.023 837.161 875.566 835.343 876.469 833.195H909.355C908.039 839.171 905.316 844.745 901.412 849.456C897.386 854.303 892.295 858.154 886.536 860.709C880.3 863.495 873.534 864.891 866.705 864.8C858.626 864.953 850.64 863.058 843.49 859.293C836.805 855.691 831.3 850.237 827.636 843.585C823.805 836.763 821.89 828.737 821.89 819.506C821.89 810.276 823.777 802.274 827.553 795.501C831.211 788.879 836.706 783.456 843.376 779.886C850.596 776.291 858.548 774.406 866.614 774.379C874.68 774.352 882.643 776.183 889.888 779.73C896.511 783.21 901.98 788.541 905.628 795.074C909.396 801.736 911.284 809.579 911.291 818.601C911.276 821.011 911.102 823.417 910.77 825.804ZM879.769 810.845C879.851 809.174 879.553 807.507 878.899 805.967C878.245 804.427 877.25 803.056 875.99 801.955C873.343 799.762 869.985 798.614 866.549 798.728C863.176 798.602 859.874 799.712 857.263 801.851C854.848 803.933 853.272 806.948 852.537 810.897L879.769 810.845Z" fill="#969696"/>
<path d="M967.276 779.053C972.074 776.155 977.577 774.632 983.182 774.65V807.545H974.521C967.803 807.545 962.82 808.857 959.572 811.48C956.324 814.104 954.697 818.667 954.69 825.169V863.739H923.835V775.441H954.69V791.056C957.963 786.188 962.258 782.091 967.276 779.053Z" fill="#969696"/>
<defs>
<linearGradient id="paint0_linear_1411_1367" x1="483.305" y1="268.661" x2="503.635" y2="268.661" gradientUnits="userSpaceOnUse">
<stop stop-color="#FFF33B"/>
<stop offset="0.04" stop-color="#FEE72E"/>
<stop offset="0.12" stop-color="#FED51B"/>
<stop offset="0.2" stop-color="#FDCA10"/>
<stop offset="0.28" stop-color="#FDC70C"/>
<stop offset="0.67" stop-color="#F3903F"/>
<stop offset="0.89" stop-color="#ED683C"/>
<stop offset="1" stop-color="#E93E3A"/>
</linearGradient>
<linearGradient id="paint1_linear_1411_1367" x1="483.305" y1="268.661" x2="503.635" y2="268.661" gradientUnits="userSpaceOnUse">
<stop stop-color="#FFF33B"/>
<stop offset="0.04" stop-color="#FEE72E"/>
<stop offset="0.12" stop-color="#FED51B"/>
<stop offset="0.2" stop-color="#FDCA10"/>
<stop offset="0.28" stop-color="#FDC70C"/>
<stop offset="0.67" stop-color="#F3903F"/>
<stop offset="0.89" stop-color="#ED683C"/>
<stop offset="1" stop-color="#E93E3A"/>
</linearGradient>
</defs>
</svg>
