<svg width="90" height="90" viewBox="0 0 90 90" fill="none" xmlns="http://www.w3.org/2000/svg">
<path fill-rule="evenodd" clip-rule="evenodd" d="M45 89.5C69.5767 89.5 89.5 69.5767 89.5 45C89.5 20.4233 69.5767 0.5 45 0.5C20.4233 0.5 0.5 20.4233 0.5 45C0.5 69.5767 20.4233 89.5 45 89.5ZM37.8083 29.9417C35.636 27.7694 32.114 27.7694 29.9417 29.9417C27.7694 32.114 27.7694 35.636 29.9417 37.8083L37.1334 45L29.9417 52.1917C27.7694 54.364 27.7694 57.886 29.9417 60.0583C32.114 62.2306 35.636 62.2306 37.8083 60.0583L45 52.8666L52.1917 60.0583C54.364 62.2306 57.886 62.2306 60.0583 60.0583C62.2306 57.886 62.2306 54.364 60.0583 52.1917L52.8666 45L60.0583 37.8083C62.2306 35.636 62.2306 32.114 60.0583 29.9417C57.886 27.7694 54.364 27.7694 52.1917 29.9417L45 37.1334L37.8083 29.9417Z" fill="#CB3A31"/>
</svg>
