<svg width="14" height="15" viewBox="0 0 14 15" fill="none" xmlns="http://www.w3.org/2000/svg">
<path fill-rule="evenodd" clip-rule="evenodd" d="M7.00026 5.99991C7.00017 5.99994 7.00009 5.99997 7 6C6.99991 5.99997 6.99983 5.99994 6.99974 5.99991C6.99981 5.99991 6.99989 5.99991 6.99996 5.99991C7.00006 5.99991 7.00016 5.99991 7.00026 5.99991ZM8.19254 5.50703C8.68254 5.05137 8.99996 4.32198 8.99996 3.49991C8.99996 2.41028 8.44228 1.48346 7.66424 1.14111C7.95684 1.68368 7.73907 2.51498 7.10549 3.12571C6.42991 3.77691 5.52109 3.94645 5.00024 3.54248C5.01099 4.34707 5.32581 5.05915 5.80728 5.50694C4.79555 4.98169 4 4.20662 4 3C4 1.34315 5.34315 0 7 0C8.65685 0 10 1.34315 10 3C10 4.2067 9.20435 4.98178 8.19254 5.50703ZM7 8C3.13401 8 0 11.134 0 15H14C14 11.134 10.866 8 7 8Z" fill="#FF2DC4"/>
</svg>
