<svg width="255" height="255" viewBox="0 0 255 255" fill="none" xmlns="http://www.w3.org/2000/svg">
<path fill-rule="evenodd" clip-rule="evenodd" d="M254.4 127.2C254.4 197.451 197.451 254.4 127.2 254.4C56.9494 254.4 0 197.451 0 127.2C0 56.9494 56.9494 0 127.2 0C197.451 0 254.4 56.9494 254.4 127.2ZM143.1 63.6C143.1 72.3813 135.981 79.5 127.2 79.5C118.419 79.5 111.3 72.3813 111.3 63.6C111.3 54.8187 118.419 47.7 127.2 47.7C135.981 47.7 143.1 54.8187 143.1 63.6ZM111.3 111.3C102.519 111.3 95.4 118.419 95.4 127.2C95.4 135.981 102.519 143.1 111.3 143.1V190.8C111.3 199.581 118.419 206.7 127.2 206.7H143.1C151.881 206.7 159 199.581 159 190.8C159 182.019 151.881 174.9 143.1 174.9V127.2C143.1 118.419 135.981 111.3 127.2 111.3H111.3Z" fill="#263A96"/>
</svg>
