<svg width="14" height="14" viewBox="0 0 14 14" fill="none" xmlns="http://www.w3.org/2000/svg">
<g id="Icon/Fill/map">
<path id="Mask" fill-rule="evenodd" clip-rule="evenodd" d="M11.0833 10.1816L9.91667 9.65772V3.81856L11.0833 4.34239V10.1816ZM5.25 3.81856L6.41667 4.34239V10.1816L5.25 9.65772V3.81856ZM11.9058 3.43356L9.5725 2.38472C9.56375 2.38064 9.55442 2.38006 9.54567 2.37656C9.52175 2.36722 9.49783 2.36081 9.47333 2.35439C9.45058 2.34856 9.42783 2.34331 9.4045 2.34097C9.38175 2.33806 9.359 2.33747 9.33567 2.33747C9.31 2.33747 9.28492 2.33806 9.25925 2.34097C9.23767 2.34331 9.21725 2.34856 9.19625 2.35381C9.17058 2.36022 9.1455 2.36722 9.12042 2.37656C9.11225 2.38006 9.10233 2.38064 9.09417 2.38472L7 3.32564L4.90583 2.38472C4.89708 2.38064 4.88775 2.38006 4.879 2.37656C4.85508 2.36722 4.83117 2.36081 4.80667 2.35439C4.78392 2.34856 4.76117 2.34331 4.73783 2.34097C4.71508 2.33806 4.69233 2.33747 4.669 2.33747C4.64333 2.33747 4.61825 2.33806 4.59258 2.34097C4.571 2.34331 4.55058 2.34856 4.52958 2.35381C4.50392 2.36022 4.47883 2.36722 4.45375 2.37656C4.44558 2.38006 4.43567 2.38064 4.4275 2.38472L2.09417 3.43356C1.88475 3.52747 1.75 3.73572 1.75 3.96556V11.0834C1.75 11.2811 1.85033 11.4655 2.01658 11.5734C2.11225 11.6352 2.2225 11.6667 2.33333 11.6667C2.41442 11.6667 2.49608 11.6498 2.5725 11.6154L4.66667 10.6745L6.76083 11.6154C6.76958 11.6195 6.77892 11.6177 6.78825 11.6212C6.8565 11.6486 6.92708 11.6667 7 11.6667C7.07292 11.6667 7.1435 11.6486 7.21175 11.6212C7.2205 11.6177 7.231 11.6195 7.23917 11.6154L9.33333 10.6745L11.4275 11.6154C11.5039 11.6498 11.5856 11.6667 11.6667 11.6667C11.7775 11.6667 11.8877 11.6352 11.9834 11.5734C12.1497 11.4655 12.25 11.2811 12.25 11.0834V3.96556C12.25 3.73572 12.1152 3.52747 11.9058 3.43356Z" fill="#231F20"/>
<mask id="mask0_825_1453" style="mask-type:alpha" maskUnits="userSpaceOnUse" x="1" y="2" width="12" height="10">
<path id="Mask_2" fill-rule="evenodd" clip-rule="evenodd" d="M11.0833 10.1816L9.91667 9.65772V3.81856L11.0833 4.34239V10.1816ZM5.25 3.81856L6.41667 4.34239V10.1816L5.25 9.65772V3.81856ZM11.9058 3.43356L9.5725 2.38472C9.56375 2.38064 9.55442 2.38006 9.54567 2.37656C9.52175 2.36722 9.49783 2.36081 9.47333 2.35439C9.45058 2.34856 9.42783 2.34331 9.4045 2.34097C9.38175 2.33806 9.359 2.33747 9.33567 2.33747C9.31 2.33747 9.28492 2.33806 9.25925 2.34097C9.23767 2.34331 9.21725 2.34856 9.19625 2.35381C9.17058 2.36022 9.1455 2.36722 9.12042 2.37656C9.11225 2.38006 9.10233 2.38064 9.09417 2.38472L7 3.32564L4.90583 2.38472C4.89708 2.38064 4.88775 2.38006 4.879 2.37656C4.85508 2.36722 4.83117 2.36081 4.80667 2.35439C4.78392 2.34856 4.76117 2.34331 4.73783 2.34097C4.71508 2.33806 4.69233 2.33747 4.669 2.33747C4.64333 2.33747 4.61825 2.33806 4.59258 2.34097C4.571 2.34331 4.55058 2.34856 4.52958 2.35381C4.50392 2.36022 4.47883 2.36722 4.45375 2.37656C4.44558 2.38006 4.43567 2.38064 4.4275 2.38472L2.09417 3.43356C1.88475 3.52747 1.75 3.73572 1.75 3.96556V11.0834C1.75 11.2811 1.85033 11.4655 2.01658 11.5734C2.11225 11.6352 2.2225 11.6667 2.33333 11.6667C2.41442 11.6667 2.49608 11.6498 2.5725 11.6154L4.66667 10.6745L6.76083 11.6154C6.76958 11.6195 6.77892 11.6177 6.78825 11.6212C6.8565 11.6486 6.92708 11.6667 7 11.6667C7.07292 11.6667 7.1435 11.6486 7.21175 11.6212C7.2205 11.6177 7.231 11.6195 7.23917 11.6154L9.33333 10.6745L11.4275 11.6154C11.5039 11.6498 11.5856 11.6667 11.6667 11.6667C11.7775 11.6667 11.8877 11.6352 11.9834 11.5734C12.1497 11.4655 12.25 11.2811 12.25 11.0834V3.96556C12.25 3.73572 12.1152 3.52747 11.9058 3.43356Z" fill="white"/>
</mask>
<g mask="url(#mask0_825_1453)">
<g id="&#240;&#159;&#142;&#168; Color">
<rect id="Base" width="14" height="14" fill="#0D1C2E"/>
</g>
</g>
</g>
</svg>
