<svg width="14" height="14" viewBox="0 0 14 14" fill="none" xmlns="http://www.w3.org/2000/svg">
<path fill-rule="evenodd" clip-rule="evenodd" d="M6.99999 8.16667H5.24999C4.92799 8.16667 4.66665 7.90534 4.66665 7.58334C4.66665 7.26134 4.92799 7.00001 5.24999 7.00001H6.99999C7.32199 7.00001 7.58332 7.26134 7.58332 7.58334C7.58332 7.90534 7.32199 8.16667 6.99999 8.16667ZM5.24999 9.33334H8.74999C9.07257 9.33334 9.33332 9.59467 9.33332 9.91667C9.33332 10.2387 9.07257 10.5 8.74999 10.5H5.24999C4.92799 10.5 4.66665 10.2387 4.66665 9.91667C4.66665 9.59467 4.92799 9.33334 5.24999 9.33334ZM10.1758 11.6667H3.82391C3.64541 11.6667 3.50016 11.536 3.50016 11.375V2.62501C3.50016 2.46401 3.64541 2.33334 3.82391 2.33334H7.00016V4.17084C7.00016 5.08784 7.71008 5.83334 8.58333 5.83334H10.5002V11.375C10.5002 11.536 10.3549 11.6667 10.1758 11.6667ZM8.16683 2.90384L9.76633 4.66667H8.58333C8.3535 4.66667 8.16683 4.44442 8.16683 4.17084V2.90384ZM11.5152 4.85801L8.3395 1.35801C8.22866 1.23609 8.07233 1.16667 7.90725 1.16667H3.82391C3.002 1.16667 2.3335 1.82117 2.3335 2.62501V11.375C2.3335 12.1788 3.002 12.8333 3.82391 12.8333H10.1758C10.9977 12.8333 11.6668 12.1788 11.6668 11.375V5.25001C11.6668 5.10476 11.6126 4.96534 11.5152 4.85801Z" fill="#231F20"/>
<mask id="mask0_876_1929" style="mask-type:alpha" maskUnits="userSpaceOnUse" x="2" y="1" width="10" height="12">
<path fill-rule="evenodd" clip-rule="evenodd" d="M6.99999 8.16667H5.24999C4.92799 8.16667 4.66665 7.90534 4.66665 7.58334C4.66665 7.26134 4.92799 7.00001 5.24999 7.00001H6.99999C7.32199 7.00001 7.58332 7.26134 7.58332 7.58334C7.58332 7.90534 7.32199 8.16667 6.99999 8.16667ZM5.24999 9.33334H8.74999C9.07257 9.33334 9.33332 9.59467 9.33332 9.91667C9.33332 10.2387 9.07257 10.5 8.74999 10.5H5.24999C4.92799 10.5 4.66665 10.2387 4.66665 9.91667C4.66665 9.59467 4.92799 9.33334 5.24999 9.33334ZM10.1758 11.6667H3.82391C3.64541 11.6667 3.50016 11.536 3.50016 11.375V2.62501C3.50016 2.46401 3.64541 2.33334 3.82391 2.33334H7.00016V4.17084C7.00016 5.08784 7.71008 5.83334 8.58333 5.83334H10.5002V11.375C10.5002 11.536 10.3549 11.6667 10.1758 11.6667ZM8.16683 2.90384L9.76633 4.66667H8.58333C8.3535 4.66667 8.16683 4.44442 8.16683 4.17084V2.90384ZM11.5152 4.85801L8.3395 1.35801C8.22866 1.23609 8.07233 1.16667 7.90725 1.16667H3.82391C3.002 1.16667 2.3335 1.82117 2.3335 2.62501V11.375C2.3335 12.1788 3.002 12.8333 3.82391 12.8333H10.1758C10.9977 12.8333 11.6668 12.1788 11.6668 11.375V5.25001C11.6668 5.10476 11.6126 4.96534 11.5152 4.85801Z" fill="white"/>
</mask>
<g mask="url(#mask0_876_1929)">
<rect width="14" height="14" fill="#0D1C2E"/>
</g>
</svg>
