<svg width="14" height="14" viewBox="0 0 14 14" fill="none" xmlns="http://www.w3.org/2000/svg">
<g id="Icon/Outline/person">
<path id="Mask" fill-rule="evenodd" clip-rule="evenodd" d="M8.16663 4.08333C8.16663 3.43992 7.64338 2.91667 6.99996 2.91667C6.35654 2.91667 5.83329 3.43992 5.83329 4.08333C5.83329 4.72675 6.35654 5.25 6.99996 5.25C7.64338 5.25 8.16663 4.72675 8.16663 4.08333ZM9.33329 4.08333C9.33329 5.37017 8.28679 6.41667 6.99996 6.41667C5.71313 6.41667 4.66663 5.37017 4.66663 4.08333C4.66663 2.7965 5.71313 1.75 6.99996 1.75C8.28679 1.75 9.33329 2.7965 9.33329 4.08333ZM2.91663 11.6667C2.91663 9.415 4.74888 7.58333 6.99996 7.58333C9.25104 7.58333 11.0833 9.415 11.0833 11.6667C11.0833 11.9887 10.8225 12.25 10.5 12.25C10.1774 12.25 9.91663 11.9887 9.91663 11.6667C9.91663 10.0584 8.60821 8.75 6.99996 8.75C5.39171 8.75 4.08329 10.0584 4.08329 11.6667C4.08329 11.9887 3.82254 12.25 3.49996 12.25C3.17738 12.25 2.91663 11.9887 2.91663 11.6667Z" fill="#231F20"/>
<mask id="mask0_843_1482" style="mask-type:alpha" maskUnits="userSpaceOnUse" x="2" y="1" width="10" height="12">
<path id="Mask_2" fill-rule="evenodd" clip-rule="evenodd" d="M8.16663 4.08333C8.16663 3.43992 7.64338 2.91667 6.99996 2.91667C6.35654 2.91667 5.83329 3.43992 5.83329 4.08333C5.83329 4.72675 6.35654 5.25 6.99996 5.25C7.64338 5.25 8.16663 4.72675 8.16663 4.08333ZM9.33329 4.08333C9.33329 5.37017 8.28679 6.41667 6.99996 6.41667C5.71313 6.41667 4.66663 5.37017 4.66663 4.08333C4.66663 2.7965 5.71313 1.75 6.99996 1.75C8.28679 1.75 9.33329 2.7965 9.33329 4.08333ZM2.91663 11.6667C2.91663 9.415 4.74888 7.58333 6.99996 7.58333C9.25104 7.58333 11.0833 9.415 11.0833 11.6667C11.0833 11.9887 10.8225 12.25 10.5 12.25C10.1774 12.25 9.91663 11.9887 9.91663 11.6667C9.91663 10.0584 8.60821 8.75 6.99996 8.75C5.39171 8.75 4.08329 10.0584 4.08329 11.6667C4.08329 11.9887 3.82254 12.25 3.49996 12.25C3.17738 12.25 2.91663 11.9887 2.91663 11.6667Z" fill="white"/>
</mask>
<g mask="url(#mask0_843_1482)">
<g id="&#240;&#159;&#142;&#168; Color">
<rect id="Base" width="14" height="14" fill="#0D1C2E"/>
</g>
</g>
</g>
</svg>
