<svg width="6" height="8" viewBox="0 0 6 8" fill="none" xmlns="http://www.w3.org/2000/svg">
<path d="M2.36444 2.06372V1.81953C2.26662 1.81424 2.17333 1.81512 2.08154 1.80232C1.9844 1.78754 1.89623 1.73594 1.8345 1.65774C1.77276 1.57954 1.74197 1.48046 1.74823 1.38012C1.76309 1.12335 1.79369 0.867467 1.81761 0.611143C1.82493 0.534598 1.83441 0.458274 1.84131 0.381509C1.8607 0.162685 2.02186 0.00275737 2.23473 0.00165442C2.74551 -0.000551473 3.25622 -0.000551473 3.76686 0.00165442C3.98016 0.00165442 4.14326 0.163126 4.16373 0.378641C4.19332 0.687466 4.22435 0.996659 4.25681 1.30622C4.26501 1.37054 4.25951 1.43592 4.24069 1.49787C4.22186 1.55981 4.19016 1.61684 4.14777 1.66505C4.10537 1.71326 4.05328 1.75149 3.99507 1.77713C3.93687 1.80277 3.87394 1.8152 3.8106 1.81357H3.63974V2.06372C3.68003 2.06372 3.71666 2.06218 3.75307 2.06372C3.99934 2.07541 4.25013 2.06218 4.49101 2.10541C5.06133 2.20799 5.28153 2.68314 5.24512 3.13976C5.19492 3.78388 5.24512 4.41917 5.34811 5.05337C5.38086 5.25631 5.42438 5.45749 5.46596 5.65867C5.46866 5.67244 5.47401 5.68552 5.48171 5.69715C5.4894 5.70877 5.49929 5.71872 5.51078 5.72639C5.86111 5.89536 6.01043 6.1883 5.99944 6.57124C5.99082 6.87522 5.91778 7.16419 5.75187 7.42117C5.51487 7.78779 5.17122 7.96338 4.75064 7.99316C4.64636 8.00066 4.54121 7.99713 4.4365 7.99735C3.42859 7.99853 2.42067 7.99941 1.41276 8C1.08246 8 0.772848 7.93029 0.509127 7.71323C0.214595 7.47059 0.0767016 7.1397 0.0191743 6.76823C-0.00926625 6.58426 -0.0109897 6.40183 0.0480459 6.22249C0.0803558 6.1172 0.133969 6.02005 0.205394 5.93739C0.276819 5.85472 0.364453 5.78839 0.462588 5.74271C0.483336 5.73507 0.501739 5.72194 0.51593 5.70466C0.53012 5.68738 0.539592 5.66657 0.543384 5.64433C0.704332 4.88991 0.804305 4.12932 0.776942 3.35461C0.77134 3.19601 0.751517 3.03321 0.776942 2.87924C0.852998 2.41997 1.14968 2.13696 1.60236 2.08733C1.81782 2.06372 2.03651 2.07078 2.25391 2.06416C2.28903 2.06284 2.32372 2.06372 2.36444 2.06372ZM1.58448 6.27698V7.75956H4.42056V6.27698H1.58448ZM4.00925 6.03014V3.99829H1.99751V6.03014H4.00925ZM1.99536 2.30218C1.99363 2.32975 1.99083 2.3538 1.99083 2.37784C1.99083 2.80998 1.99213 3.24189 1.98911 3.67402C1.98911 3.74373 2.01066 3.76226 2.07529 3.76094C2.69294 3.75873 3.31109 3.75873 3.92974 3.76094C3.99632 3.76094 4.01593 3.74241 4.01593 3.6727C4.01313 3.24079 4.01463 2.80865 4.01442 2.37674C4.01442 2.35269 4.0114 2.32865 4.00968 2.30152L1.99536 2.30218ZM5.22723 5.67168C5.22867 5.6602 5.22924 5.64862 5.22896 5.63705C5.16238 5.20646 5.08589 4.77675 5.03203 4.3444C4.98762 3.9618 4.98249 3.5755 5.01673 3.19182C5.0581 2.68292 4.80257 2.32225 4.24625 2.31211V6.04933C4.34256 6.03698 4.45632 6.05683 4.51967 6.00808C4.73276 5.84352 4.94972 5.69947 5.22659 5.6708L5.22723 5.67168ZM1.75835 2.30637C1.72151 2.30924 1.68962 2.31166 1.65795 2.31453C1.31602 2.34608 1.07966 2.53821 1.01158 2.86821C0.984213 2.99924 0.994124 3.14064 1.0008 3.27652C1.03075 3.89175 0.981627 4.50101 0.8795 5.10741C0.848258 5.29293 0.81163 5.47756 0.776511 5.66837C1.01513 5.69151 1.23969 5.79437 1.41556 5.96109C1.52566 6.06367 1.63877 6.03565 1.75879 6.03698L1.75835 2.30637ZM2.99767 1.57843C3.27432 1.57843 3.55097 1.57975 3.82762 1.57843C3.99783 1.57843 4.06462 1.47122 4.02261 1.28063C3.96486 1.01989 3.9278 0.753864 3.94095 0.48651C3.9515 0.269891 3.84033 0.186508 3.59621 0.255994C3.21396 0.360726 2.81159 0.361258 2.42908 0.257538C2.1311 0.17967 2.03716 0.277832 2.06883 0.578495C2.09138 0.77544 2.0722 0.975047 2.0126 1.16372C1.92383 1.43593 1.97575 1.57732 2.18496 1.57843C2.45536 1.57953 2.72662 1.57865 2.99789 1.57843H2.99767ZM1.35049 7.76463V6.47198C1.35049 6.16117 1.33886 6.13999 1.06372 5.99529C1.00695 5.96452 0.946959 5.94047 0.884886 5.92359C0.828082 5.9078 0.769035 5.9022 0.710365 5.90705C0.498354 5.93021 0.320816 6.09786 0.259626 6.32176C0.171072 6.64602 0.302718 7.26919 0.647451 7.53015C0.854722 7.68897 1.08548 7.7611 1.35049 7.76463ZM4.65455 7.76463C4.82777 7.76671 4.99938 7.73044 5.15764 7.65831C5.69305 7.4225 5.84883 6.69367 5.74196 6.3094C5.66397 6.02859 5.40003 5.85984 5.14385 5.91962C4.98334 5.95712 4.84824 6.04602 4.71918 6.14705C4.69737 6.16237 4.67982 6.18324 4.66826 6.20761C4.6567 6.23197 4.65153 6.25899 4.65325 6.28602C4.65562 6.74926 4.65455 7.21073 4.65455 7.67309V7.76463ZM3.40489 1.82416H2.60381V2.05755H3.4064L3.40489 1.82416Z" fill="black"/>
</svg>
