<svg width="90" height="89" viewBox="0 0 90 89" fill="none" xmlns="http://www.w3.org/2000/svg">
<path fill-rule="evenodd" clip-rule="evenodd" d="M45 89C69.5767 89 89.5 69.0767 89.5 44.5C89.5 19.9233 69.5767 0 45 0C20.4233 0 0.5 19.9233 0.5 44.5C0.5 69.0767 20.4233 89 45 89ZM65.6208 37.3083C67.7931 35.136 67.7931 31.614 65.6208 29.4417C63.4485 27.2694 59.9265 27.2694 57.7542 29.4417L39.4375 47.7584L32.2458 40.5667C30.0735 38.3944 26.5515 38.3944 24.3792 40.5667C22.2069 42.739 22.2069 46.261 24.3792 48.4333L35.5042 59.5583C37.6765 61.7306 41.1985 61.7306 43.3708 59.5583L65.6208 37.3083Z" fill="#43936C"/>
</svg>
